<mxfile host="app.diagrams.net" modified="2023-09-19T12:26:20.764Z" agent="Mozilla/5.0 (X11; Linux x86_64) AppleWebKit/537.36 (KHTML, like Gecko) Chrome/116.0.0.0 Safari/537.36" etag="eDXGfg__9OArozCjqkFp" version="21.7.5" type="github">
  <diagram name="Page-1" id="7AwzsDhcvNyY7E9n4FQn">
    <mxGraphModel dx="5374" dy="2570" grid="1" gridSize="10" guides="1" tooltips="1" connect="1" arrows="1" fold="1" page="1" pageScale="1" pageWidth="827" pageHeight="1169" math="0" shadow="0">
      <root>
        <mxCell id="0" />
        <mxCell id="1" parent="0" />
        <mxCell id="64CzBekOkJDm1e2adV5O-1" value="" style="shape=image;verticalLabelPosition=bottom;labelBackgroundColor=default;verticalAlign=top;aspect=fixed;imageAspect=0;image=data:image/png,iVBORw0KGgoAAAANSUhEUgAABjYAAAOjCAYAAAAYsz3zAAAABHNCSVQICAgIfAhkiAAAABl0RVh0U29mdHdhcmUAZ25vbWUtc2NyZWVuc2hvdO8Dvz4AAABKaVRYdENyZWF0aW9uIFRpbWUAAAAAANGD0YLQvtGA0LDQuiwgMTkuINGB0LXQv9GC0LXQvNCx0LDRgCAyMDIzLiAxNDoyNjowOCBDRVNUoRSuXQAAIABJREFUeJzs3XmclfV99//XdZ0z+wwzA8O+g7JEFEFApEYxGmOTqDXWLXdbNeb3iKm50yS9sxhta0x7p1lMmlt7pzUmVWN6JxrjGjUuqBFUVAQFgWEfYFiGdRZmPef6/v44Z2YANdEswMjryeM4eLbre/iLmTefzzsK2RCQJEmSJEmSJEnqA+LDfQBJkiRJkiRJkqR3ymBDkiRJkiRJkiT1GQYbkiRJkiRJkiSpzzDYkCRJkiRJkiRJfYbBhiRJkiRJkiRJ6jMMNiRJkiRJkiRJUp9hsCFJkiRJkiRJkvoMgw1JkiRJkiRJktRnGGxIkiRJkiRJkqQ+w2BDkiRJkiRJkiT1GQYbkiRJkiRJkiSpzzDYkCRJkiRJkiRJfYbBhiRJkiRJkiRJ6jMMNiRJkiRJkiRJUp9hsCFJkiRJkiRJkvoMgw1JkiRJkiRJktRnGGxIkiRJkiRJkqQ+w2BDkiRJkiRJkiT1GQYbkiRJkiRJkiSpzzDYkCRJkiRJkiRJfYbBhiRJkiRJkiRJ6jMMNiRJkiRJkiRJUp9hsCFJkiRJkiRJkvoMgw1JkiRJkiRJktRnGGxIkiRJkiRJkqQ+w2BDkiRJkiRJkiT1GQYbkiRJkiRJkiSpzzDYkCRJkiRJkiRJfYbBhiRJkiRJkiRJ6jMMNiRJkiRJkiRJUp9hsCFJkiRJkiRJkvoMgw1JkiRJkiRJktRnGGxIkiRJkiRJkqQ+w2BDkiRJkiRJkiT1GQYbkiRJkiRJkiSpzzDYkCRJkiRJkiRJfYbBhiRJkiRJkiRJ6jMMNiRJkiRJkiRJUp9hsCFJkiRJkiRJkvoMgw1JkiRJkiRJktRnGGxIkiRJkiRJkqQ+w2BDkiRJkiRJkiT1GQYbkiRJkiRJkiSpzzDYkCRJkiRJkiRJfYbBhiRJkiRJkiRJ6jMMNiRJkiRJkiRJUp9hsCFJkiRJkiRJkvqM9OE+gCRJkiQdFtE7vG9/IX+TJEmSdNg4sSFJkiTpqBK6k4m3Cil+V2gR8bvDD0mSJEl/Uk5sSJIkSerbuoOGdzhJEcV/YDLxLq8nSZIk6Y/LYEOSJElS3xTRM3URgBAS4ig+YC49JIFsNsuOHTtoaNhBY+NeWve10pXpIiIiiuNcThFBeXk5lZVVDBxYQ//+/Umn06QL0rn3D4Eoinqva7ghSZIkHTZRyAb/Ki5JkiSpTwrsFzgARNDe2s6WrVt47bXXeP3111m5YiWbNm+ioaGB5uZm2tvbyWQyxHFMHMVEUUQgUFpSSnl5OTU1NYwcNYqJEycyc8YMxo0fz5gxYygtK3mrAxhuSJIkSYeYwYYkSZKkI153L0ZPiLH/dzExZDNZWlpaeOSRR3l63jyef+F51q9fT2dnJ5ls5oD3ivK/UukUURT3XiEEujJdPc9Lp9KkUmkmTDiWk08+mTM/cCYf/siH6VfZ7+DDGW5IkiRJh5DBhiRJkqQj3v6TGSEJRKkIArS3tbNq9SqeffZZHnjgAV5++WWampsAKC8rp6ysjKFDhzFixHA6Ojp47jfP0dnVSSpO9bxfEhKy2SzVVdXMPmU2RUVFbFi/gY2bNtHYuLcnGCktKeWU2adwwccu4LTTTmPChAkUFhYC+cDF76wkSZKkQ8KODUmSJElHvIjeSY0ojujq7OKNN97gscce46EHH+KN5W/Q2NRIKkoxetQYTj75ZGbOnMEJJ5zAwJqBvL50KXfd9RMCgVScorS0lPaOdrKZLHEqJskmdGUyFBUW8Td/czljxoymfnM9byx/g5dffplFixaxfsN6nn76aV5+5WWOP/54zj77bD76kY9y3JTjKCws7D2jJEmSpD8pJzYkSZIkHbn2K+lOQkKcitm1cxf//d//zc9+9nNef/01Wva1kI7TjB4zmquuuoq5c+cyduxY+vfvD8C8eU/zta99jSVLFtPV1cVp7z+NsePG8stf/pKioiIuuugiHnv0MdasW0M6VcDcuafz1Wu/yqnvP5WurgxNTY1s3rSZJ596iv/6rx+zZs1aQkgoLCxk6tSp/NVf/RWXXHIpAwfWHBBu9KzPMvCQJEmS/qgMNiRJkiQd0UK+/yKbzbJo0avccvPNPPzwwzQ2N1JaUsYx48dzyaWXcOWVVzJ0yFDI12YkmYSHHn6YG274J15/fSn9+vXjnHM+xPXXX89rr73GNddcQ2lJKf/93/9NQWEBX/rSl3n55ZeI45hp06Zx4403csbcM0ilUoSQW3+1dctWbr/9Dn72s/9Hbe0qOjrbqepXxZlnncnnPvc55sz5M+I4vzIrGGxIkiRJfwqpG/7phhsO9yEkSZIk6a2EkOvWaGpu4t577+X6667jyaeeJIojTpx6IpdffjnX/8P1nHvuuVRVVUGc7+CIIh5//Alu/NrXWLJkCf36VXDVJ67iK1/5CuPHjae2tpZHH32UVCrFZZddxuzZs5k9ezb79u1j5cqVbNy4kbq6OkaPGs3IUSNJpVMAVFRUMOeUUzj99LkMHTKEpqYmtmzZytJlr7N40WJKiosZf8x4ioqLSLK9vSCGG5IkSdIfj8GGJEmSpCNWlIpoaGjgh7f+kBtvvJH1G9ZTWVnFJRdfzFe/+lXOP/98Ro0eRTqdJoTc5qqurgwLFy7ki1/8Iq8sepmSkhI+/elP8/d///cMGzaMiIgVK1fwyCOPUFhYyF/+5V8yesxoqquqOXHqiTQ1NrF06VLWrlvH2rVrmDlzJoMHDSGKcqFJHMUMGjyQmTNmMv2k6cRxio0bN7Fu3Tp+89xzdHV1MWnSJPpV9Ot5vmupJEmSpD8egw1JkiRJR5QkJBDlSsK3b9vOTTfdxHe+8x2amps44YQT+OxnP8tnP/tZ3nfc+yguLu55XUgSQgi88vIrXP8P1/P8CwsY0H8An//c57nuuuup7l+dKx+PImpra3nkkUdIpdJc9JcXMXLUSEigf01/ZsyYSWtrK8uXL2f12tXs2rWLKVOOY+CggUREBHKTGOmCNCNGjGD2rJOprq5i7do11NfX8+KLL5LJZJg8aTL9KvsRxfsVn0cGG5IkSdIfymBDkiRJ0pElH2ps3LCRb37zm9z1k7toam5izilz+NKXvsTFF1/MgAEDep7bLUkCW+rrufHrN/LkE09SWlLKp6/+NH97zd/Sf0A1JJCEQBxHrFiRm9iI45iLL7mYkSNGEse5co7y8nImT34fLS3NLF26lFWrVtHR0cGsWSdTVl4GIWL/fKK0rJSJEyYydsxYNm7cyLZt21ixYgW7d+9mypQpVPevPiDQcGpDkiRJ+sPEh/sAkiRJkgTkQoruSY2t2/mX//2/+fGPfsyOXTsYMGAAn/27v+Occ86hpKSEEOgNNUL+S0j48Y9/zK9+9Qjtne187MKPcfWnP82QIUPIZrL5UCMmIsp9jSIg9AYN+euHAGPGjuaaa67hA2d8gPaOdn7+85/zwx/eSldnhiiGzo5OALKZBAJUVVfxsQs/xnXXXUdNTQ179+7lpz/9KTfddBNbt2ztndYIh/aPVJIkSXovMtiQJEmSdFgFwgGTF02NTdzy77dw++2309mZCxB27drNT35yJ2+88QadnV0kSZYkmxCygRACnR2d/PrXv+auu+6ira2VuafP5Zq/vYYRw4fn3iPkrhTlw4uCgoLeoOGgAYp83sH73vc+Pv+FzzPluCk0NjZy1113sXjxYjJdWdLpAkICqVQMEWS6MixevJg77ryDhoYGCNDe0c4PfvADvvPt79DY2Hho/jAlSZKko4DBhiRJkqTDKiIihEA2k6Wzs5Of/OQn3HrrrWQyGU6ZcwpnnflBysvKeOKJJ7j++ut5et48Ojo6iFMxIeSCjfXr13PbbbexoW4D48eP55prrmHGrBlEcUQ6le4JL0J+YqKoqIg3JRqh50A9tz/7sz/jM5/5DMOHD6e2tpZbbrmZzZs35d8rEJLA3t17eeqpp/jKV77Co488SlFhEaedfhqzZs4iCQl33HkHd9xxBx0dHURRRBJyXSAOb0iSJEm/H4MNSZIkSYdVIJAkCal0innz5vGP//iP7Ny5kxOnTuX666/n29/6Fueedx7ZTJYnn3qSL/z9F7j11lvZvGkzcTqmq6uLxx57jKeefAoCnH32h/jgWR/sef+oe0yj+78RpFIp3rLH+6C0oaS0hAsuuIDT3n8aBQWF/PrXv2bevHl0dXYSQmBzfT23/eg2Pve5z/HMM88A8OEPf5jvfve73PC1G5g+bTp7du/hn7/+zzz26GMkISGO4re+mCRJkqR3xPJwSZIkSYdXgDiOWb5iOV/96ldZsXIFo0aN4tprv8pHPvJhhg4ZyhkfOIN0QQFr165lQ90Gnnn6GdasWUNlZSXbt23nln+/hbVr1zFlyhRuuOGfGDN2LFG+1yIQcgMYcZQLOSKo21DHfffdB8DFl1zMiBEjDjjP/sMcZeVlDB06lKefnseWLVtoamrifce9jzeWLeO73/sut956K1u2bmHwoMF86lOf4ms3fo1jjj2GkSNHUlFRwaJFi9i6bRvbtm1l1qxZDBo8qKfXwyJxSZIk6d0z2JAkSZJ02HT3a+zbt48f3fYj7rnnHkqLS/nrv/lrrrj8csoryomiiLLyMk6aNp1Ro0bRsL2BTZs2sXLlShYuXMiCBc+zdOnrlJWVct1Xv8rZH/oQ8X4hRpQfzYjiqCew2LB+A7+875fAWwQbvQMe3YdkxIgRNDc388wzz7Bz505WrlzJPb/4Bc899xu6OruYPn06X/nKV/jk//dJampqyGYT0uk0w4YNY8+ePSxevJjt27dRWVnJjBkzKCwuzBWKG2xIkiRJ75qrqCRJkiQdFiGE3A/3o4ilS5dy7y/vpa2tjYkTJ/Lxyz7OgJoaIiKiKCZkA5VVlVx66aXcdtttfOpTn6KmZiCr16xm8auv0rKvhba2NrY3NLB79y7iOM6FJuGg6yW9v4/echfVW9u7dy9xHFNcXEzrvlbmz59P7aqVDBk8hKuvvpo77riDSy+7lMrKSkIIpFIxIUDNwBquuOIKjp8yhZaWFu79xb28+uqrAD19G5IkSZLenfThPoAkSZKko1MgEMcxTY1N3HXXXaxYvoKCggIuv+Jypk2ftv8TIY4g5LoxJk6YyLe//W1mnzybL3/5y2zdthWAjo4O/uEfr+euu+7iL84/nzM+cAYjR45i2LChFBcXE8cxBCgsLqS0rJQoiknIkMlkyGazPWXgkJsg2bJlC1u2bOHxJx7n4YcfZs2aNWQzWRICJBnGjR3H17/+z5x33rmUlZUB9EyJ5AdRSLKByZMnc9UnP8nrS5eyZu1a7rnnHo6fcjzV/atzYYtDG5IkSdK7YrAhSZIk6bCIophMJsPChQt56KGH6Mp2ceH5F3LZpZdBBCEJhBByZdv5sKBbSWkJ48ePp6CggEBgwrETKCkpYe3atdSuWsk3v72S//iP/2Dc+HFMnDiJYcOGMnLkSIYOHcrQoUNZvWo1XV2dZDNZVqxYQQiBLVu2ULehjm3bt7N58yZW1a5i3fp1NLc0A1BeVsHwccNpamxk6/atlJWWcfzxUyivKM8dqvt8SW4iJAmBXM4RcfHFFzPvqae4+567efDBh/jwhz/Chz50NnGcOqhQXJIkSdLvYrAhSZIk6ZALBJIksHfPXn5x771s2ryJYUOHcc0111A9oBoChO4OioP6Lrq7vZ/9zbNsrt9MRXkFV3/qaqZPn86yZcu4/4EHWLF8OdsbtrN4yWIWL1lMQbqAdDpNOl1AKhWTzWZpa2sjhMCXvvgl4lSKTFcX7R0ddHV15tZY5Y0cMZLJkyZzzp+fw9SpU3nqqaf491v+ndpVtTz33HMcf8LxPc9NkqTngHGcK+uIgKrqSq75zDUsWLCAjZvq+PnPf8Ypp5xCZWUl0F1w7uiGJEmS9E4YbEiSJEk6tPJTDKlUxMraWh577FEAzjzzTKZNmw7kOzDyT891ceQLwKOIJEnYuWMX8+fPJ5tkmTLleD5w5gc44YSpnPr+9/NXf/1X1K6s5fnnn2fZG8tYsXwFq9esprm5mY6OdjKZzAHdFvv27csFEhEUFRVRXl7N2DFjmXL8FE44/gROff+pTJgwgYryClIFKQoLC7nvl/exonYFz/3mOS6//HLKysvyh92vrPygUOaEE07grLPO4o477+CpJ5/itdeWcPrppx8wiSJJkiTpdzPYkCRJknTIBHpLu7s6u3jsscfYvHkzFeX9OO/c8+jXr+LNP+gPEEIueIhSMak4ZsWKFdTW1gJw+mmnMXLkSKIYUnFMZWUlM2fNZOasmbS2ttKwvYE9e/ewc+dOtmzZws6dO1m1ahX3/uJekiThwgsvZMLEiQysqWHosKHU1NRQU1PD4EGDKSkredNnOOaYY5gxcwYralewYsUKVq5cyUkzTso92B1kROTLyyOi/Bqt8vIKPnruR7nv/vvYvGUzjz/+OKeeeiqpVMpwQ5IkSXoXDDYkSZIkHTLd65aymYSGhh0888zTJCFh2rQTmT59OiGQ+yF/OOBFRES5QCRAkk1YsngJ27ZuY/CgwUybPo3q6v7ks4+efo44HVNWXsaY0jGMjcZCBF2dGQoK0yx6ZRG//vWvCUngiiuvYPbJs0kXpN9c5N19lrj3/6sqq5hzyhzuv/8BNtdvZmPdxp5gI45jQtK7Vir0LM7KramaNm0a06dP5+lnnubZZ5+lfnM9o8aMyq/Ych2VJEmS9E7YUCdJkiTp0Mn/3D6Vjlm5ciUrlq8gIuLDH/4Iw4YPI59dHCgc+NqWfft46eWXaGltYcKxE5g2bTrd3dtJSHLBQhRBQu62n3Q6lXvLEHpuqThFOp0+MFBJ8uXlSTjgDCEEioqKmHXyLMaOHUtjYyPzF8yno62jp1ujeyIld+So5+wFBWmGDR3Ghz70ISIili5dxqrVq3OP+52ZJEmS9I7512dJkiRJh0ySJIRsLjBYsGA+u/fuZsSIEUydegIFBYXEcZxrDX87AbZt20pd3UYAxo0fx/BhwwCIYohTMVEcvXW4EPJ9HUA2kyXs9//vVEgCUSpi9OjRjB49ikw2w6raVTQ2NuY+XzZ5ixfRE3qkC9KcOPVEhg8fTlNzI/PnzyfTlc1Nm0ROa0iSJEnvhMGGJEmSpEMmjnPfguzbt4/nFzwPwNixY5k0aTKpVNw7IfE2kpCwdetW6uvrKSwoZOrUqZSWl76ja+cmNPLnSMW/39KnfF9GSXEJY0aPISJic3092xu250OSKL9+6i3Ong2k02kmT57MhGMnADB//nN0dXbmJk7MNSRJkqR3xGBDkiRJ0qETIEpF7GjYQV1dHXEUM2niJAYPGvTOXp4EVq1axbZtWyksKGTsmLFv/cT9QoID6jp6NkNFv1eQEMcxRFBaWsrMWTMpLi5m29atrFq1ikAgjntXTx1wA5JsFiIYUFPD+457H6k4xca6jWzbtu3dH0SSJEk6ihlsSJIkSTpkkiS3qmn1mtXs2LmT0tJSjptyHMUlJQBE8W8PHLoyXezYsYPWtlYqqyoZPmL4gU/Yv4+ju68jP6YRRdEfvu6p++UxDBw4kOLiYhp2NLB1y9ae946i6M3BRgSpfL9HaUkJkyZNorSklF27d7Fy5co/7EySJEnSUcZgQ5IkSdIhEwgkmYQ1a9bQ1tZKWVk548aNO2AVU/R2yUYEra2tbNmyBYCaATUMGDCg9/HkzZ0ZIQQC4cD7Q295eBKSt10d9TYfoGddVk1NDRUV/UhCwvaG7bS2tpLNZslmsyT5HpHuW5JNer5GqYihQ4dRVFxER0cHtatqc90c767uQ5IkSTpqGWxIkiRJOmTiOCaOY3bt2k1nZxcVFeUUFhYBvYEBUW5y4+Bbkk1o3NvIlvpcsFHdv5qBNQPzr82/Lop6AoQkSQgh6enWSJLcfUSQyWSA3H1xHPeGHN1hBIGIqHf6AnoKwKP8uqnBgwczYEB/AHbt2kVraxupdIpUnDpwSiSOiFNxzw1gwID+9O/fn/b2Dlpa9hFHMcnv6BeRJEmSlJM+3AeQJEmSdPTIZrMAdHR0kMl2UVVVRXV1FdAbGLydOBXT2dVJw44GAKqrqikvL8/1duz3T7aiVPQ2Ux+99xUUFAAR6XSaOIp710gd3L2xf6hxkH79KunXrx8AOxp2sG9fCwNDTe8USKA3DCEihNCzaquivIKKigqySYaWlmYy2UwuEJEkSZL0OxlsSJIkSTpkoiimra2VfftaAEilUiTZhK7OLro6u4jiXADQ3cWxvziK2bdvH62trQAUl5TQ2NhIKp3qCSZCCD0hRBRHB0xdhJCbxojiiMamRtLpFEkS097eTsu+lt4QoqeHIxePdPd0BCCVyk2cZDIZkmy2Z9pkz949tLW2sW9ffvoiJGQyWUJIiKO45/pxFJMuKCBJEoqLiwFo3ddKW1s7FRXlrqOSJEmS3gGDDUmSJEmHTBxHdHZ20dbWBsCyZcu44sorSKVSuRVSIRAdEC709mZks1kymQybN28mIuKJJx7n1FNPJZPNEEdxT5fGAdMaUfd1Y6IohhCIUzEtLfvYvHkz6VSav7n8byguKu7t+Ni/BBxyvRr0rpbqDmOSJGHTpk1ERCx8cSHnnncecRQRxTERkE2yPYXl3aEKUUQqFdPV1cWOHTsB2Ne6j86ODuhnsCFJkiS9EwYbkiRJkg6hiCTJkiQJERFtbW2sW7uuJ5Tontb4bYXeqThNRMTePXtpbGwkk8kQx/HvfN1bSZLA1i1b6cp0EYA4P+GRhNzEyO96v+6JkNa2VurqNpDJZt7V9SOi/ETHb1/DJUmSJKmXwYYkSZKkQyb3M/zcOqdAYOjgoZxyyikUFRflQ41ANpuhq6uLbDYhm82QzSYkSZZ0Ok1jYxMrli9nb9NeRo8azZxT5uS7OSIymS4yXZmeEvAkXxyeJAnZbEJnZweZrgypVIqdu3axevUqAM444wwGDRq0X+F4IJPJkMlm8q/Nks3mwpjcCqrc85KQsGTJazQ27WXY0GHMPnk2JSUlZLKZXAF5CGTyn6X7fbvPsnPnTjZurGPPnr3EqdyEh9MakiRJ0jtjsCFJkiTpkCouLqK8vAKAkSNHcs1nPsP06dMIIbcNKoTcSip6pjgAAnEcs2b1Gq765FXsfWMv06dP5//+4P8SRVEueMgmPausutdXdX+NoqinJDwJgVcXLeKKK66gK9PF3/3d33HyybNz4UN+6uOt1ln1vlcMBDo6Ovj4xz/OM88+w6RJk7j2q9cyceJEMpkMIUAqznVtJEmSu36c6vlMy5Yt49prr+WFF16gpKSEoqKiN6/RkiRJkvSWDDYkSZIkHToBiouLKS8vIyKio7ODkuJiKqsqeycWfsvP9it3VFJZWQlAV1cXZaVlpApSb7rG212bOPfb/gP6k0rlSscrKyuprOp34Ou6ezVCroS8t0W893xtrW09QUR1dTUDBgygol/FO/pj6NevH+3t7URRRL+KfpSUluSu8+bOdEmSJEkHiQ/3ASRJkiQdXVKpFIWFhURRREtzC42NjUCuHPwAAUjIrXXKBjJdGUIIPdMezU3NNDU350q5ITexkUl6ujqAXAgR7T8FknvfkAQCgWySm/QISSDJJvn1V7k1U4Te14Yktyar+1oAe/bspbmlGYCqqmr69as84PHusyfZhGxXlmym9/M1NzXT2toKAdLpNHEUk2RMNSRJkqR3wmBDkiRJ0iHT/YP/AQMGUFpSSmNTI23tbQCk0inyG6hykwv5YKF7KiKKIgb0H8DIkSMA2NvYyN69e/IdG7nHozii+1fP++Tf64BBkO7AIoTca6Iov66q+5ZbW3XgLw54k23btrFr1y4Axo4ZQ1lZKdF+JeDdHR9xHJMqSJFKp3qmPva1ttLY2ERpWSkDBw0im2R7wxhJkiRJv5XBhiRJkqRDpjuEmDRxEpVVVbS0tLBm9ZreaYZ82BAO3icVQRzHVFRUMGJ4LtjYuXMH27Zu631KFL2rjoqIKN+XEfVco+f2DjTu3cue3XsoSBdQWVWZu3b3yqq3yygiyGay1NXV0dLSTHFxMZMmTSSOc4XqkiRJkn43/+YsSZIk6dDJ/+B/4qSJ9OtXQUdHB0uXLaOtrY2Q5Au69w8GejZK5aYxCosKGTxkMEUFRezevYeGHTt6n/d79G5HUe7WPRmy32zGW9p/qqK+vp7Wtjaqq/szaOAgCgoLCNne87/dBEZ7ezuvLVlCR0cHVZVVTDh2Qm+PhyRJkqTfyWBDkiRJ0qGTL+Wuru7P+HHjSUJCbe1KttRvyYUM+62FetNLk0AIMGbMGIYNG0ZnRwdr1qwmm8mSJMmfvng7gjiKCUmgs6OT115/jSiCYUOHMmnyJOJUTDY58BAhCW8qJd+1axdvLH+Djs4Ojjn2GKqqq3Jv/xafWZIkSdKbGWxIkiRJOmSSfMdGUXEhZ511FgCrV6/m9aWvkyRJ7of7b7cSKkAqFTNm9BgGDxlMV7aLV199lfb2duJU/Lbbn/5YIiKIc+FLW2sbq2pX0dHZwZChQxgyeAgA6XSq9/n5z7L/5EZIAq+99hpr164F4ENnf4iysjJCd6eIJEmSpN/JYEOSJEnSIRPHvaueZp08i+qqanbv2c2CBQtoadl3YKhxcLCRv2/Y8GGMHTuWiJiVK1ZSv7mebCZL9G6/u4mid1XYHeidvli+Yjnr1q2juKiYKVOOp7KqsveMBxx5v94NoK29jVdffZXN9Zup6V/D9JOm519zcLu5JEmSpLdjsCFJkiTp0Mr/oH/ypMmcdtppADzx+BNsWL8+93ggt1bqrVZLBehX0Y8PnvVBqqurqNtYx/MvPN877RDnbkmSkM1mc9eKIUrlAoYkm7u/s6OT7hd1dHSQ6cz0Bgtx7y2E0PMe3U/IdGV4+eVX2LBhA6WlpcyZM4ei4qLca5Oep/WEGhFRz/k2b67nV7/6FQCzZs1i0qRJvZ/xpPwSAAAgAElEQVRZkiRJ0juSPtwHkCRJknR0qqquYu7cM3j00UfZULeBRa8uYtLkyRQWFfRMUuxf5L1/B8WxE45lyJAhLF+xnEWvLOL888+nun91z+NxHJPJZmlqamLvnr00tzTT0tLCtm3b2btnD68vfZ3m5mYiIu6/737WrV1HVXUVQwYPoby8nPLycqqqq+hX0a/nDFEMJLB9+3YWvfIKLa0tzJg8g3Hjxh5QeL7/FMj+589mEha98gqralcRRynOPOssBgwYkBvWiA6c7JAkSZL09gw2JEmSJB06gd7JiAjmzp3L+PHjWbFyBffddz9nnfVBRo4c0RtiHFS83e2YY45l8uTJLF+xnIUvLaR+cz3V/avJZrLs2b2H9evXs3TZUtasWcOaNWtYvnw5DdsbaG1rhUBuaqOrk4iI/7z1PyksLCSbzVJSUkJNTQ3jxo1jypQpHDP+GKZOncr48eOprKyECDas35CbEgGOO+44Jk2ctN8RQ89n7P4MgUA2k6WxqZEHH3yQxuZGJhwzgTPmziXJJkRERLF7qCRJkqR3ymBDkiRJ0qGX/zn+hAnHcu6557Ji5QoWLFjASwsXMnLUiN4AJOItV1INGTqYk0+ezSOPPMKG9Rt45NFH2LV7F7Ura3n6madZuWIl69avo6m56YCLFhUW5tZRJVmSkBAT09XVRSaTIYRAc0sLDTsaWL5iOQ//6mHKy8oZPXo0U46bwhlnnMHESZN46skn2bZtG8WFxbk1VCVF5PKMg0KN7pVUIRdcvPTSSzw17ykAPvyRD3PMMceQSqchhAMmPiRJkiT9dlHIvou2PEmSJEn6Y4ggSQJxKuLFF17kyiuuZOWqlZw0/SQeeOABhg0bdsAapzeJ4aUXX+LSSy9ly9YtjBgxgqKiInbu3MmOHTuJooiysjIGDRrIiBEjGTt2DKNGjWbEiOHU1NTw8ksvc+uttxLFEddddz3Dhw9jR8MO6uvr2VC3gQ3rN1C/pZ4dO3bS3t5OFEX0719NzYAa9u7dy9bt23jf5Mn88pe/ZOKkiYTkzZMaPccPsHPHTi78ywv5zXO/YdLEyfzottuYc+ocsl1Z4jg+YM2WJEmSpN/OiQ1JkiRJh0WUn8aYNm0al152Kd/+1rdZ9Ooi/vM//pPrr7+ewuLCty4QJ1cCvnXbVjLZLB2dHaxbt47CwkL69evHzBkzOHn2ycyZM4djjzmW8cfk1kiFEIhTMYRcuXjqx2lSccwpp8zm5JNP7gkiujq7aG5uZt3adaxYuYKFCxeyaNEi1q1bx4raFb1nSBJWr17NuHHjSKdy31r1hDH75RRJknDbj25j/vz5lJaUcvHFFzH1xKkApNKpXCgiSZIk6R0z2JAkSZJ06HUXZgcoKizivHPP49lnn+WZZ57h3nvv5eyzz+bUU0/tXUeVn4Zob22noaGB/7r9v/jRbT9iy5YtxFFMHKcoKizi85/7PB/72McYPnw45f3KD7hklEQHrHsKISEJ5IKF/YKIgsIC+g/oT/8B/ZkxawYXX3wJ27dt44e3/ZDvf//7tLS0ABFr1qzh6qs/zVVXfYJLLrmE0aNGU1JaQhzFvUXiSeD5Bc/z05/+FICZM2ZywQUXUFZelj8UTmtIkiRJ75LBhiRJkqTDY7+QYdKkSVxyySUsXbqUtevWcvsdtzNu/DiGDRtGkk2IUzF79+zl2Wef5c477uTJp56kqbmJEcNHMHToUJYuXUp7Rwdl5eWMGz+OgnQBIQlEUUSSJLkai5CQSqUODBLy3RghgSTJrYUK+W29cRxDBEXFhQwdNoxMJkNHewcV5RUcd9xx7Ny1k/Xr1/O9732PJUuW8PGPf5xzPnQOFRUVRHGuV2NzfT13/uRO1qxZQ3V1fy655BKOPXbCW/4ZSJIkSXpn4sN9AEmSJEkqKi7ivPPOY+7pc+no7ODRRx7lrrvuorm5hTgVs23rdm6++Ra++MUvct/999HS0sLc0+dy8/+5mW/+6zeZNm0a2WyW2267jaVLl0LcOwmRCyoCEbmw4WDdj3eHDHEUExH1BBwAzz33G+6++246M52cPHs2//b9f+OWW25h7ty5NLc08/ivH+eGG27g377/b+zcuZMojujs6OTnP/sZDz74EO0d7Zx15pmcd/55FBYW5C+MwYYkSZL0e0jd8E833HC4DyFJkiTp6BbFERUVFYwbN47HHn2M+i311K6spWbAAOI45sYbb+S//uvH7Nq1i0GDBnHllVfyr//6r0w9cSqjR49mz969PPvMM+zcuYNsNsvpp51OUVERRBDn/z1XREQURYQksGr1ah566GGiKOKSSy9h5IiRueem8s+NIrLZLHEqpmF7A//yL//C/PnzGVQziL//+y9w5plnMm7cOM4++2wK04W8sfwNtm7ZyvPPv8CmTRsZN24cTz/9NN/4xjfYsrWesWPGcvMtNzNh4gTiKEVkoCFJkiT93gw2JEmSJB1+Ua6PYvjw4QwbNpwlS5awoW4Dr7++lF89/CtefPFFOjs7OWX2KfyvL/4v/uf//J8MGjyIgoICUnGKAf37s3bdWtatW0d9fT2jR4/muOOOy01t5OfUoygmhISQBNatXcuDDz1IRG+w0b16quc8AbKZDLfffjt33nEnmUyGCy64gKuuuooBNQNIxSkq+lVw+mmnM3r0aLZt28aWLfUsXrKY5xc8z+OPP86GjRsYP3Y83/zWNznjjDPy4cph+1OWJEmS3hPs2JAkSZJ0ZIggSRI+dsEFtLW18rUbvsaGjRsASKfSnHvuuXz+c59nzp/NIZVOAbkwJCJi4qSJfPazn6Wuro5lbyzjO9/+DsOGDuPU959KuqD7255ACIFAII5z66YOvn63JJvQ1dnJE088wQ9+8AMadjYw46QZXH311QwbNqz77XLXj2MuvPBCRo4Yybe+9S0e+tVDLF22FIDRo0Zz/T9cz7nnnpt7fsgVlb/p2pIkSZLeMTs2JEmSJB1++b6JiIh0QZpzP3ou1157LaNHjgagpLiEWTNnMfXEqcRRDCEXPnR3ZiRJwgc+8AEuu/QyykvLWfzaYr77ve+y6JVFJJkkd4mQm9qIoihXIv4WfRtJNpAkCdlslsVLFvO9732PlbUrGTRwEJ/4xFVMn35SrpA8m+Sel2QhBAoKCjluynHMnTuXqsoqAAYPHMz11/8D559/PkXFRbnrmWdIkiRJfzBXUUmSJEk6IkRR1DPNUFJSwtixYykrL6N2ZS279+ymfks9IcDYsWMoKyvrXR2VDwtCgDFjx9Kwo4HXX1/Khg0bCCEwefIkBtQMICSBOB1DiKir28AD9z9ACKFnFVUURz1TFUuWLOH73/8/zHt6HgXpAq76xFVcffWnqOhXTpIE4jgijmPiVEySJGzfto2f/vSn3H777WzetJlRI0fxuc9/nv/xPz5Odf/q3s+Y/yVJkiTp92ewIUmSJOmIsf8P/UtKS5gy5XiKS0p4aeFCNmysY9nSpexo2MG48eMYOGhg7omhtxi8oqKCiZMmsmbNampX1bKqdhW7du1izilzKCktJc4lJ9RtqOP+B+4nm2S57NLLGDFiBCFACAm1K2v5+te/zsO/epjWtlYuuOACrrvueoYNHUqSBEJIiONUrisjQO2qWm6++WZuu+021qxdS1VVFV/80pe48sor6D+g/+H5g5QkSZLewww2JEmSJB158qFBUVEhJ554ImVlpby2eAnbt2/n9ddfZ/78+VRXVTN69GgKCwtJQpLrzYgiqquqmThxIqtqV7F+/XpeX7qUuro6Zs8+mcrqSqIooq6ujvt+eR9EcMkllzBy9Eiy2Sy1tbV86Ytf4sGHHwTgg2d9kG9969uMGjWSJCSk0yniVEwE7Nm9h/sfuJ8vf/nLPPzwr2hra2XE8OF84Qtf4DOfuYaK8ore1VP5VVuSJEmS/nAGG5IkSZKOOFF+siKKI9LpFDNnzmTK8VPoaO9gY91G1m9Yz+OPP8HGjRspKyujf3V/0uk0qVSKVDrFkCFDGDJkKJs2bWLjxjrWrVvHli1bOPaYCQysqaG+vp777ruPKIq4+KKLGTFyBK+88gpf//rXeezRxygoKOAjH/ko1113HSeeOJUoyq2eiuKIxr2NLFy4kJu++11uuukm1q7LTWmc/cGz+cq113LFFZcTRRFRnJsiMdSQJEmS/rgMNiRJkiQduZJcuBHFEccccwwnzTiJ6qpq6jfXU79lM4sXL2bBggU0NDRQWFhITU0NRcVFxKmY4cOGMWbMGOrq6tiwoY5Vq2ppaGhg7NhxtLW28cv77iNJEj760Y+yaeNmrr32WuY/N58kBObOPZ0vf/lLTJs2nYLCAqI4ormpmVdeeYX/+I//5KabbuLpp5+hvb2dSRMn8YlPfIIvfP4LzJo1i1Q6RUhC7txEhhqSJEnSH1kUssG/ZkuSJEk64gRCrsybkJuAyJeLd3VmeP75BfzoRz/iscceY9euXURRzKhRI3n/+9/Pn//5nzNp0iTGjR1HYWEhL7zwAt/4xjeYN28eSUiYcdIMZs6cyc/v/jnZbJaLLrqIF198kWXLlhHHMRdeeCFf+cq1TJkyhebmZtatW0dt7Uoe//XjzF8wn3Xr1wFQ1a+Kc/78HD75yU9y0kknUVVVRTabEHdPavR+EEmSJEl/RAYbkiRJko54gdBbLB7lbtu3bec3v/kNP/vZz1iwYAHbG7YDMGTwECZMmMj7Jk9m3PhxTJo4iW3bt3HbD29j0auLACgvL6etrZ1MpouioiK6urooLChkzpw5fOKqT1AzoIZlbyxjVe0qFi9ZQl3dBhq2N5CQMHjQYE477TQu+IsLmPNncxg+fATpdIr9es+7D33gV0mSJEl/FAYbkiRJkvqWOP81QKYrQ1NTEwtfWshdP7mLRx59hOamZlLpFEkSKCkppl9FP6r7V7Nr1y52NOwgSZKet0pIiIgIBIoLixkxciSFhQXs2LGTjvZ2Ojo7yGayJElCv379OOecc/ibyy9n5swZVParJJ1O906UxAdNafidliRJkvQnYbAhSZIkqe/JT20AhGwgSkVkM1lWrqzl/vvv49VXX2XduvXs2rmTpuYmWve1ApDJZggE4ijuKfYOIUAEScgFHkUFRRQUFFBVVcWgwYMYPWo0M2bO4C/+4i8YP348RcVFJNmQu3zUW3TeI/SezXBDkiRJ+uMz2JAkSZLUd3UHHOHAr3t276Guro6NGzdSW1vLpk2baNzbSFNTE01NTbTs20dnZycABek0JaUlVFRU0L+6P1XVVYwaNYqJEyYyctRIRowYwYABNUT7hykJ9KQWgQM7NSRJkiT9SRlsSJIkSerTQgi5onEiCIE4ldtVlSRJvnwcCIG29jZ27NjBvpZ9tLW309XVSQiBOI4pLy+noryC/gP6k06nKS4qJk7HPddIsoE4v2oqhN5Ao5vBhiRJknToGGxIkiRJ6tPCwd/SdK+Hejvx2z9EQk9IEh20Xir0pCT5yxhmSJIkSYeFwYYkSZKko1I2yRKRK/3uLhA/oACc3pVTURT1rroCQhIMNiRJkqTD5Lf9WyVJkiRJes/JJgnE0Li3kZtvuZnOzs6e4vBuISHfnUEu7OjOMPJfDTUkSZKkw8dgQ5IkSdJRJYog05nhh7f9kDvvvJOlS5cRx3HPtEZIArlUA952o5W5hiRJknTYGGxIkiRJeu/bL6SIUzFr1q7lscceY/369Tz11JN0dHTkHgwH3faXvy+E8ObHJEmSJB0yBhuSJEmS3vNCCHTnEV0dXcyf/xxvvPEGjY2NPP7446xdu67neUQHrZoKudVUIQm5aQ5DDUmSJOmwMtiQJEmSdFSIyK2h2rx5M48++ijNzc0kIWHJ4iXMmzePTGeGKMoVifcI+7826rlJkiRJOnwMNiRJkiQdBXIF4CEEnn7mGV544QU6OjqIiNi9dzc/+9n/Y9XqVbkE4+DvkpzQkCRJko4oBhuSJEmS3vOifMfG5k2bufvuu9m6bev+j7Lg+QXcf//9tLe1H64jSpIkSXqHDDYkSZIkvfdF0Nneya8ff5znn18A5AYx9l89dc8997B69Zpcj0b3E5zWkCRJko44BhuSJEmS3vsCbNq8ibvvvpvmlmYg35tBBAQiIlauXMlDDz1Ie7tTG5IkSdKRzGBDkiRJ0nteNptl3rynWbjwxfw9uSmNJCQABALtHe384he/YMOGusN0SkmSJEnvhMGGJEmSpPe8bVu3cffPf05LSwsRMflFVERRRMhPbKSiFMuWLeOee+453MeVJEmS9FukD/cBJEmSJOlPLU7FXHbZZfzlRReRzWZYs2YNt99+O3v27mHOKXO47NLLSKXTdHV1MnTI0MN9XEmSJEm/RRSywTo8SZIkSe9ZgQABkiQhlU4B8OKLL3LRRRexuX4zV115FTffcjMlpSWQQDbJkopTh/nUkiRJkt6OExuSJEmS3tMiIoghlcqHFSF3XxzFxMQEAkmSdG+nyj3Pf/4lSZIkHbHs2JAkSZL03hd4U1iRSqdISIiiiHQ692++kiQ59GeTJEmS9K4YbEiSJEk6euSnMuJU7luhiIgkSYijOHd/nPsqSZIk6chlsCFJkiTp6LDfxEZERHfbYLB2UJIkSepTDDYkSZIkHXVCCBACgZDr4HBKQ5IkSeozDDYkSZIkHR0iegKMQOid1IgipzYkSZKkPsRgQ5IkSdLRIQBJ7+/DwW3ikiRJkvoEgw1JkiRJR50DJjYkSZIk9SkGG5IkSZKOLgflGVH01vdLkiRJOjIZbEiSJEnS/gw4JEmSpCOawYYkSZIkGWZIkiRJfYbBhiRJkqSjnkXikiRJUt9hsCFJkiTpqBaRL9kw25AkSZL6BIMNSZIkSZIkSZLUZxhsSJIkSZIkSZKkPsNgQ5IkSZIkSZIk9RkGG5IkSZIkSZIkqc8w2JAkSZIkSZIkSX2GwYYkSZIkSZIkSeozDDYkSZIkSZIkSVKfYbAhSZIkSZIkSZL6DIMNSZIkSZIkSZLUZxhsSJIkSTq6RRDl/pO75e/r+b0kSZKkI4rBhiRJkqSjWhRFEEWGGpIkSVIfYbAhSZIkSZIkSZL6DIMNSZIkSZIkSZLUZxhsSJIkSZIkSZKkPsNgQ5IkSZIkSZIk9RkGG5IkSZIkSZIkqc8w2JAkSZIkSZIkSX2GwYYkSZIkSZIkSeozDDYkSZIkSZIkSVKfYbAhSZIkSZIkSZL6DIMNSZIkSZIkSZLUZxhsSJIkSTqqhRAgBAjdd9D7e0mSJElHnPThPoAkSZIkHVYBAuHAMMNgQ5IkSTpiObEhSZIkSZIkSZL6DIMNSZIkSZIkSZLUZxhsSJIkSZIkSZKkPsNgQ5IkSdJ7X3S4DyBJkiTpj8VgQ5IkSZIkSZIk9RkGG5IkSZIkSZIkqc8w2JAkSZIkSZIkSX2GwYYkSZIkSZIkSeozDDYkSZIkSZIkSVKfYbAhSZIkSZIkSZL6DIMNSZIkSZIkSZLUZxhsSJIkSZIkSZKkPsNgQ5IkSZIkSZIk9RkGG5IkSZIkSZIkqc8w2JAkSZIkSZIkSX2GwYYkSZKk975wuA8gSZKk/5+9O2uy7LzOO/9f7z5DzjVXoQqFgQAJgpMoUhysiaJkiZapkGXLcmtod0Q7ou86+jNYN+4P4I6+aN+4L9xDREe4w+oOtTyb8iCLIkXRIgkSJAACRRRqHnM6w35XX+ydQwFFECRBoirz/2McZObJM+yTyYs6+8m1HuntYrAhSZIkSZIkSZIeGgYbkiRJkiRJkiTpoWGwIUmSJEmSJEmSHhoGG5IkSZIkSZIk6aFhsCFJkiRJkiRJkh4aBhuSJEmSJEmSJOmhYbAhSZIkSZIkSZIeGgYbkiRJkiRJkiTpoWGwIUmSJEmSJEmSHhoGG5IkSZIkSZIk6aFhsCFJkiRJ95HkO30IkiRJku7DYEOSJEmSvotMww1JkiTpQWOwIUmSJEnfhbGGJEmS9OAx2JAkSZKk+zHVkCRJkh5IBhuSJEmSJEmSJOmhYbAhSZIkSZIkSZIeGgYbkiRJkgQQ+y6SJEmSHlgGG5IkSZIOvrcSVhhoSJIkSQ8Fgw1JkiRJArImVCAhbQ6XJEmSHliDd/oAJEmSJOmdkPXe8GI+b4mAICjFvwGTJEmSHlQGG5IkSZIOvAsXLvAH/+wP2NzcpDQNF155hbvrdwH4yle/wj/8h/8Tw+GAWpNHHjnD7/3u75Hp1IYkSZL0IDLYkCRJknTgjcdjPve5z/FH//yPyExqW5lOpwTBl770Jb7+9a9TSiEI/sH/+A+6OwW4kUqSJEl68DhfLUmSJOnAO3XqFL/1d36LpmnY2txic3uTeW2JCObzObfv3Ob27dt8+MMf5rOf/ezu/ewTlyRJkh48BhuSJEmSDrwowc/+7M/y6U//IjVr16MRO7FFEASLi0v87d/625w9e3bvfmG0IUmSJD1oDDYkSZIkHQqnTp3iv/m7f5fTp04DkJlEFCBJkk984uN85jOfoWkaoIs7JEmSJD14DDYkSZIkHQqj8Yif/pmf5tO/+Is0paFEIQJqVlZXVvmt3/otnnjiCUrj2yRJkiTpQea/2CVJkiQdfNldzpw5w+/+7u9w9tw5CJi3cwA+8fFP8Jt/6zcZjUcWhkuSJEkPOIMNSZIkSYdDQGkKH//Yx/nUp36+vyo4feo0v/07v8Mjjzxyz23dRCVJkiQ9mAw2JEmSJB18fUiRNTl1+jS/+qt/ndOnu66NT3ziE3zmM78CBbLSTWwYakiSJEkPLIMNSZIkSQffvvVSw9GAT/38z/ORj3yUtbU1PvvZz/LY+ccAiHATlSRJkvSgG7zTByBJkiRJP3L9FEaUoLbJ+cfO8zu//dtsbm7wqU99ijIo1LZSmq5QfKeTQ5IkSdKDx2BDkiRJ0oGXAG0STVCarkDjb/zG32DtyBrPPvssAKWUfTeWJEmS9KCKbNN/tkuSJEk60BLIrF140fdn1Hnd/TwIokT3tdMakiRJ0gPNjg1JkiRJB143oxFk5m5oUUrpr+tuUGuSNS0OlyRJkh5wrqKSJEmSdDj00xhJEnujGjSl9NdXau3++itMNyRJkqQHlhMbkiRJkg6FIPamMXLfdfs+3y0OlyRJkvTAsmNDkiRJkiRJkiQ9NJzYkCRJkiRJkiRJDw2DDUmSJEmSJEmS9NAw2JAkSZIkSZIkSQ+NwTt9AJIkSZL0ztipGwwy3vituO9tu9tLkiRJeucYbEiSJEk6hCpdWBEQkK8PK4J94Ub2t9/5xv6PkiRJkn7cDDYkSZIkHTJ7kxrdl0mJ5A1TGbFz1f7r73N/SZIkST9WBhuSJEmSDrx+NqP/LNmpG0x2vrFzfSX2BxlR9t1of5CRGGxIkiRJ7wyDDUmSJEkHWgVq9m9+osK8cnd7ysa8MG37GCNaBgNYGA8Yj4YUkqjJoBQGDWSblCb6/KNCKXsPbsghSZIk/VgZbEiSJEk60IIuh8iErUnwZ89d5Isv3eTbN5OtXIQIghmjcbCwMGBpYcTyaIETayscW1nk5JEBqwvBiVVYHcBiUxjTz3yU/hmS7gl2n/H+dkrK4/XbrSRJkiS9ZZFt+k9qSZIkSQfe3Qn8m89/hX/6p6/wjfU1rjfn2C5rJEHDHGJKlJYgGWbDOCojppxaHXFqbZHzJ5b54KOLPHWm4dQqnFyA5QEMX7+hCvaFHP2XEbuDHUkXbDjjIUmSJP1gDDYkSZIkHWgJtBX+/IVL/KM/+E/8xdajvBaPcHdwknmOSKJbUdX3bOxUbgRJkJS+d2OQU06NNjm9MuLJk0f46KML/MQj8OwjsLQASwVGu884ZwZEBqWbGWF/lGGwIUmSJP3gXEUlSZIk6WALmCV86YUrvLSxzOVyirvNMaYxpqXp10M1b7jPGx8muTsbcuH6lOdvbfCFl9Y5u1h55swSH3pmhfc/Dk8dh5MEI4bQJtBCoS8k7x7UNVSSJEnSD8dgQ5IkSdKBlsDmJHnl6jbX6hHWB0eZlSWSQsZbLf4OWoIcrTGj0mbl5rzwnfXKX9ze5g+/dZX3nRvxyafX+OX3B+89AUebIOsAKpTSTX70TeVv8TklSZIk3Y/BhiRJkqQDLRKGJVgcLzAo20Q0sLMeKt/aTqjsL7RdQJGRMAimNWhjgfV2mRsX7vD8lcv8x28M+NSzJ/mF98Ezx2G1wAL9SqqdBzLXkCRJkn5gBhuSJEmSDrylITx99hhHvv4iS7nNLJeYRUMQJG++Gyr6tu9CEAklA8gu3IiGeYF5gawrXJo13Lg856WbV/jiS4v8ygdW+djT8PgROAqMCpSsRBazDUmSJOkHZLAhSZIk6UALYNDAh99zjvd+7SKXrt5iFguslzUqdFMb94xRRN+7sa/ke7dMvP8+hZJQE2oBSlKbhmmssJWwMa/ceHXCty7d4mMvrPGZjxQ+/gScGsJiFEbsdG3kG59z/9WSJEmS3iCyTf/JLEmSJOlAy6xslMIXXq78kz9+gS9crFzmJJPBGrM2IQrzWTJrK1kaaAolYjd8mEMXPEQ3rQEwbrv1Utl/LwvUgEqXlZSEITOW2znnF4Pf+NgCv/5xeHqxm96IFqDtHzOosRObWDAuSZIkvRmDDUmSJEkHWgYkyTyCKfDSdfhP39zguWtwJ5eZJExmMJnC9qRlMmu5NZmxsTVjOoft2rBJw4QGolBLQ0Ywql0QUdmb9+gzir2wg8qwBotty6nBFj/9zCq//kn4K2fhdMCo7Y+xVOaRNFkIwmBDkiRJehMGG5IkSZIOtJqVeUAQNBGUgM2EmxU2AybAHKgVtrdhawrXt+Hydbh8A751CV68fpcrG3M2p4WtbJjFkIgRswjaAiQUoNlZXRX99EbMaWgoNWjqnIXc5NkzY/67Xxrz6XfBuYBxQgu0MWOYAyJt35AkSZLejMGGJEmSpAOs689oE2p2LRnDgOjXRs37ngwCSuy1bNT+MgdeW++mPF6+BUSyBtMAACAASURBVF97dcZzr25w4Vbl1nTMemnYKIVk1PVw9MHGzvRGRu0/73ZURZ0xqJs8cbzhv/6ZVf7Wh+GxgEWgyTlkA9aKS5IkSW/KYEOSJEnSAdYXg0e5p/siMvvScLpRiy512EsmEqABBhAwBdaBG9vwnZvwlZfhKy9N+NLFG1yYVNbbBaYxJpsF2hiQuS+eiC7xiEySSuScUba8awV+7SMr/MZH4ZllOAIM0n4NSZIk6Xsx2JAkSZJ0gPVvdyJ2JzOSLjzI2n+3XxsVOxe6rCOSbmyD/ovSXdHmgLstXF2Hz1+Af/XcLf7i2ze5tFXYGh5hq1mhpQ83si8dp0K2JJUESjtgVGecWU7+5icW+c2fgg8swSowqN30yP7DlyRJkrTHYEOSJEnSgZfRBRk0cHMbvnNtwsUbG2zOKkTQlODokSMsLDasLMHiGFYKrBYYAYNm34PNZ8zaSh2N2Qy4tA1/+rWWf/nVy3z+1Sk3c5WNWGI7RhQqkUFkw870SAIthZLJKGecHG3xax8/yu/8PHyggdUWFsrOgf+Yf1CSJEnSQ8BgQ5IkSdKBln3pxayF71xd5w//9Fv8ybducmFjxCYj5lkZDgqDwYDBYMiR1RXOHF/m8ZPHOXe04ZmzcHoVTizCUnRBRwNErVQKbcBWwPM34N9+tfLv/vLbPHcTrscxZmWZOUOSvRGMmpWIppsOyWRQJ5xdmvKrH1nj7/0MPDGEY8Co36IlSZIk6V4GG5IkSZIOtOxXTL12a8L/8Yf/ic+9MOVCnOfVPMk6S9AUolRqW5m3c4ZNYSFaRtGykFOePrnA08dHfPiJI3zoCTh/HI4NYAUY1IR2yrQdM21gMoQ/exH+8MtX+FffuM2VeoaNWGESpV971a2zimyIfiojgAXmHOMuv/dzx/ivPglPNXB05+a+Y5MkSZLuYbAhSZIk6UDb6dH4o8+/yj/6fz/Pi+Uxrowe5UZznHmOIZLMOQBRggioWSGDyGQhW5Zywmrd5CfOr/Dhp9b40JPw/tPw2CIsVKgt1IRsoG3gtTvwb798lf/zz9b5xsYy15s1ZmXY921AyaZ/vu7YSsKwTjk93uTvffoov/0ROA8ssa9M3HdukiRJEgDN7//93//9d/ogJEmSJOlHaXsO//wLL/PFS8mVwXnWy1FmsUASZESfGQRZYjd8IBuSAcSQNhaYxojv3LzL1y+u87WLwYvXRkwaGC5DjGHYwKB0IcWxBXj32WVOrqxw985Nbt5dZ05Qo3u+JhuCndYN+t6Nhs22cPPmhJMnhpw92q2jGr0zPzJJkiTpgTV4pw9AkiRJkn6UMmCWcH1zylazxt1cYlrHDEshouu8SJIKdPPsFYCg0mShAG3AZowp41PcBa7eLnz95oTPv7DNzz2zyq99svCB43CE7k3WGDjetPz6h4asLT/O5I++yl/cnnOzXWPSrBDZkJQu3EioJBC0jPjGtSn/+7/b4l2/uchwBYYJo3LflyZJkiQdSk5sSJIkSTrQMqAFvv6ddb5xaYsbzXG2yzK1BAMgsqXrF2+AAjRQC9HPVFSCNqAGVAoRBTJos+HWFL7x2h2eu1gZHRmxdgQWCjQJg1IYBJw9ETz16GkuvPhtptMp2YyZ5ZA2CxFB7MYqlVFbqQxYbwdsbReeOg8nRl1Qsts/LkmSJB1yBhuSJEmSDra+PHx9Ejz3wqvcnAfzMqYtYzK71VA1oI1C9hHHbooQ7Cu56FdWZbc6qhK0FKYx5Mo2fOvCBhvbC5w6BeMBjAKihWGBU2tw9tRZbt64wZ31LabtiJaGtjRkBEQlmDMkaWPIJAu3bm9w4siIx87AcnSTILEbbuwdkyRJknTYGGxIkiRJOtCCpCnBwuIik3nl1avX2Ji2tLFAxogkSdo+Kthrvdht3sjoJisiSGp/ob9f0kYwKSOub8x5+eJdrt9a4uRROLHShRpN35Nx+gicOHaSS5eucnujZcKAaRnR9sFGoQWyCzwIprVhc6vw5BNwdgGGAU1fzBG7x9q9QkmSJOkwMdiQJEmSdPBFZW2hcO7sMZrhmPlsDm1lkJVhnTGOlqads1CSQZ2xEBXaGZmVjGFXMB5A2QkRutVROyukIrdpomFaB7z82m2u3FrkyMng+AosFWjowo2jy3DyyFFevnCRW1sztmLMrOmqDwtJDUgaIJhR2NickW3DB5+GZWBIV04euxMlOymH4YYkSZIOj8g283vfTJIkSZIePtm3c0fOIboOjSsJL96Ci+twp4WtFjYmcHcTbt6B165ucOHqHa7cnXJ31jAZrDFrFpnGkCwJWfteDMhMIpOgEgRBYVCnHGmm/JWnj/Hf/jx87BE4DixkF4fcnsK/+Mpd/tfPvcRXto5xPU7QxggC5tF2B50NhYZxnfLkkcJ//+sD/toTcI6ub6OpsDexAQYbkiRJOkwG7/QBSJIkSdKPVAnIAdQZ1DnHY8DaiRHvPwFTurBh3t+0Aje3l7m4vsw3LsIXv7HOVy7c5rXNdbaaFSY5ZE6hRkNSKPTNGzkgsws7Zs2QGxn8629cJebHiF8a8NEzcCpglHB0BJ/+wCovvLbK5S9dYRYjNmKNWRlDJEHLgEoTEGXAa3dm/OGfD3jfOTg67N7ENX1g05WdS5IkSYeLq6gkSZIkHVx9D3hEVxLeUqAZUCKI2gUNy8BKhSMV1iqcGcKjy/DBM/DT7x3xgXNrHGumlO1bTGZT5jVoY0jEgEIwADL2pidKNBBQs/DarS1uzRY5dhrOLcI4ujxiaQhHjxzj1Vcvce3ONtssMCnLNNlQCDKDiIZoCpXC7fUZjx5veOYULEK/rMopDUmSJB1OBhuSJEmSDqyIJCIgW7ImNWFQgiZgEJVBVApJqXul4WQwzGCUcKSB82vwoSeXePqRY4zZIjfvMF3fZJ5jKA1tBLEvY+gijkKUhkkdcOXWXabtIu89D4v94Mi4wMoijIdLvPzqZW5NG7bKCk0/CVLpyskp3UzI9vY2i2XEs0/DsQYGsRNuSJIkSYePwYYkSZKkgymAPtSgVkgIGiKC2axle3vOZAaTWdCWAVkKDApZAhJKnRNZGcWcI6OGp47B+9+1wpnlJaY3b3NrI9nOwqwZUMh9KUP0EUmhzYYZhQuXrrM8WuGJ83B00HVkLDZw5sQCt+7MePHyXdZZJlmgpa/ZILvjj6AAk411Hj2zwOPHuyLyES6ikiRJ0uFkx4YkSZKkg6kPGjJLF2gUyJp89aUr/Mk3rvDS7eD2rDBeWGJlvMDpo8c4dWzME2fh3CqcWBgwbGFUtyC3aQZjHhkGn33fmHevPsU//vcX+VcXrvLK7BjZLEB0oUklu8GPhCYK82y4yyL//C+nPHluxJEnuh7zAXBkAL/8k0/y5Zf+gjvXr3GtWWJehrRRSJKW7F5IDLk+mfHHX4WPvgtWGljNN3vxkiRJ0sHlxIYkSZKkg6fv1gAggyiwOYf/8F9e4Z987nn+xQstf3p9la/dGvL8rYavXW35wivr/NnLEz7/bfjya3MuT4bUJRgvDSEGXadFJouD4MQRePbxVdrtKZcvvca0BhkDat+vsXMQkd30RgvM5kFOBzz1OBwbQsl+8mIIW9uFb710kXVWmZUxc4IadGXiQb8lK5lOKs882fDoCixHF464jkqSJEmHjcGGJEmSpINnJ9hIyKwQwdcv3OEf/+EX+M9Xl3h58DSvDZ/g7uAot1nlVqxwI1e40i7wymbD87eCL75wi+cuTNnOBU6chFEDg+gqu5uAUyN49vwybM+4dGOD9RnMypiM0vV60K2K6tZKFaZtYevuJsdWRrzrLIwChgnjAQwHi7z00itc3Bqy3SwxjQEZAVFJWoIgE2azKaeOjXjPeVgDxriOSpIkSYePwYYkSZKkg6UPNbJ2oUZEYVrhj77wAv/yuZtcGT/G3eYYs7JAJYgIIkq3HyoaahQmFbZqw6XbM776yjov31hmtAonV2EYEG0XKKyO4MmTa0w2K1dvrbMRQ7bKmLYWmgyIrm0jCTKCdj7n5rUZzzw94uwijPtjHQ2D7cldvvbyde6wyNZgpZvEiAq0FPqJEZIhQz74BJwewzJdibgkSZJ0mPjHPZIkSZIOjn0rqAIoUYgCW9Pk4s1NtsfH2WzWmJYxdd+ddoKHnQcIBrSM2C4rvLq9wL/4+k3+53854Q++Bi9NYbOBadPlFuePwd/4xCl+9l0LnGyvsdJuMsqWWpNKSwZ9cFKYMuSVWxP+8zfhGjDtn3FtET707sd57Ehhsb3JKDcotERfeL5zjHMKr11PXroGd4F513MuSZIkHSoGG5IkSZIOrgKTaUslqGVI24yZx4g5g33Bxr2CoBAUGtocMC2LXGeVz1+p/C+fW+f//jJcaGGTLliAyjNn4a/95CM8u7zJiflNFuo2UKlUICkRlAjaGLLBmP/8PHzrdvcYNfuA5MwqP/mu0xwbbDHug42up6MPNgIqhcu3NnjhchdszOhWXUmSJEmHicGGJEmSpIMnodYuuhiPGpYX4cTqAqP5XcZ1k8XSMojdm363h4AIshTmWdjOEV+/M+CffmmTP3oOrgMbBbIpDAI++nTDr/7ESU7OLrCatylUMpPstlERQI3CNJZ45Wrlv3wL1oFJwhxYXIKPPnWERxYnDOsW0Yca0TV1dCXkEWwz5puX9iY+nNiQJEnSYWOwIUmSJOlAihLUtlJrwrzyU+89z3tPFE7WKyxOrzOo093NVdGnA91URND2lxrdCqhCUGr3vRevbfJ//Yeb/OsXunDhLlCB1QZ+5ePn+OjjA9baK6zEFoPYeczsEoiALMGdSeUvvw0XtmFSoO2LxJ88s8JjRwes1A1GdUpDJbI7uC4fKdTScPEGXF7vgo0WII03JEmSdHgYbEiSJEk6eIK+FLybdxjmnA88tszf+fRP8BMnK6fjJsvzW4zbTcZ1m1FOGOSMki1EpSWp0QUWATQJg5qUOmfeLPL8jeR/+/eb/PktuAFs97c7sQR//a88xdnRXVbrHYalEiXI/n87NR7TDJ6/NOP5G31XRnbBxtkTIx4/scBqrjOuEwY5J/p1Vjs9G5TCzfU537nWPW+7r1dEkiRJOgya3//7v//77/RBSJIkSdLbYuck/+76pyAzKZE0peHcIwucP/coRxYXOL22yJMnlzgxmrGUG0CliTm0EzIbKA0Jfd9GF5CQDW2MmJcRN+5uQS7wvqfhCH34ES2LC4tcvLbJhWtbrJdlpmUE0RDZBRQ78xfz6RbnTo153zlYAZaAYQPfuTHhK9++wh2OMi1j2mjIfnJk97XVOedODPjoeVgFFizakCRJ0iEyeKcPQJIkSZLeVq/byhQREIUByUIGHzkPT55Z4+YE1uew3S5ye2OR57/T8uUXL/PV79zh8vwoG3WVSSxQKSRBpUAEbQZRChu5yJ+9OOVPL4w491j35mpY4fRaw4ffdZrPf+tbXG432CqLzGLQTWz0wUaNYLNNnrsANz8Kp0u3Uqqp8MSZ4xxffJELW9uUrBBNP7DRvbAasN3Cty/3HR10UxuN26gkSZJ0SBhsSJIkSTo4+h6Le8ONvV1NI7qVT8tDODuEWVuhKbTH4edON1x69hz/+i+X+Wd/fplvrc+4VY4xLQtUGtoIon+cmlBjxKt3p/zH5+HnzsNiwICGqPCes0d4+ljDy9c22GzWmDcLkN06KiLJCOpgxIuvbXF5Y5EnVruAYiXgzNEVTi41DDe3aboGjf4VdNMn0QRtHXDlFmzR9WzMgebH8xOWJEmS3nF2bEiSJEk6WO47ubDz1qcS2RLtnFLnjJtkSGWULceGlWePwN/72SP8D595Nx8+tsnK5ArjnFCo7CySSrpgIyKYtfDct5OvXuu6MkoDo4DHT4x439kllme3WK7bNO0MaiGyEBUigxpjbk+HfPNi15Uxi24o48QKnDu6yEJuMcwJpS8Gj+zWYmWFthau3my5vtEFInO6SQ5JkiTpMDDYkCRJknQI7KQdATRQBpQYQC0whyYbCoVBwEqBv/qewu998hzvX73D0fYG49yGbKnZslNnkUCbcOnGXb70Ctykm54oAUsjePrRk5wYVcZ1QlNrP+1RiAyiArUwmw24fLULJ3YOb3kBzhxdZrhTaN5PbewcPbW7bE1nXLnRrbDKvug8o7tYJi5JkqSDzGBDkiRJ0gGXuyf6K8H2rHLrzjY3bmxy8+YGt25tMplUWmDeBwNHmjm//Owqv/TuBU5yjcV6l4aWpHYRyb7H29hu+doFuDLrOi9mCeMBnDu+wumVhnGdMIjaH0sfbhCQ0LZwZxO2d75doAk4vrbIKOY0zCm0ezlFdt+PEmTC1dt9sEEfarB3kSRJkg4qOzYkSZIkHVzRn+aPoCasb2xx6ep1bt66w2xWyQiGwzFHjx7l5MmTrKzurXw6ugK/8IHTfOnl57izfov1WKFl1C2jyuiLwAttGXHtZhdQTI50kxPjgDNrlRPLwfDulFJnEEMqA0oZ9LusYE7lxnbh1gy2x91KKYCjR1dYGgbNfEpT5hAjoNtVFQQlkjaDS5tdz8ac7nkLDmtIkiTp4DPYkCRJknTAdWMY0+mMixdf49K1G0ymLVGGZBTq5pQ765tM55UnF04zKDCIwijgmUeP8/5Hj/DNr28wqBNKGdJFCHsPTWm4fXeDu5vLcGTv6tWVJdYWhwyZETknou/nAJp+4qKlZX27MJlBO94LJ1YXx4xKy4CWQiWoBKUfxUgCqCTrWzCDfcuqJEmSpIPPVVSSJEmSDq7d0gm4fu0G16/fZDqZd1MTBLV2S5vm85arV69y8+aEYdMVgwMcW4L3njvOYk5o2m0akoZKQ9t3X3TTIBtbE27d7Xsu+stwPGBp2DBgTskZ0S+I6lZZJRkJWZlNoe2zkp37NnVGTrcYlCQCMrsb7K/PCGA6dfWUJEmSDh+DDUmSJEkHXjuH27fXmc2SUkZkFjK7ACOiEFGYz1quX7/JfGcgoyZD4NTygOWmMsjKIOeUnBN574xEjQFbk25yokY/QRGwMi6MmDOMpPThRFev0bLTjtEPYbDzoQBHFgcsDyrRziCTEnHPiqmgW5k1m3ZhiuunJEmSdJgYbEiSJEk68No2mUxntLXrxagVsp/myD5UqJlsb28zn0PZaeMOWF0YsTpIlpjSMCf2r6KiWwwVZQClCxl2pjYAVsbBgCmDqLsTG/0R3XPL3dLvhAZYXRqxMi5QZ7vHdz+lMdSQJEnS4WOwIUmSJOnA2wkNanaf14R6z2In+lLuspdK9B+XRg3LMWO5btLknOz/V2s3cRGZlKZhNNp7g7XzEIuDlmHOGMTOvbpvtll3vuruE919or/j4qhheVwYRWXY9AFMf5R7l2RlDGMMNyRJknS4GGxIkiRJOtC6aYjcqdpgL3bYHxLsu2r/5wmnjqzwnkeOslrXmc9mVAozoEal5Jwyn3D65JhHTsGIbuIioCsff+wRzh1ZYiFbaBZ2HxNGZA4YN2OefBTWFmHAzqQILI6HfPCZd7HUtDTzCZnRXaILZdqEIyuL/Nz7YJXuvoYbkiRJOiwMNiRJkiQdfNGf+I++GHz36zfGAUnXk0EAFU6uBZ/6yDM8uQbH2GCh3aKpLcNmwIDkzNoCv/AReOxoNz0xBIYJC8B7Hz/FJ589z+m4zbF6h4Xs5kRoK4MCzz5R+MWfgtPD7r6DBFpYbOCTH3wPHzh3hCPzGyzUTYaRNMAoktNL8KufhGfPwCIGG5IkSTpcBu/0AUiSJEnSj9pOiBF900X0wUU3QLE7RrGrTSh9UjAK+NizK0yHP83g81f4L9cmXGshxiNOrizzK5+AX/4gPEYXTpTar5QqcGQMn/2Z80wGq/x/X7vLi+tTNkZHiVHh/U82/MbPwU+uwUm6gKLQHUoJePYc/O5ffZbmP17kT65scX3WwmCB5SH88ifH/LWPw9nYCzZKGm5IkiTpcIhs36yKTpIkSZIebglMZ5WvPvdNrt+6S8aAeU2IhhKFzIRMIuDosaO8/32PMx52a6WChFohGm618MoGPH8DXrgB4xV48hF46iicBpaAce3ChSa6CwmThDstfP0SvHAdbrVw9CS87zycbeA43XMVICo0/fFQCtsJr23CF1+D19a7SZJ3PwbnT8DR6NZQjftL5N5IfvguT5IkSQeYExuSJEmSDo3cd7l3C9Xe1MZOJlBJmqyQXbBxdAiLR7uVUz/zFFS6tVOLdGunSoVCS6XZnfYgkmEERwp84jH4icdg1j/HMGGcsEASWckIMgr9vixIGAc8vgonVmFC168xir03cgP6Tg9DDUmSJB0iBhuSJEmSDqdk3+6m3P24l3dUktoHIBVqMCYZR7LWT3iUoAs+oJuyoBCl6R+jBSpBoaHQ0DKuFUofQdTaH0Pp1mRl7K7Igu5jJmQ7Y4VkrUR320yyJrUMSOKe+nNDDUmSJB0GBhuSJEmSDqHYd8k+EUiCrty7xP6QoIsNuhykALk3kVFhd1aiHwGJ3ZGQvft292ogmj5D6Qo+cv/UyH0KMhIoZbj7+U7+koX7NINIkiRJh4PBhiRJkqRDaidJyH3XJLGvhDt2VkMR/WwEkPG6DOK7VXZ3cUZXWB5vDCHeQtP3/nVZ9wsx4nUXSZIk6TAw2JAkSZJ0qOyFAPt3UXUrqPaHGnufFX4guS9u+BGlDruhhqMbkiRJOkQMNiRJkiQdGjvrm4Kd1VO5bxKiQuz0ZQAUdz1JkiRJD6Af8E+PJEmSJOnBl/d83n0Vb3lxUz7woxCun5IkSdJhZLAhSZIk6UBKkqzZfw6Z+QNMYDzYwQY88NmLJEmS9LZzFZUkSZKkAymIe0Yaduq/s19D9WM9lv11Hm/340qSJEmHjMGGJEmSpAMrYq8i/N5cIe577T3fzrc3NTCEkCRJkt4erqKSJEmSJEmSJEkPDSc2JEmSJB0OsX86I/ddvpvyMFRsSJIkSYeOExuSJEmSDo3Xxxl5z7X33jCBfJNtVZIkSZLeGQYbkiRJkg6NjH3hRuyPOe4/mvHjrxmXJEmS9L0YbEiSJEk6xJJwJEOSJEl6qNixIUmSJOnQCejXTTmTIUmSJD1snNiQJEmSdDhlknUn1HBqQ5IkSXpYGGxIkiRJOpwSMvdPawSkb5EkSZKkB53/apckSZJ0qER/IZIo8brvSJIkSXrQ2bEhSZIkaVd+n+f24yGrp4hkt2CjlIaIQtZKrZUyaKiZ1IfsNUmSJEmHjcGGJEmSJKALNb7vc/rxcIUbwc5rDIKgEFSCyG6OIwmrxCVJkqQHnMGGJEmSJOAHW8T0sC1vul9oEff5bP/tH7bXKEmSJB10BhuSJEmSOnkITuJ/Hy/QUEOSJEl6MFkeLkmSJEmSJEmSHhpObEiSJEna5/tsmHjARhryuxzQD9KdsftIlm5IkiRJDxSDDUmSJOkQS5LYOYW/cyY/3/qZ/Mx8sM77R3Pfq9uEncLwBCKCiO4FRwSllO46gkxoW2gC+pvQ3/3h1P+CHtbDlyRJkl7PYEOSJEk6rALI+4QbEV240X/vzSQPwkBDAHtBxX1ldNMcUagVIgqZ+46+f81RoPSXnR/Fmz3sg6r2Ly37opCg//jO/7IkSZKkH5rBhiRJknQYdVnAbhiQOyfBc/8NICi7f+qf/STH/nPjb3ae/Md3Dj12/3vfDGK3BbyQtb8qk0wofbizc103ydFdVfsy9fYhDQNi93fcB1D7Xu9DmNVIkiRJuww2JEmSJO07mR9khbZtmbctta3UncSjn+DYOc+/+/G7rK768axvCsh+WiOg3POkDWR3dn8ymwMNK6urfd9G7OUdvdKvorpzd5uF4YBsWzLynqmUPgZ600mW7+cl/6gykxJBaQqlNDRNw2AQlIBhn1Pt/MoMOCRJkvQwimy/jwW6kiRJkg6EfUMMAFRg3sJsWtnenjCZTJnO59Sa9w0u7reCKuONt/lRi/6JdmY2Ym+pFpHdi6s1qSSztu0nU6I/1rhnyqPr2giaBiJzd+Kh0r22neeCndf6xp/Cvcfz5jJ+tD+jiKApDYPhgNFwxHDQsLw4YDzYCzeK7wYlSZL0EHJiQ5IkSTqMMqn9Wfs2YWt7xmQ6ZTKds7U1YTabUxNKaSh9IXeS9/SKv9Ug40d97nw3nMjcF3B04cTOs1cS+rVaTSm7kcTr11ftFId3n3dzGXXfDfZtruK7vbLvuhLrdX5U/STZT9f0MziUSUtpZpSA2XyJ1aUFRg00/UCLvRuSJEl62BhsSJIkSYdRv3uqrbC5PePu+gab29u0Nbri6Rj0652aLgABXl8l/pZmv3f6Od7eo3/9w/dd57k7pVF2Io7IewKZNy0Y3/dYRNlNKPaHGd/rdeyFLPc7yO9y8G+z2P1Pp2alnbZkVmpdZzadsby0yNJCP71xb1ojSZIkPfAMNiRJkqRDZmcF0rxt2dqacmdjm63JlOmsktEQNOy2TvPdOzTe2pPtPsyPxP4QIfpj7k7s77Rh7Lsd3Wup/axGKXuLq/a/xp1Jjd0HCHbHUzLye+YR+39cEbH32PtLPd6mICEi3uR4dorQCzWgZjKbzrlbk7Ym1AXK0ojx8O07HkmSJOnHwWBDkiRJOoTatrK9PWV9fYONzSktQWlGXXk4EH368bac736LnRNvjz6U2A0n7n0FuT+kyNfPoPRen8Qkb6gaf6vrm94QCuW9n//wP5f+uO77QEn2xeql9GUqWWjbZHNzSqlBiQGDplCwSFySJEkPD4MNSZIk6bCIvQ/b2xPW1zfZ3JxSaxLNkCgNWXmLO6YeVPeLM/bbCwG+/1eZD14fRfZTJPlm4Qb3hBuZUGtla2tOKVOiLLC61IU1xXRDkiRJDwGDDUmSJOkwCZjPko31LTY3p8wrEEMiGjItW3go7fSLfNfJDXbDDYASQSWptbK5tUVSGQ+XGA32Hm+3LMT/O0iSJOkBVN7pA5AkSZL045MtbG5usbU1oSaUGBCliS2DGgAAIABJREFUKwhvK57Ifojlm+4O6wvUs1uPFXQrqtpa2dqesL4581cvSZKkh4bBhiRJknSIzOdzNjc3mbe1KwkvDVC69UTZ/d2/bQtvo+hWRe2/fF8/3ujL3mO3GmTn6nsuwG5o8WbhRs1K1tp9FQFRaNvK+sYGs9n3+dokSZKkd4irqCRJkqRDZHuyzWw2I8luHVEmlUpGENGVZBtrvE2C/qf8eklEeUvTMfn630hAk1Cy+yu13H+J/iGTbi0VfZBy7wN2t83sV1N135/PW7YnUxbHI6d2JEmS9MAz2JAkSZIOicxkezJl3rYkQe0vGXHvuWxPbL9Nuh/k/YOifZMb+b2jpNwdtq9UWojsVk/1D/KGSZu+TLzLNfrf7+tCjtxXEl/7/2+0OaLZn5hIkiRJDyCDDUmSJOkQSJL5vGU+a5nX7kR5vi7UcAnV2yyDeP3ExN43u/9mF0500xPxPcOEBGp04UYXS5V+OqPbVZV9QTjZTYRExF5+8iaPWxOm85bJFJbG7ItMJEmSpAePwYYkSZJ0QGV2UwFRgiDIGt1f/udOqNGtSop+GiDAv9L/YfRJQESQmdS2UgJKaSilv672i6Wi+/0k2YcbuRdQUHa/R1YiShdDFYiASqFNaPtApFAoUaD2BeH7IonMpMQbf7f3/Jr7PKVmd5lXaEw1JEmS9AAz2JAkSZIOiZ3FSDXZ/cv+7lR6vqV1SHoTsTfjEBG0bcvmZMaEZSiDLpHo2r0JKuNBMGqgiTmR8z7IqCSlm8TI6EOMoFKYV5hOk1kNaozJ0nS/sqwMomVx1DBqEmolKkTUrp0jk8wK+yZz7pdd7XZ5FGiTvTBEkiRJegAZbEiSJEkH1b4dRLXtisJz376p3XPxTmn8cGKvkCJpuHxzk5cvXuaVy7e41h5lmgNqdoXhpSQNc04fWeZd507w+JmjrJYpg5xAzrsS9+wnMZoBdzcnXLp1l29+5wbX7k6Y5oh5jGmzoWYXYKwsBOdOrvL+p89xdKFhxIxSpzTMiKiQ3STH96qFz76LI/vJjWKyIUmSpAeUwYYkSZJ0EMXOaWpg56/xc99J835ygzTXeDtEdIHAxSu3+X+++Cp/eWXKtVxlfXCEKUPmGcwpRLQMS7J0ZcCpi1M+9aGGX3rvIsfniyzP70BUKpAZbG7O+eI3r/BvvnaJb0+OsZ5HmTJmNhhTacgotFnJdsrR1wa89/qUX/vwIh9YHbJKUKhkXzQeCbF/RdUbXoFt4ZIkSXp4GGxIkiRJB1l0BQpN2TuxHRHdie7+ZLx+OJFBqcm19Ql//Jcv8udXh7waZ7k9PM5WjqjRQDRENJSSQMst4Pr6jPUv32ZheISfPQ+jWCZynSRpy4CvfucKn3v+Mt+YrHBjcJZJLFPLkDkNNaKfwAnKKNhuZ9y+sMXiaIHjHwuaMmAhRwyoNDmn2Z3HCOMLSZIkPfQMNiRJkqSDKnZ2Tu1ccW+5dOZOgfXePqoI9w/9IBoaLly9wws351wdnuXO8FFuzxeBCqXQEDQUIGmzMm+gLYtcmrT8yTfhmdNwdNwwbgckc2ZR+IsXX+PC9oib4zOsN8eYM6b2v7uaUKMrHK8kDAfcmSRfuTThJ9cXOHoUSh1Tck6hC1OiqyPnrbRnxM7KMlMQSZIkPYDKO30AkiRJkn489qYzAijsFG7snMM20vjB1IDtUri0MeHyNtyti8xymSgNNIUoSUZXDZ4EhYYmGyKDCQ2v3p1zZQYbBSpDAti4e5dbN7agXWHAUTKG1BK0wAxooyuAr0CNYNa2zMqIS1vwnU3YKlCBJqFkYeet3/daOBWxl4dJkiRJDyqDDUmSJOmwuefMtmex3w7zOqdEoWRQKtQ6695tRd9vsm9eAiCyAl1hdzQDZgUmQ6AMIKBSyUHDDJgFZLZkrQTZPezuA7H76E3TBRjT2t0HYJC1n9jIrrvjTV6D0zqSJEl6WBhsSJIkSdIPIYAmK2vjIWuDwlLMGTDpg4x7o4QkyeimPDIhEtaWYDyCybSfmCBYWBiysrZIjRmznFKzBSqR0NDtFB4AJfuQI5OSLYujhlPHdmdyGGRL6Ud1dqY8JEmSpIedwYYkSZIk/TAyGVB57MxRHj0xZrXeYjCbdmMT84Rayay0VGY5Z1bn1Cy0QGngg++FMwtwiiTqhGFWjpWGj773PMcXWwZ1k1IGZAyY12DWQku3SSz6lVNZhsSg4Zl3NZxbgdUWxnUKfZCSu1HH/TmtIUmSpIeJ5eGSJEmS9MMIaHPGsbUlPvWRd3P7ixfZvHaVSW2YNSOg2V0dVfs5jtpWTi01fOqDDR87D0dnsJQTCnNKJoNMnn30GJ+8MWH75XVe2b7O3VxmXhZpGZCzSgnInFOZMx4m7z69zC+8B84VWJnBkGn/jIUMW8AlSZJ0cES26b9wJUmSpIMm8t4ihoStzZYbt+6wuT2jzaDNnf6H/ffzL/e/XxmVNreJMmLGIq+uN/zZa3P++Nsb3Mpj1DLeCzZqElQePTHgQ0/A+87AowXWJnNW6yaUyrBWmkw2aLmWSzx/q+FPvzXhpVtwlxVmMYCEhmQwSBYWC4+fg596Ch4fwJmElbrFuG5TaKkEGUHS93G8/h1gJKXAwnjE6ZOrDAsMCjTBm5dySJIkSe8Qgw1JkiTpIPouwcbNPtiYtZBRumAjoESBCGom6VuE70tG0sacQjeb0WZhq1ni+mzM3dJQ922Aytp1ZIwLLBVYTFis64zqbLfoOzIoBG1sM2uGbDFmu/7/7N15nFxVnf//1zn3VnVXp5Pesnf2BUIgrJIAkVU2hXH0O864/cQvCuKAjgjjVxzZZvw6AzrzBccNEJ1hFATH0RFEGNmEAAEECTsBspF09u50eu+quuf8/ri3lu50QkKW7k7eTx7X7q66dfvcJWXX+dzP5zOKdqDDxhWurIfQQxBAEMZFpqodjHA9VLp2Us5ikobhrliKyux6YAMU3BARERGRIUelqEREREREDkDWWkwQks3ladu6lU2bNtI4aRKZqqo4IOKVubGz4kBEAIAzhsBCxnUz3uYYbUeCLUU2vPHgHYGPCPJ5AiICn8fgwMSBCLBE2Lhvho+oMt1UWag2FeRMRdybg0JGhcPls2ByVEaegCyGKD6FmKS/xjvuAZQ3OjdJ4o4yNkRERERkiFJgQ0RERETkAGFtHKwwxBPX+XyetvY2br/jdp577o9ccMFnOe6EheyoybT0ZZK0GOstzhgiY4gA8nnS5Mj4VqwzxTQJ5xzExaHAxzkevlgqqtDo2+IJcD7AGo9xeQK6yJhuqsoyL6yPy2DlTR5vPCmfJsIQmTDeVnGMlMpQDbQPhng8ySu2t56IiIiIyFChwIaIiIiIyP6ocKu+KS0VFZbKygp6c458zrFh/UZ+ctu/8/M7b2fCxPF09/YM8qCHH1+W0mBwBC752cYHPwIi78GXhxmSZuKm/zYKeRYOMAQmXjfO4IgzQyhbM35xHATBQ86b4pZcWWTClAVDyjMwoihi3fp11NWOYszoOirSKQILtjyq0T9zQxkcIiIiIjIEKLAhIiIiIrK/SwIcHggCg4vyeOfp6Gjj6aeeYuq0qXzp0i9x/AknDPZIhy/jMeWz/sUm7D4p69U3B2LA+EApWhEHN/z28yz6vD4JePjyJ03f5wfKwFjTtIbvfOdGMpkKPv2pT7Lw+PkEprxpeHnApf82B9oBEREREZF9Q4ENEREREZH9XTJR7VxEOh1SURmS68wyY/o0vv53V1A5oopDDp2LDQK8UxmiXWbK+lPs3obi7SR9OHbLTvRIaWluYc2aNbz20gu88PyzfOXyL3H+eZ8kXRGC8Xjv4u2YQiZJMcVERERERGRQqXiuiIiIiMj+LJkrj/IR+Xye7p5O0hUhQcpgU5YFxy3gsHnzgIAoAucNXqGNweEB7D5r3H7wwQdz5ZVX8rFP/n9ke3vo7uwg6fSB9x5jg1LOhlVQQ0RERESGDuMjrz9NRURERET2V8l8dHd3Dw8/8jAPPvQwH/zgh5h58Fx6shG5vCfyBufie/KttViUtbFLdpixYfZZoOIdmb6jNB5sAN1dHTStXs5BM6cya/pUwtAS5XO0tm5lxIhqKjOVpRd58IU+ImbgElciIiIiInubSlGJiIiIiOzn2traufvuu/nWt7/Fps2bmXPIXI44+j3kXSc92V7CdBX5fFkjDvZUaaUDRXl37YGeGxr6n1VjIQwDpk+fwsGzJ5OyniDJzFi1ahU333QzRx19DGeeeRb1DXXJi8CYobNPIiIiInJgUmBDRERERGQ/5r3nmWee5sorr6S1dQtfvuxyPvjBc6nKpPFJHKO7N4vxlrhSrcUai8cryLGzPHGUYJvjZIbQoStkjnicdxg8YUXIqFEjSKcgZU0c1DDxgJ9++mlu+dEtVFePYtGix7nggs9y1NFHFTc1dPZLRERERA5EwbXXXHvtYA9CRERERET2DmMNmUyGtq1b+cAHzuHCCy9gzJgxhNaQSoVYa4miiMhFgMEYD95jDFhj4jv02f4y1BQ6hAz2UhjNUBKPJs7KyFSmqa8ZxcjqgFRIUn7MYZPyUrU1NYwePYa1a9fy9NPPMKmxkeOOOy4uRVXeSFxEREREZBCox4aIiIiIyP4smX/u6urGWkMqncYGFpMkZPRk83T15uno7qWnN4p7bTgPLnmxoWwSu+9HB4/Zhzfu79xvMrs4Kr+XPg557JBrwm6AVBhSUZFi5MgMVZUQJEENALzDEAe0vHOA4dVXX2PRY4s486yzmD59OhSOV5/rIj6OKlElIiIiIvuKAhsiIiIiIsNdIU0gaZOxauUqnv/T8yw4bgHjx42PJ6GT3gl4iCKHtQZjDS7y5Jwnm3d09eTo6s7S05Mln4vAGKwNkwlsH5en2u4v377d/8CxK8EKt8Nn+4/Ul03U70lxYMO+84rvkvE7HrIxBpJAgwWCICCdTlGRDqmuTpFKQ+DjVUxhmD4+doXAhrEBAL09vYRBSJAK8JFn/Yb1PPXUU8yefRAHHXQQ6YoULnIYY+NfqU+YIiIiIrKXqceGiIiIiMhwlwQ0crk8L7/8Et/+9rd5+eVXuOqqK/nIX3wEAJd32CCewTYm6f3gwAaGisAQBpbQBlSEIdnKNNlsnlwuwnkP3uC8w7m+oY2+GQlmgMfKn3m3O+Z3OQtjR0yhtlbZI3tHKWPDJ4Wedlf/LRS23lf8s02CGsYYKisrqEinSaUslWlIpcG5vi8x5QGhJPvCuzhYUVFR0ec3PPP0M1z25cuYMXMGn/rUpzjjjDOYOLExXj/Ye8EcEREREZECBTZERERERPYDPvL86bnnuOJrV/DU4qc498/O5bDD5sWZGoZkotoXv8f7uHyQM2AhMJAODKlMCqpSRB6iPOTzjlw+j8dgrU3KDb1zqOHdhiF82ey9AYwvBDb2jr1Viqq4/bhzRaFvd5/kml3RvxjY9o5H8ewYQyFpI10BYRBXkSrEHQoJPKYYPCq8upDBYuLnvC+tnATQ5h0+j3POPYe77ryLr778VTZv2syXL7sMawdolj5wFTMRERERkd2iwIaIiIiIyHBVdnO88XHgoa2tjbPOPotvfOP/MueQg+Nmz66s2XNSfghjSqWlki+BTb41EAA+ACosnvSAeQGFxyyl0kjvdh7bG4gAZ0rbtMl+FTuY7wV7K65RPlxHvG8GCH28X554n3dcOKuk//oWsGUvLpSTMmX/23/fTL/gyjaZK77sDPqyFfoNcsb0GVx33XXMP3Y+//Ef/8Gpp56abDPO7Ck0pI9DI54gDMq2KSIiIiKy+9RjQ0RERERkuDJlX5Ob6x977DEaGycyfdr0uEn47hSCKntp/wl4X7YUCi0Vl3f5CcMXKmSZUtjEeltoFRE/53Y/GDFQj+s93fe6PDPDJYshDhhZ75Mgxc4V2Oqf7dHnOJuy41Ye6NjO/mxzjgrf+J0/AIWAmPeeNWvWMGXylOKGWza3sHTpUg466CDq6utK11+fTBw1GRcRERGR3aPAhoiIiIjIcGIpRhly+RxNa5ponNRIKpXCu7jBtw0s+Vweay3W7H7Pg8LE+TaP0780kisWqSplDpRnAGxPeZ5HPIPv4o7n8TNJ0MYl27B7Y158Twc2ypNhbDJ247BEGO/wxiS9N3Z8fpLwDsbHzb5LR73s2PbL/PB+x4Ga3Qk+xdsvK2lW9nu88/z0P37KP113Haeeegqfu/BzzJkzh8qqSnzkkzJmIiIiIiK7T53dRERERESGGwtt7W388Ic/5PLLL2fxk4uBeKLZGgsOAhvssTvjzQDZAtaDdR4beUIDAR7rIoyLMC6JQpQvfnuLAxdBPg95DzYgnzcYY+NAjfO4yOG9IzCewFLsHTHQsm1aw04ue0HhFrK4pJbHRw7nLb2RJZfzuLzD5/I7XMjlMblegqgHfC/O53HGxCW7bHxifHKMDXHQJzB7d3eNMfG1VUhHKcajDPUNDTQ01PPDm37IX198MY8++igucnHwxTucd6pIJSIiIiK7TT02RERERESGERc5Vq1axa233sotN9/ClKlTyOay22RE7Om747e9wz/ODnHWsqkt4pXl61ixqZstvZa8rcT6UsPvdxqJwWO8x6Yrqauv47DZKabWQKU3VHhPYMAWm5aXbXOgGfIhlBRgDWDj/hrrt+Z4YdkGVrXk6PCVcdDDF5qXb3+qv5AJExhHZFI4E9I4bjRHzwporIYMkLImvmPNe/CmmM+xz5QN/33vO40JE8Zz55138uyzz1JdXY1zrhRoK564IXSiRERERGTYUSkqEREREZFh5t577+ULX/wC1liu/9b1nPOBc8hkMvt2EMbjMKzY2MWv//Aif1zRTlM0mhZq6WIEoY92YeraY40j5wyZTCWHTqrik6dkeM94qPdQ4T026XruyotcDYNPMs573ljbxq8ffYmn386xJldLZ3oceW+InMe5d24fbvAExpE3aSITUlcJx06r5uMnZ5hTAw0pqPRJ2MeD92aP9wzZFblcjmw2y9p1a2lsbCxem709vfT09lJbW9M3llNII3FlPw+DcysiIiIig0cZGyIiIiIiQ1zkIqyxGBvf8X7SySdx0ecuYs4hc/jgBz+4byeBCy0zPHTn4O5HXuJ3r3WzOpzJVltLl6kgR0jK7ELgwXgikycyKegNWbOslygDNX8GcyzUY0h7l3TviHt+BMNg4tsZ2NDay38+/gb3L4MmO4OtwShyVOGsiZukB++8nfiQ+2L3kk29jlVvOZqr4SunQ4r4eKSTaMagtrKwkKpIkapIMXvE7OLDHs8dP7+Df/3Xf+Xyyy7nA+d8gJqaWsIwKF5TxetcvThERERE5B0osCEiIiIiMoT5pGxPe3s7I6pHENiAkSNHcumXv0xFRQXeu307k+0BG5e6WvrWCp5ftoHNfhLNtoEuU0Vkgrgx9js0sO67SU/epMAE4CEbZXh+dcSjbwRMmAMZAyls6Yb+YRDUgPhQvbl6Ey+u3MJm38gWU0s2qMabgMjAu+o24T0msOS95/FXcpw4K8XomVBl4xhJIZNlqIUGent7ad7cTEtzC1/5yldY/NRivvzlLzP7oNnbrOu932P9YURERERk/6Tm4SIiIiIiQ5Dz8TS+wbB48WJ++MMfsmbNmrizhfdUpNNxUIPBKzu09M1ltPRCb2ok3aaSnAlwxsaNsnfpPwME8aS8AQLDxi54YxN0At1A1hi8KTUuHw7BDQ+8vb6VtlxILhxJzlSASfbTF/Ivdn3xUYR3Ed3ZPM+vgjbiY5Qn6eVt4mXQdnqAtiHpdAWf/t+f5sbv3MjhRxzO66+/TmdnF96Bj+JG6kEYYKyJMzYU1xARERGRHVDGhoiIiIjIENXR2cljjz7KVVddxcZNG5k5ayZTp06Nn7RgnInDAsbs03JULopnriPn6HUReePxFuL77JNZbVNqmbBj5TPYyU4EBh8EdOXKJusB4w12GAQ0ynX1ZHEejLHFo2Nw4P27vsvMJ1Ed76E9ipuTJ33KB//Ote2cH2sMY0aP4cMf+jBHHH4E6zdsYO4hh8RPGkOUz9Ob7SVTmcF5nzSLFxEREREZ2KD/3SsiIiIiItvy3vP444u49u+v5c233uRjH/s4xx13XKnRcsKwb4Mayeiw1jJu7Ggqgjw26iI0+fhue8Aaj8ft9AKO0DtM8ggO0hbGjYI0cQ+J0A+Pvhr9jaurIRN4yPdgjMF7D97FwY13sxhPEFgMnlQAM8ZCJXEZKkucyTLUM1pmzprJwoUnkK5MF/uH3Pu7e/n617/OE088gXdum+tcRERERKScAhsiIiIiIoOkUIhpoElcg2Hq1KlMmTKFi//6Yr761f/DxImNgzLO/qy1eA+HHXoIk0dXURNmqXQ9BN5hjMFgcRic2Zml1GvCY8AYbAATamDeFBgBVABhIW3Dw87mggw2C8yZMZmJtRmqbZaU78X6KA5R7NSx6b/Ex9UYQzowTGrIcPTU+BgFDM3eGtswBhc5nPPFfi0bNmzkV7/6FT/60Y/43+efzz/+0z8WV/f7PmonIiIiIsNAcO0111472IMQERERETlQlfcTcM7hvMM7j7GG+vp6TjvtNM5+/9mMGjUKY02pLtNgzvcmSSKVVSmq6sazesMW2ns8WZ/B+xSRMUTWgrVgdmKxFmcN3htMYJhaA39+Apw0DSYCI8uzNQwkhakGaed3njcwalSIC2t4e/1mOrOerAvJ2Qw5a/HW4s0OFlu2lD0eGMPUOsvHT4GTJ0I9UOUgPcQPSRz0Sr6WXffV1dVMnz4dYwyvv/Y6f/rTnzjm6GOYOnVqfM1DqdaW4hwiIiIiAhgfef1pKCIiIiIyGEzfr6tWrmL58uUce+yxVFVV4b3HGIu1ZTPWQ+Svd28gMrA1gmdWRCx6fQtvbAlpzVWQt5X0BtEuNLA2OBcQBjCmBk44GE6YBVMNjAYyrqy00jALbHgDm3Pw9Fu9PPHGFl7fEtLsR5EfqIKY6RuzKu1yHBDwhFhvmD4GTj4Mjp2aBH6Ij1FgGDLXx04pjNdClIvY2raVBx98iPb2dj7x8Y+TqcqAgXw2j7UWa1VwQERERERiCmyIiIiIiAwi5z02MKxcsZLrr7+eZ555hm984xt84JwPAOAj3/eudRgylZi8gbyBbqC5N1468tDrIWt3cY7dQGhh9CioA2qSpaLYOXzPj39v88aDicgT0OsNzV2wthe22tIp7L9b/Y9Z/9bq1sOEkVAfQrWHjI9LdZnCysPl012/HXNJGbMoioiiiFQqhQ3ii+jpp5+mpbmF444/nrra2rhPCUm2k4iIiIgckMLBHoCIiIiIyIHMGFjy/BL+5Z//hV/+1y+ZP38+48aOA4hLUiUNp4uTuENo4tr4uKl3xsCEingptLkurrML2ytkKwTEH1RShXuwirP2w4/3FmsclcYwucowfoQhS3k2xnYWX/oKcRDJJV8NcWmuQsPw0i/bF3u0h5QHqyxYb/HOEwQBYSos7ktzczM333wLDz30IGeeeRafPu88jjrqKEZUjxhe+ysiIiIie5QCGyIiIiIigyiXy7F+3XpeePEFFi5cyD/8wzc48qijikENiEsR9S9bNVQmdQuT7BawRMTtnuPiScYP0BV9G0k4w/iyMkzlrxmeAY1Ysv/JubI+osJbKnZln8rrUvXJyOhTm2t46rdPxphSb/ikn0ZtbS1nnnkGS5e+zl133cmbb77Bd7/7PeYdftiQ+TcgIiIiIvueSlGJiIiIiOwL2ykT5Lyjs7OTp556ilmzZjF9xvRSysP2WgoMdvPw7TF5igPz5fkHO/NaKJ+s98lSnrUw3PiynhmFTBTjPfjyoETZ8RnGMYq9wXuPCeKD8tYbb3HrrbeSy+e4+qqrGVVTo8MlIiIicgBTYENEREREZB/wAN7jvae7p4eOjnbq6upIp9LbZGP4KMnWGGjmdij/9V4egSh+uwvTz8W6S0By9/5wDWoUlDdQH+77sq/5Yikyg7Hxv4stra3UN9QB0Nvdy4oVK/B4Zs6cRRBYgjAYuoE/EREREdljtncPmIiIiIiI7CEejzFgAkPr1lbuuON2/uHv/4GlS9/o21jB07dBhR9gGcq8KS27kq3R//VJ+ab9IRBgfGmRXWOMiReSfjOBob6hDhc58NC6tZV//pd/5pJLLuE/bruN1atX450f+v9ORERERGS3KbAhIiIiIrKXmWSCf93addx000384z/+E/fdfx9Na9b0DVj4OAgiIn2Zsl4lxlgwEIYhY8eM5aWXXuKKr13BDTfcyOrVq7e3ARERERHZjyiwISIiIiKyD/T2Znn00Ue5+eabyfb28rUrvsZpp53WN1tDRLbLO4/LJylNHhrqG7j6mqu54YYbmD17NmEQMGrUqGK/do8niiL90xIRERHZD6nHhoiIiIjIPpDL51ixfAW3/OgWjjzySD720Y9hgwCbNEcu9NXwcdpG3GNDRIribKa430aUd3FM0BhMYHh71dt4D1OnTol7s3vP+g3rSacraGioj0tZWaMAooiIiMh+QoENEREREZF9wANRlKenp5fKigrCdBj30zDxnehAMbBhVDdHZEDee5x3OOcIgiD+N+M91licd9jAgod169bxN1/8G6pGjOALX7iEI488EmsDgiApWqBPwSIiIiLDmkpRiYiIiIjsQfHN4p5cPsezzz7L3ffcTVt7GwYIg5DqESMIw7DUJNyXmiQDCmqI7EgxkylpMG8N1lq893ifBAkNtLW1s6V1C7/8z//kwgsv5I477iCXzRZfiqVUBk7/5ERERESGHQU2RERERET2IGOgu6ebBx98kCuvupKrrryKF198cbCHJbJfMBBnXliLx+OjOJBhAoNNsjfwMGXKZG688Tv87d/+Ld55Xn311bgUFXHww7uyDSrAISIiIjLsqBSViIiIiMgelI/y3HvvvVx99TW89dabnHfep7nmmmsYP27cYA9NZL80XhbXAAAgAElEQVTiibM0rDVxUCLuGF7Mmsrn82SzWZYufZ0xo8fQ2NhIkAqI8lFcvsoGWGPi2/18caMiIiIiMgyEgz0AEREREZHhzhM3/s5mswRBQBiERFHEZz97AVddeSVjxo0plZ4SkT3CYMD4UmPwJOPCJMGJMAgIMpUcddRReF+qYtXb08u3vv0txo8bz1/+1V/S0NBQvtGYAhwiIiIiQ5oyNkREREREdldZ2X88dHd38/rrS5nU2MiYMWPipsZGVWBF9gafpGmUBzdwcdZGIehojCkGQP70pz9x4YWfY9myt3jf+97HRRd9npNPOol0Ol0sV5VsOGZQoENERERkiAmuvebaawd7ECIiIiIiw07Z/OeGjRvY0rKF6upqvPMEQcDESRMZUT2CKHJYW2oOLruuMDmNiSerC8eyMKENxH0WdrdJQqGh9I4kvRjKf3efc6t+DftcnLlhwJeuk9LjyfnxFL+vHlFN46RJdHR08MDvH2BL6xbOOfccKisrS9daaeMKbIiIiIgMQcrYEBERERF5N5IEjJUrVnHLzTezctVKrr7qag6ec/DuT7BLLJlQdt5hbXzAXeQw1hbLCnmfzGMXJqB3teRXIViCKZ7T+BdtZzzlfP8ffZ8G1cUJcn3i2ie2ydxIem4UFR5LrpXlby3nvvvuY968eZx0yknkc3nCVBh/DcJS743y8lQ6lyIiIiJDgnpsiIiIiIi8Gx5eeOEFvvvd7/HrX/+KI444gnyUV1BjT7Pg88QTypZigKMQjOhT4WsXJ519co9XsfyQK3t8oAyQ8knu8qyM8glvHwc1nHcEQbBrA5LdYjB447d/HZQ3CDcwY9YMPvPZz5BKpcBBmArZtHEzDz30IBPGT2DhexcSBGHcs6M8m0fBDREREZFBp8CGiIiIiMi74Jzjqaee4q677mT+/Plc90/XMWfOnMEe1n4pCEvRiwH7Kfj4fHjvsdbudHDJEzeeDkxQakBNvC3DtuXDPD4OfphSmSNIejkUMjQsmMAQ+KBvhsA+mgwvHp8DtPRZ8dy/0/F28bHKVGXAQeQcgbUsWfI83/72t+nt7eVjH/0Yn73gs0yYOKH8FyiwISIiIjIEqMeGiIiIiMjOMBTv2i5MoE8YP4GJjRO55JJLOOKII+I79Pv1aShmBeyHE83OOzBJ1sQOJnxd0sS5WKqpsP5A2Q9l+hy7JHhR3kOhkClhjMFgsGbngxqF7Vpr40CFNUSRwydlrwqZIf3XLyzF8SX7bK2NG1T7uN1Dn6AGydgL+144VN73DdDs1KAplcwqH+IAven3x2tuTzKYUp+U5OdUKs26dWt58YUXue/++8hmc5x04kmkwhTee1wUX3Q6tiIiIiKDSz02RERERER2hoFcLkculyOTqSKK8nHZoWRmNAxTRFFcox8oTrrv74EN5xzWWGxgBwxs+AEeLGY7mD4rDtizonCMnXNYG2CtIZfLYW1QfEFcksrGAZZd6IPgk8hD4dTk8xHeO8Iw3GGApJDp4YmDGMbEQZEwDOLJbxcHR4olrsq4KM4s8d4ThmH5RndaYful41L2u8qvOUwcTFJ5tJ3m8TQ3N/OHP/yB3//+9/z5n3+IM884gzAMyUcR1sYBNIyOqoiIiMhgUmBDRERERGRHyjIRfv3rX7N+w3o+8pGPUF9fXyp9VHYHvw3KbsnfnwIb28nIWLRoEdlsliOPOpKG+oa+6xO/Jh/laWpqoqmpiZaWFsIgpLaulqlTp9JQ30C6Mt03IGH6fl/eCyOfzbNp8yZWrlhJZ1cnuVyOmppapk6dwsSJjXGQYlc/4VjI9eZ4fsnztLa2Mv/Y+dTW1hafLgYHkn1at24dK1espHVrK6lUiqpMFdOmT2PMmDGk0ilcFNersklpqt6eLGtWr6apqYn2jnZSqTRjx4xh+ozp1NTWvKuG5wCtW1p5/InHqamp5fjjjydMBX33vez6G7BniGzLxsEn5xxtbW1UVFRSUZEmTIV0tHfw9NNPc+SRR1JfVz/8/02LiIiIDGPqsSEiIiIisiMmnkC+4447uOHGG8lkKjn++ONpaGiISxmVda82xmwzSb3fTH6WlY2K8g5rDU1Na7ntttuoq69jxswZfQMbgPfQ09PDk088wUMPP8SGDRvp7OwgDFOkUiFTJk/hrLPO4tj580mFO/5oYjD09vSyZMkL3Pe737GmaQ1tbW2kwhRhsq3Tzzid4487fttAyUAseAfeO4yzNK1t4q677mJr61ZmzpzVN7CRlIzK9mZ5cvFiHnnkYd5++206O7swBkaMqGbKlCmcffZZHHXkUVRUVhRft6W5lccefZRHH32Uzc2byeVyBEHIiKoq5s6dy7nnnsuMGTOwod3xmJNslELTdAwsfuopbr31Vk444QQWzJ8PScZIeRBGdpEvlRWrq6srZuDg4dFHH+Wqq67iqKOO4rxPncexxx5LVVXVYI9YRERE5ICkwIaIiIiIyI54+OV//ZK//4e/Z+TIkVx88cXMmjULAGNssVzS/lyaptA0uxCkyedyvPHmm/zmN//N1rat1NbVEtig/4uI8nmefvop7rzrTlpbW5kxfQYnHH88URTx4osv8vLLL9Pe3s6omlEcduhhfV47kOXLl3PXXXfx9qpVTJ4ymQULFhAEAcuWLWPZ8mWs/+l6giDkvScu7NuHo7/kOWMhyjmWL1/Gb397D01NTdTW1hKGffelUGbrmT8+w8/vuIPmlmZmz57NrJmziFzEa6++xssvvcTWra1UVVVx+OGHx6XLsjkeeeRh7r33d7S3tXH4EYczZcoUurt7ePaPf+TJJ5+kZUsLF110EY2Nje+caZKUvdq6ZSsvvvgiDz34YFLOyvQpe6XyU7uhkOCSXOsGUzz/mUyGUaNG8dOf/pQXX3iRr/yfr/BXf/lXgzhYERERkQOXAhsiIiIiIlAsebTNhLCBadOmc9SRR/GpT32Kv/iLv6CyshIo9YDYb7IytqPQq+GNN95g0WOL2LR5E6tXr6alpQWAKIqIoqjviyw0tzTz+KLH2by5mTlzDuaSSy5h4oSJOO946823+O73vsfKVSt54oknOHTuoeW/cMCJ+fvuu481a1Zz6GGHcv75n2HK5Mk472lqWsNtt93GSy+9xP3338chhxxCfX3dDs/LsreW8eQTT7J+/XreXv02mzdvxkVxv4pt9gVobm7mwQcfomVLC0ceeRTnnfcpxowZSxBYVq9ezU033cTKlau4//7/4dC5hxKkApqamnj44Udobd3CWWedxUc/+jEymUq8h3nzDuMXv/gFr732Oo888ggf+9jHCIPtfzxzkWPRosdZuvR11q1dx6q3V9HV1RX3AzHgnC8rPaWwxm4rNH4vtC7xcPJJJ3Prrbfys5/9jAcfeJDq6uodBtAUYBIRERHZe+w7ryIiIiIisv+LGzoDJm6K7fFxc+zIcfoZ7+POu+7kox/7KJWZyqRi0IER1CjwHjZt2sQTTz7BKy+/QltbO+l0Om5i7f02TcK986xdu44VK1cQBgFnnHEmkyZPAiBMhcw5ZA7nfOADRFHEiuUrWLt2LRD30egzGZxkKaxbt45XXnmFiooKFixYwOTJk7GhxVrD5MmTOeWUU6irrWPlylWsWbMmzmAoTE733xfnWdu0lkWLFvHsc8+yZcuWYgPu/uXFCtavX8+yZW9Rlani+OOPo3FiI+lUinQ6zcxZM/ngn32QESNG8Oabb9Dc0oyLHMuXLaelpYXJkydz2mmnUTNqFOlUmop0mmOPPZaDDz4YAyxftpzW1tYdHn9jDG+++QZPPP4Eb771JrlsjlQqHR8rD7veWETekS9b8ARBwKxZs7jiiiv46c9+yqmnnFq8vrK5LG+vXk1XV1f8KTu5hJxaWoqIiIjsFcrYEBEREZEDnicJauBxDl555RXy+Txz584llUqBh9q6WrxLmlhDEgQ5MIIaMc/MmTP5xMc/UTxezZs3c88992BtsM28ejabZcOG9XR1dTNu/DhmzZoZP2HiwIKxhoPnzGH06NFs3LSR9RvWM3HixG2blDvAwoqVK9i6dSuTGicxa9ZsgrKeFLlcjkmTJjGqZhQtLS1s2LChfNjbbtPA7Nmz+cQnP0lPdzc2sGzcuJEHH3iQKIpKDeDLttHU1ER7ezvTp09n+rTp2CDAJZkqQRgwsbGRhoYGVq9+m5UrVjJ27FjWb1hPd3c306ZNY/z48X02ma5IM3XqVFKpFJubm2lpaWH06NHbjU9471kwfwFTp0wlDEOcdzz33HM8/6fnd/YEym4oBNu891RUVDBt2rT4CRcHQp944gluuOEGzj77bN7//vczZcoUrLXgPQ6PMVa5GyIiIiJ7kAIbIiIiInLAKzRb9h6efvoprr/+evK5PN/69reYe+jc4nre++L6B0qmBgAGrLGMGzuOMafF5ZcAVixfwW/v/e2A8R1rLC0tLURRnrFjx1JTUxM/bgu3ssOokSOpra1jbVMTbW1tA2ZXRM4RWEtTUxNBEFDfUE99fR0ucsnzEcYaMpkMdbV1rGAFmzZtIsrHAQfvPMb3ywDBMHbsWOob6gFDEFhWrlzJk08+STabLZ7n4hjyEZs2bcJaS01NDSNHjsRYcHkX9x4h/v0NDfU0rVlDU1MT2WyWluYWwjCgrraOdDrdZ5veecaMGUNFZQVdXZ309PRsG4ApP56B5dBDD+WwefOI8nkAWlu3KrCxj/VpzJ6cLxc5li1bxrPPPsuixxbx2GOPcfFfX8xJJ59E5CMMFnCYATKBREREROTd0V9WIiIiIiIAeH7723u49NJLeeCBBxg9ZjSZykzpWVcKahyQkpJQQWiLvQdsYJPjse0xMcbEvTfyEWEYbjux7z2ZqgwVFRVkc9kkoLD9X5/L5sjlcqTTaSorKzGmFFwKgoB0Ok0qncIaS29v7ztWZjLWkE6lSaVCgjAgFaaS3TTbBDYAsr1ZjDFkKjOEqbDPdpx3ZDIZwiDE4+nq7iKfy5OP8sU7/PuXtzLGkE5XEAYhuVyOfBKs2C6fHG8bf40bWqvM0aDod9iDIOAzn/kMP/nJT1hw3AL+5/7/YeOmjcVgaRAUyrWJiIiIyJ6ijA0REREREQAPq1atYtWqVVxwwQV88Yt/w9SpU+Pnkrvyi30bDkDegfcO622pobLb/sFw3gGGyDnCICQIgm3WCYKAdCqF93FWRLHJSRmbBC+cc3Fzd2PifhgmvnPe2gBrDalUqliiKZ/Pb9Pzo7Qj8Zf+Aapiz5QBzrExJs4MMYZUOkUQxJkgYRjG+5jPk0qFxQb0uVwuaajucM6RSqe2zfAxUFFR6lGSz+fj5uXbuavf+6TymS8FX+JjLIOi7BoxJn5vOPvss5k7dy7PPvssZ5xxJgBhGJDL5cnncmSqMgfs+4eIiIjInqbAhoiIiIgI8YT2Jz/5SWbNms2C+fOprasFn/SDKM7kD+4YB5MBMKW+FnHP6u0fkCiKiBsuWzzxxH26YtusDRtYgsDGgQvY9hib0rqFLI0oioqPmySTJA5wBPGEv4t2fsd8+bfx79imEToe7+K+Ivl8VBxLoRSR954oinDOxVktQRBncrgIfBzA6Z/U4h3J74JUKjVg4KffwQLisRVatQ+UWSL7UOHwF0qIGZgydQqTJ02OA2SJV199hZ/97Hb+8i8/wvz58+NrBr9NcE1EREREdp5KUYmIiIjIgaXQ4sF7Wre2snHTRrK5LBiob6jn/R84m/rR9XG5n9DGE5QH+vxjv8bb2zw2AGstLsno6O3tLfbEKJfPR+RyOayxSRbGttWVCpO/QRhgjCGfzxMNsK1cLktPT3dc4imV3ub53eGcS/Ynoqenm97ebJyt4pJSQ2GQPO8IgqAYpCgEQKLIkcvl+u0X9PZmyWbjslnGmO1ma/Tht/O9DB5ftgAmMDgXX6M93T088MAD/NtPfsJHPvIRrrvuOtatX6dzJyIiIrKbFNgQERERkQOLByw0Na3h+9//PjfddBOtra07Xv9An4Q0gI0TNootNZJMie0Jg5CqqgxBENLR3kFXV9c263R1drJ1axupdJrqkdVJRka/lZJPLCOrR5IKU3R3d9PT3d1nFe88nZ2dbN26FWtscVt7ijEmbhhuDJ0dnfT29AAkWRoR1lp6e3rp6uoqrhuGKTKZDB5PZ2cHqX7BFo+nvb2NXDZHEMY9QnY5gHagB9yGGg8kMbe4BwpUVFRwzjnncNlll1FbW8cPf/BDnn32WUygkyciIiKyOxTYEBEREZEDi4G33niLq6++mn/+53/mySefpHXLOwQ2pK+dCGxYa6mrq6eysoKu7i62bt26zTpt7e20t7VRWVlJTU1NnJ3Rb5P5XNxUe8KECWCgubmFzZs391nHe09PTw9tW9uw1jJy5Eis3U6vCnzSyPmduotTHEsQBNTW1ZJKpejo6CCby8YT08bEJaqcp7mlma2tW3HO0dAwmspMBaNG1eCdZ8OGDXR1dfbZvHOO9vZ2MFBVVUUmU7Xj8fQZWjwwszMZHrLvJcHQQqm1OQfP4Qtf/CLf/e6/csGFF/CeY94Tr7e901cWPBQRERGRgekvYRERERE5oET5iJ/97GfcddddzJ49m8suu5xZs2fHd1oPtMh27ajHgwkMEydOoLq6mo0bN7LkhRfi45lM2HrvefLJJ+jo6GB0QwPjxo0DmzQkNxC5CCxxg24Ph8w9hPr6BjZv3sySJUvI9calnWxgyUd5Xn31VVq3tpKuqGDK5CkYa8j25uKSQDbeXj6KG3S/Y1AD+kwsG2tobJzEyOqRtLW18eKLL5LtzRKEljAdksvnePbZZ9m0eROjR49m5swZ5LI5GhsnUl9fzyuvvMrSpUuLZc2897S2trLk+SVke7M0NDTQ0FAPxE3Xs9ksuXwuaRDu+wSRSsEkjzVmm+dlCEgCGyZuRIMxhlEjR3LySSdz+WWXM2bsGFwUX4MvvPgCd955J+s3bIiv+fKAhoKqIiIiItul5uEiIiIickBxznHa+05j9ZrVnH/+Z3jPMcfgnYN3at58IEsaI/f5SilzYHsmTJjIrFmz2LhxI4899ijTp03jkEMOoTfby5+e+xMPP/wwYSrksMMOo76+ofi679z4HTo6O5k5cwYf+tCHqMxUMqJ6BMccczT333c/f3j0USZPmcyRRx5JGIa8/vpSFi16nO7ubhaesJBJkyeDB2sM99xzD6+//jojqkbw4Q9/mMZJjRhMMvfsd9zEOWnyjIOJEydw8Jw5PPnkEyx+cjGTJ0/moIMOwnvPSy+9xBOPP4ExhqOPPpqG+gaCMGD27Nk0TprEyy+/xL333suoUaNonNhILp/j4Ycf5rXXX8MGlnnz5lEzqgYMrF+/nv/+7/+mubmFY445mlNOPoVMVabPGI1JJsytwXuXTJ7rnrWhzuOpGhFn5njv6enu4Zf/+UtuvvlmjjnmGC76/EW8732nM3JUdTFoqAbjIiIiIgNTYENERERE9kvbm7AOg5CFCxdy9NFHU10dTyAWGv3KDiSldQp3oWMgTO3448TIkSN53/tO5+2332bNmjXccsstzJg5g97eXpYtW0ZXVxdz587l5JNPJl2RAuJJ+xdefIHW1lZ6urs588wzqcxUAnD22e9n5cqVvPzyy/z7v/87s2fPxlrLypUraWlpYfLkyZx19lnU1I5KhuxZvnw5zz33HA0NDZx51pnx4zvINCnnnEv6fhjq6uv44Af/jKamJpavWM4tN9/C5MmTwcDy5Svo6GjnkEMO4dRTTyNMx8dl2rRpnHbqqWzcuIGXX36ZG264gUmTJpHP53nzzbfI5bIsWLCAk046Oc7mALo6u3jxhRdZv349DQ31uJMcznkCW3Ytm9I+FHZFCRtDnzGlUmsGg7WWhe9dyNKlS7nnt/ewYeMGxo4dywknnACUspfiCm06wSIiIiLlFNgQERERkf1OodSQx5PNZnni8SfI5rKccsopVGYqCQioHlkNLp4wDKyyNd5RkqmRVD4CIJPJMH7CBMaMGU3QP+PFQxBYDpo9m09/+tM88MADrFq1ipdeehnw1NTUMH/+fM4444xihoX3cf+LxomNjBw5knHjxsVNtRMTJ07gvPPO4/e//z2vv76UV195FQzU1dbx3ve+l1NPPZW5c+eWMkuAsWPHMmXKFOrq6qmqGkGflBNK2Q8jRoxg0qRJZLNZwjAOsngP1sZ9NIw1TJ82nfPPP5+HH36IZcuW8dprrxGmQurq6liwYD4nn3QykyY19jlmxx1/HM45Hn3sUZrWNPHaa6+RTqcZO2YMRxx5BO9///upra0pjreiooKJjRNJV6SpqanB2iDOyijvGeKJm6SPqKaxcSJ19fVYZWwMfUmJqsK5TqfTnHHGmRx5xJGcsPAENmzYQOPE+Pox1sTBDNvvtSIiIiICgPHRTt6uJCIiIiIyjHg8bW1t3H77HXzve99l9uzZXH/99cw5ZE5pJSVq7DwL3gF4jDF4D729vaxd20QYhowdO5bKisptXuZ9HBTY0rKF5pZmurq6gDibY9SoUTSMTkpQeYgiB96zevVqnHdUVFQwftx4giAgchHWWgyGli0ttLW10dXZhfOOTGWGuvo6ampqCMKAKO8IrCUfRbS0tNDV1UkQBIwdM5aKyooBx9jT08PGDRvBxI3KU6kUYIqZEN7HWRFRFNHa2sqmjZvIR3m881RXV1NbV0ttbW1cHsrFs9eFAFAul2PT5k10dHTQ3d1NEIRUV4+Ij1llBmPok7GxefNm8vk8I0aMoKGhgSAIGShusbV1Ky0tLWQyGcaOHYcpZnIYbDLwYnaK7vofWgq9NJLT09PTQ2vr1uR8W2xgefmll2lva2fe4fMYMWKEzp+IiIhIGQU2RERERGS/1Jvt5cc//gnf/va36ezs4Gtf+xrnn38+tbW1pZX0l/DOK2Zs+OLkfSEzxhrbPxGi7+uSr955oijCOUcqle5TPilu6g2BtWRzWdIV6bInk34Y3hczEzzxtqy1WLvtrH9cYswTWFu8690736ccULIhvPM474oNuAuZGv3XdXmHDS3elYIcxpji748zTpLdLQQSbNyw3hiLTZqH53N5jDEEYZAEQUqZI5i4BJa1pWNaXhKrMB4fJftSdke/98TZHQpsDA9lp6NwDVpjcd7R3t7OpZdeypIlS/j4xz/BJz7xcSZPmlzqvaHaYyIiInKAU76yiIiIiOwfCndAW8omqT3pdIrLL/9bLrjgAmpqakslXRTU2ANMqQTS9o5n4Vi7wjqGMAzjOd0kUOIiFwdMkrnaMAxL20sm+0357yL+OQzC+LHtnFNb6EvhKJYdK46lsPh4kjiwAdZYrLEE1pYCDWWLtTbZTvxz4TWF502S4WGN6RNEiNcr/e4wCOPyZ8mYiuNKtlvcZpJRVD4WH/niuv17hWiqe5gpu7aMja9Bj8daS093D6lUmvXr1/PNb/5fLvjsBbzxxhtxZo8p/lPCeaWdiYiIyIFJGRsiIiIisn8oBDagWNaovb2NV15+hWPnHxtnAGgO8N3rn7HhfTEosLM8fV/jibMqCpuIAwNlWRKGd33Ottc8friKAz+m+LX4WDLRXZggd8rYGN5MqWl4T3cPDz38EHfeeSdBEPDNb/4jkyYnPVxcEtwoO7/xF51jEREROTAosCEiIiIi+42Vq1YCMG36NPLZPEEQYAJDPpeP+xQM6uiGuT0Q2ChXCGrEPTtsHJfqXyYqXlHYlcCGLx1LFNgYdkypn0vhvG7YsIGe7h6mTp9aLE3W3t5OEARUV1cDpd4qOsMiIiJyoFBgQ0RERESGNe89znuWLHme66+/ntraWq655homTpyoab49aQ8HNpx3pdcn2y7/Xt7ZQIGN/j0YFNgYhrZ3mpKybFHkuPGGG3jjzTf46F99lAULFpDJZLDBO5SFExEREdmPqMeGiIiIiAxr+SjPI488wte//nXuv/9+8rk8LnKaxB3CCk3HTdKg2xgTB0vwmpQV8QMvzsclqrq6Onl96VL+65f/xVev+CrXX3896zesV5MVEREROaAosCEiIiIiQ55P/huIc45HHnmYxYsXs3DhQq686krGT5iw3fVlaLDGvutsD+lHl/oBodBEPpPJcPXVV/HVr36VdWvX8dDDDxNFUbLS4I5RREREZF9RKSoRERERGfI8vjipV2xAHRh85DGB4bVXX+M3v/kNF174ORpG1yeNdfs2jy7vTSCDa5vG3io/9e4VejEkTdb3t6bpMoBCxSnnWbRoEdneLKefcXr8oIFsbxZjDGEYAgZjKV4fIiIiIvsLBTZEREREZNjZ0rqFVCpF9chq8BBFEVEUkU6l+96xXPaXrgIbQ0fSKkD2hMKB9KUvOrb7v/KybSYwuLzDhpaO9g7uuOMOent7Ofecc5kydSpBaPsGDjUDICIiIvsBlaISERERkWEhcvEtx83Nzdxyyy3ceeeddHZ0FmdxgyCIvyncwa7JuyFLE+97UKEHQ0LHdv/nvccnESwP+Mhjw/ij/YYNG7j77ru54oor+PznP8/dv/kNPd098QsLF4cuEhEREdkPhIM9ABERERGRnWGMYcXKFfzoRz/iu9/9LkcecSSnnHIKs2bPioMahWCGI/7eUprw9ShbQ0T2C8YkxcYMmH7ve2PGjOGSSy4hDEN+d+/vGFVTw4LjFjBx4sSyDUAh4UPviiIiIjJcKbAhIiIiIsNCR0c7P//5z7n5pptpnNjIpZdeyoTxE4C4gXg82WfiybrkLnZN3InIfmuArLSR1SM588yzmDfvcO456x4aGhpoaBhdWqEsa8NsZxsiIiIiw4F6bIiIiIjI0NKvZ0BBLp/jnnvu4d/+7d/46le/ygknnIC1Ni7H4ogb5BKXZSn20zCokbKIHBgKZfgSLvIYA8bGNauy2Sw/vvXHzJg5g9NPP53AxuX71H9IREREhiMFNkRERERkyPD4eBIu/oFcLocxFmsN1lp6e3rp6Rg8eRcAACAASURBVO1h1MhRpYm48sk8D94psCEiB6gB3g8hLl+15IUlfPazn2Xd2nX89cV/zfnnn8/48eMJg7DUjFzvmSIiIjJMBNdec+21gz0IERERERFIJtSSybVsNsvixYtpaWlm/PjxWGMJw5DKisrS+uV3GRdqzScTc4XSVCIiB5TCrYsm6cdhDN57crkcYHhr2Vs8+MCD2MBy3HHHka5Ix++Z6D1TREREhg9lbIiIiIjI0GKhu7Ob//n9/3Ddddcxftx4fvCDHzCxcSLeJ9kYyeTbNlkbjuKdxyqtIiIHtLLsDe/iRuO9Pb0888dn+O09v+WY97yH//W/PhyXpOoXGBYREREZ6tQ8XERERESGlFxvjl/+1y/55je/yZo1a3jve99LpioDsP0sjKRZOCSTcpqXE5EDXdktjMbGP1dUVHDie0/kPe95D0EQEoYhzjnwsGTJC4wdM4YJEyYQpILi68uDySIiIiJDhQIbIiIiIjKk5PJ5Vq5cSXd3D1//+tf5/EWfp66+Dtxgj0xEZJgpr89QyN7wnkwmU3zeBpbnn3uez190EeMnTOC8T32Ks84+i5GjRsbZbwpqiIiIyBCkUlQiIiIiMmR44qbfTU1rWbr0debPX8CIqiqVRxER2V1JuSnnHdbY+P0WAxae/eOzfPOb/8jjjy8iihwXXXQRf/d3X4uDGwoqi4iIyBCkwIaIiIiIDIrC5JpzjvUbNjBiRBU1NTXxk4W/UC2ln/VXq4jIXrN+w3p+8Ytf8Otf/ZqP/OVHuPDCC0lXpIFSj44+PTsgfo9O3p99MrWg/kYiIiKyLyiwISIiIiKDwiWNwJcuXcoPfvB9Dj74YC747AWlEimgwIaIyL5iobO9k7eWvcWkSZNoGN2Aixy5XI5NGzdRW1dL9chqXOTw3mNtUOzdocCGiIiI7Gv2nVcREREREdnznItYsmQJ1157DbfddhtPLX6Kzs7OvispoCEistd5PFE+Il1RwSGHHEJdXV2xv8ayZcv4+3/4e773ve/x9qrVcbNxDIpfiIiIyGBSYENEREREBkVHRwf/9pOf8Jvf/IaFJyzk7/7u76itrY3/QrUU68EruCEisncZDIENSIUh6VQaa2wc2DCGpqYmFi9ezPXXX8/nPnch9957b/wiT9x/I3l/NsYoW0NERET2meDaa669drAHISIiIiIHnjAVErmICeMncNXVVzHnkDkYu+3EWLHBrYiI7HPjxo1n9uzZdHR0suT555k2bRonnvhevS+LiIjIoFKPDRERERHZqwYKTBQei5wjn89TUZnGO493vm9wwyuwISIymDxgLGzcsJHFixdzxBFHMGXKVGxg4owNERERkUGgwIaIiIiI7F0GnHN0dnZy3333M3XqVI466ijSqVRxFV/+J6lhwECG9367z4mIyN5X/l5tAsOrr7zKHXfcwSmnnMqx73kPNbU1Kh0oIiIi+4R6bIiIiIjIXte0ponvf//7fO2KK/jJj39MZ0fHdtdV4EJEZOjLZXO89NJL3H777XzhC1/g/93w/3j11VcHe1giIiJygFBgQ0RERET2GucdbW1t/PCmH/Ktb30LYwzvO/10qqqqBntoIiKyG8Iw5KSTTuJLX/oSXV2d/PjHP2HJkiVgQPFpERER2dvCwR6AiIiIiOyfnI+LrwdBQD6fZ8aMGXzjG9/g9NNPJxWm+qzbv2H4QHZmHRER2Xv6vA9bmDBxApd++VJOPPFE7r77bo499tg4qOEgH+VxkSNdmS69xqNSVSIiIrJHqMeGiIiIiOx5lj6TV82bm1nT1MTh8+ZhAoOLHNYoeVhEZNgqvIUn7/X5fJ4wDImiCDC8/fYq/vu/f8OfnXsuM2bMwIa2tL5mIURERGQ36dOkiIiIiOxxb77xJs3NzckEFzSMbmDevMPwePBgrf4MFRHZXzjnCGyAd54gDHBRxO23387ll1/GxZdczG/v/S1tW9u2fWGSAOLxfRqTi4iIiLyT4Nprrr12sAchIiIiIvsBC/lcnocfeYSrr76KjRs2cvgRh5PJZMDHJUyMMXi8GoSLiOwPTOFL6T3dO18MVPR09/CHP/yBxYsXM336dObOnVt8nfOu7/8XGPT/DSIiIrLT1GNDRERERPaI7q5ufvWrX3HjjTeybNkyTjzxRAIbbFNyRBNXIiL7gcJ7e9Is3Lj4vb3Qh2PhwoXMnjWb0047jRdeeIG5c+finS++rhjoToLexW0qcUNERER2gnpsiIiIiMhO88mM00DBia1tWznvvPN45JFHuPyyy7n44oupb6iPgxsiIrJ/SgIbAHjwHrxzcU+NpIl4R3sHlf8/e3ceJ1V15n/8e86tXqHZBUXZGgSMRlwQ0FHDT42Jk0TNmImo0Shq1BlxjTOauIAoiVGUuE00JpIYEfc1iWJUMLjhxqYIGllEFoUGGpre6p7z++PW1guyCF1d1Z93W/RSVf26SEPde77neZ6SYhUUFMgYq7Vr12j5Z8s1ZMiQhrM3Mt8DAAB8BVpRAQAAYPt4yXsvE5hoMctLslJRYbEG9B+g/fffX5deeqnalbZruBMXAJC/kpUbideI5MwMa6yKi4tVECuQNVbGGD315FM67/zztGHDBu21117q0KGDrGH2EgAA2HacOQAAAGCbGWNkrJENrLzzWr9uvaqrq+VCpzAe19BDhurs0WczBBYA2pLMFlJWsjax1GAkNRNwb9q0ST179tSk2yZp9OjRevvtt0WXQgAAsD2YsQEAAIBt56N2VMYarVyxSvfd93sNGTJExxxzjNq1ayfnvIJYIO9ZowKANiVz5oaVrNvyPsozfnqGhhxwgB56aIoWLVykkuKSdAUgAADANiDYAAAAwHZxodOCDxbopptu0hOPP6Gfnnmmhg0bnmg9JYlQAwDapkbhRpOvJ94XFRVpxKHDtffeA1SxtkJ9+/VNDRbfULlB9fX16tatm7z3skE0qwMAACATwQYAAAC2S8W6Ck28ZaKeeOIJHXX00TrllFPUoUOZpOaHigMA2pAtVV1kfN3aKKzo2rWrunbrKikKzevr6/XYo4/p5Vde1ve+9z0d993j1KVbl11/zAAAIOcQbAAAAKB5yYyi0SJVxw4dtd9++6murk5XX3O1Bg0aTJwBAEj7ipZSXj4KwU00ZFxe8i5qcVhbW6tFixZp2rRpevHFf+j57zyv6667TgP2HkCbKgAA0IDxIZMdAQAA0JCXT7cASQyFjYehYgWBvPOqq61TbV2dOpSVZftQAQA5xCcSitRA8YwVifp4vVavWq1HH3tMDz74FxUXFev2O27XQQcf1OB7hPFQxhhZs+U5HgAAIL8RbAAAAKBZzjtZa1VZWalZs95W7169tPfee6cXowAA2IniYVzWWtXW1uq9d9/T+g3rdfTRx6i4pEg+9Nq4aaMkqaysTMYYee9pgQgAQBtFsAEAAIDmWWldxTrdf//9uvuuu/Xjk3+sK664Qp06dYrahyjaccuiEgBgpzCSvBS6UN5HlYNBEJMxUn19vaZMmaJly5bpRz/6Tw0ePFjWmHRrKwAA0KYwYwMAAADN+vKLL/W73/1Ot9wyUbt166by8v4qLCyUkaFqAwCwa1gpsIF86KPQIvFys3LlSj3z9DN6+pln9M9//lOjR4/Wcccdp44dOopcAwCAtodgAwAAAM1yodOnn36q3r166corr9QJJ56g0pLSbB8WACBfJWY6yUgmMDLeyDsvGWm3brvp4ksulrVW06dP12Q7WcOHD1enTp0UhqECG2T76AEAQAuiFRUAAACaSux+XfDhAm2orNTwYcNkbNTPPLXoxBZZAMCu0vglxkhy0voN6/Xcc8/JGKP//M//VGFRobyjaAMAgLaGYAMAAKAty1gJqqur07p161RcXKyOnTpKrunD6WUOAGhxpuF777zC0EnysjaQtUazZs1S5YZKHXjQQerSuTMBPAAAeS4Ye93Ysdk+CAAAAGSJiW41NTV64403dOONN0qSBu49ULFY066lLBIBALIiI9xIznqy1spIqqzcqDFjLtSjjz6qdRUV6tS5k7p06SJjrQwBBwAAeclm+wAAAADQghJBhpdPfR6vj+u5557TVVddpRdeeEGLFi5SbW1tVg8TAIAGEvM3vPNyzinZe8JYo6KiQp188smygdXEWydq7HVjtWrlKlkTtVBMveYlkXMAAJDzGB4OAADQRnjvZUy0mmNselVnyeIl+tOf/qT33ntPPzv3Zzr7nLPVrl379BaY5GJSYhUp+T0AAGhpyWqNFC8VFxfr1FNP1ZAhQ3TLLbdon332Ufce3aPZUC7RQtEoNYg8+Xny+QAAIPcwYwMAAKAtMEoN/W68U3Vj5UY98vAjWrlypS644AJ17dZVLnSysUSykQw2ol8INgAArY7zTsYYVVZuVBiPq3OXzjLWqLamVp988olKS0vVt2/fKNhvvArCqggAADmHYAMAAKAtSAYaiXAjXh/KGiNjo52v9fVxOedUWFgQ7XANfYOqDoINAEBr5pWoSky8RLnQyQZWS5cs1UUXXaQ1a9bo4osv1nHfPU5lHcsyn0iwAQBADmLGBgAAQFvgpTAeyjmnpUuW6Y9//KPmzJ0TLQJ5qSAWU1FhYdSew0XhhXe+wYJPk/YfAAC0EkYm/ZqVDOETbRT79O6jRYsW6dxzf6bx48drfcV6SZJ3iTaLvLQBAJBzmLEBAADQZhjNmzdf9933ez3xxJMaPfosDR48WCXFJdk+MAAAdo6MMF5e6tWrl676xVU69LBDde+9v1dxSbGKiopSlYnOeXnvZa1t8HwAANC60YoKAACgDXDeadnSZbr6mqv15BNPatCgQZr020k68sgjt7iIkzlsHACAXOOVDi3q6+u1fPlylZSUqEf3HjJBFHysXrVaHTt2VFFxUbqVlcv2kQMAgK2hYgMAACBPJdtrRO04jGIFBWrfrr2Gjxium266SYcMOyTxwOafT6gBAMh1ydeyWCymvn37yVhJXnKh15IlS3TNNVerfbv2uuSSS7T3wL1lbSAl9n+mqjgAAECrQ8UGAABAvksODnfS0mVLJRn16d1bUmqWOAAA+avxC52R4vWh3nnnHY0de51mzpypQYMG6corr9T3/v17Ki4plnwzwUby+7CKAgBA1rH9AAAAIF8Zafac2Vq/foN86CUr9enbR3369pZsukUHAAB5zUvepYZvSF6KxQLtv/83NWHCBJ177rmqrKzUnDlz5LyTDaxsrJlQg50AAAC0GlRsAAAA5Bkvr3Xr1uvxxx/T739/n04//Sc655xzVZLYgeqcS7SostEaTWKRBwCAvJbIKsL6UDJSEAskSRsrN+qtt95S7169NXDQQIVhqMAGqq6pVmFhYepxkpi/AQBAK8GMDQAAgDxTUVGh+++frHvu+Z0qKioUBIECa6Mdq4oGghub2HaaufuUcAMAkO+cZGxi0EaiH2NZhzIdfdTR6ddGSStXrdQdd9yhb3zjGzruuH9X125dos0B3skaml8AAJBtBBsAAAA5yMvLyDTp9+3ltebLNXrppX9ow4ZKTZw4USee+EPZwMp7Hy3a0E4DANBWWcnKyIVKv3Z6H7VnjAoaFdhAL057Uffec69KSks0Y8YM/fd/X6hvfnO/6LXXis0AAABkWTD2urFjs30QAAAA2DHGGDnnUrtMjTFq375Me+yxu04ZNUonnHiCSkqLE/dltJ5K8mJxBgDQ5hgZ+cQLoLFRJaMxJjV76pv7768wjGvZsmWaOXOmioqKdPDBB6ukuEQmiF5IU89ntwAAAC2OGRsAAAC5yCix+GIUhqEqN2xQx04dFcQCeZceCm6MlTFSGIaSl2xgZUzGAgxnggCAti7ZWSpjyLj3XjW1NZo3b55ef/11jRw5UkOGDJGRkQmMwrhTELPM3AAAIEsINgAAAHKVlVzo9fbbs/TII4/opJNO0mH/dlh0X3JIuEwiyGBXKQAAzdpCsOHlZY1Vfbxe1loFNpCMtGnTJr366j/Vt28f7fuNfRNP9bzGAgDQgpixAQAAkKN86PXqqzN0880368UXX1RZWZmGDx8R7SA1UXWGXHpgePSk7B4zAAC5IgiiIKPAFMonB3BIenXGqxpz0Rj161eus846U9/5zne022678RoLAEALslt/CAAAAFqjTxd/qpt+fZNmzJihM888U6NOHiXvXNSKyinVHsPIMEsDAIDtYIyJggwvGSNZa+W9l7FG5f3L9e1vf1tz5szWlVdeqb/+9W+pFpAAAKBlULEBAACQozp17KThI4brkGGHaMyYMerWrVtqloZMNH8DAADsmGRbqrTodXWfb+yjX//61zrqqKM0depU9evXt4WPDAAAMGMDAACgtTPRvAxjrJJlF957eS/JR1tJA5suxPXeNxwQDgAAtltyboaXT2waSFRyNLOK4hVVc6xft15LlizRXnvtpc6dOiuIBVRMAgCwC9CKCgAAoLVLZBRLly7RX//6V61YsUKSFARWNghkjZHzTs67aPEFAAB8bclh4EZGxph0a8ctPLautk7TX5mus88+W7/61a806+1ZqtpU1YJHDABA20GwAQAAkAOWL1+uO++4U2PGjNFfn/tr9EUjST5dvZH4ItUaAAC0vFgspqLiIrVv1163336HLr7oYr32+mvZPiwAAPISMzYAAABauc+WfaZx48Zp6kNTNXDQQPXu0ye6wyk1rNTaxE7SxKBTAADQsqy1Ovqoo9Wvbz/97p7fafr06SosKIy2lGaMvvLOb7GlFQAA2DbM2AAAAGjlPv30U513/nmSpOuvv17Dhg1TEATRnZzJAQDQKjjvJEnWWFVurNTSJUs1cNBAFRUXSZKqN1friy++0F577qWgIJBcNo8WAIDcRrABAADQWmyh2qI+HtfHHy9SQUGBBvQfEO3yNErt/JRv/nkAAKDleO+jAeM2WZqh1Gt7fX1czz77jG6++WadccYZOv3009W+XfvEc4xoIgkAwPZhxgYAAEArkWwrVVNbq+WfL1dtXa28vGKxQN/4xje098C9ZYKMdlOZgQYrIgAAZJWxiTlXTtHNR+/D0Km6erOWLV2m5cuX6xdX/UKXX365PvnXJ6nXfgAAsH0INgAAAFoLL23cuFGPP/aY/vd//1evv/66XOjSFRqNgwyvpgEHAADIji29HnuvsvZlGnXKKN1yyy0aeshQvffe+1qxYoWstTJsTgAAYLsxPBwAAKCVqK6p1pQpU3TzLTersrJSxx57rJx3ChTIO0nep9pbOBetnhiTGBoOAABaJWOtvLx6dO+h//jhf+iAIQdo+efLdeCBB6YGi3v5pq/nW2hRCQAAmLEBAADQasx6e5ZGjTpFlZUbNOHGCTr1tNPUvqxd+gEuGkzqvZf3kjUmantBsAEAQE7xic0JyfBi5syZ+vvf/65Ro0Zp0KBBKiwqTD6w4XsAACCJYAMAAKDVWLd+nX5/7+/VY/ceGjVqlIqKi9J3esk7L+d9FGMYRYFG8j0AAMhZYy66SH954AH16tVLo88erVNPPVXdu3dvWLXB6g0AACkEGwAAAK2BiW4+9Kl2FCYwzS5m+KhnRep5BBsAAOS2OXPn6IEH/qJHH31EsVhMDzzwgA499DCZ5GTUjPkdzbatAgCgjWHGBgAAQEuzUfXF/Pnz9dZbb2nkyJEqLy+XNbbhzAyXCDHUMLxIVmoAAID8MOSAIerXr5+OOOJwrV69WnvvvXfqpT6Mh7KJhMN5J8nImKglJQAAbRXBBgAAQAsL46HeeOMNTZgwQR988KFKS0vVp08f2Zht8lh2ZAIA0AY4qUOHDvrBD45XbW2NiouLo0pOJ73//vv69NNPdcQRR2iPnnvIO8m5UF7RhggAANqiplfPAAAA2CW8vGSld999V//zP/+jl156Sd8+5hgNGzZc1nJaBgBAW2etUUlpiYw1cs5rw4YN+v3v79Nll16mX/ziF3r9tdcVhqGstXLey2d0F/cM4QAAtCFcQQMAAOxKidkZzjsl1x5KS9upoKBQ55x9jsaPH68Be/dnxyUAAG2cd17OOfkwmqVlrVFhQYGGDj1YnTp30qOPPqoxYy7Shx98IGONrDXR+YWi5xlDq0oAQNvB8HAAAIBdKRFsZPLOa9GiRerUqZN67N4jGhjuPVUbAAAgPV8rsekhjIea/8F8TZ36sLx3+vnPf65uu3WLholnnGN456PnsMoDAGgDCDYAAAB2NSPNnj1HgwcPUnFRcWoRor4+roJYLKqh9WIhAgAApHj5VBWGC702b65STXWNunbrKmOMwjDUksVLFI/H1X9Af1kbzdwwMulwhBIOAECeYlsgAADArmKkNWvW6Nprr9X555+n6a9MV308ngoxCmKx6HEuq0cJAABaKe+9vPOyxqh9u/bq1q1bFFx4r3UV63TX3Xfpp2f+VA/+5UGt+XKNjI2CkGTlhm80hwMAgHxBsAEAALCLfLbsM40fP1533HFnFGQUFioWBM0/mDUHAACQwWS8NeZCJ+ed2rdvr88++0xXXXWVrh8/XqtXrU4+GQCAvEawAQAA8HUYNX9GZaR/ffqpnn/hee2115761a9/rX/7t8NSrSEAAAB2iJGCgkDdu3fXFVdcoXvuuUf9yvupsrJSxcWJlpdbON3gPAQAkC+YsQEAALCjMgaDu3i0c9LaQDaIvli9uUZTpz6kffbZRyOGj5CU6JfNNkoAALAzJE4pli1bpnh9XOUDylNDxb9c/aVisZg6d+mcepx3XvLpweQAAOQqgg0AAIAdkVwg8JJJBBx1tfXasH69unTtoiAI5Fx6eIY1FMoCAICdLLnJwmd87qSNmzZpwoQbVVGxTmeddZYOGDJEhUWFUahhm29vBQBALuEKGwAAYBv4xFuDdQCT+NRIYTzUCy88rxtuvEEffvhh4m4jG1hZyykXAADY+bz38mE0INw5Lxc6eXl9+eWXWrBggSZPvl/nn3+eJv9psioqKmSDpucktKcCAOQirrIBAAC2g/fR4kEq4DBSdVW1HvzLg7rs0sv08MMPa/78+XIuWiTwoY/aPgAAAOxCNqO9VHm/fppw4wRddNHFWrbsM83850xVV1fLhU6SiVaDkjcAAHIQragAAAC2hYnaTkmSsUr1r5akV156RZf//HItXrxEV/z85/rpmT/Vnj33jAKQ5NPpZQ0AAHaRjNOSNCttqtykmTNnqnOXzjrooINVEItFmzKqq1VQUKBY4vPUN2GFCACQIwg2AAAAtpFXVK2RbOPgQicbWC1bukzjxo3T0KFDdeaZZ6qwsFDGNOxfTbABAABakvdeJjAK46GCIJB30efVVdW6bdJt6typs0477TR16NQhOqexlmADAJAzCDYAAAC2kfNO8XiowqICubiTsVbGSmF9qKrNm9WuXTsFzNMAAACtlZHmzJ6jM844Q//69FMd/4MfaMxFY3TgAQequLg420cHAMA2C8ZeN3Zstg8CAACgtfPyssbKy+uTjz/RtGnT1KvXXiouKpG1VoVFhbKGUAMAALRuxSXF2nPPPVVbU6tpL05TcXGxDj/iCBUVFWX70AAA2GaxbB8AAABAa+PlZaxJtWPw3svIKB6Gmjt3niZMmKDZs99XQUGBTjrpJMkaORe1cDBNO1wDAAC0GmVlZTrxxB9q2LBhevaZZ3XAgQeotLQk24cFAMB2IdgAAABorFGjTiMjWWne7HkaP/56Pf/8CzrssEPVt2/faOCmV1St0ezkTgAAgNYjsIECG6hvn74aM2ZM+g4jrV+/QS+//LJ69Oih4cOHKVYQk1z2jhUAgC0h2AAAAGjEWCO5jMqNRFhRVVWlFStW6Pvf/55uGH+DBg4aKOccg8EBAEDOc85p3ry5GjdurKwN9KMfnaRTRp2i8vLybB8aAABNMDwcAAAgg0+UaxibDiu8k7x3qq6u1gcffKA+ffqoR48eCsNQkhrM1iDkAAAAuch5r3/96xPdd98fNHXqQ1q9erXOOecc3XnHndk+NAAAmiDYAAAAyODlUy2lNm3cpNVfrFbfPn0VK0y0YjBq2G7KS96lT6cINgAAQE5KnONsrtqsV15+RY88+qhOOuk/dPzxx6fOfbyTMvZzROdMrCoBALKAYAMAAKCReBhq9erVeuThhzV9xnRdc801GnrIUMlLYRgqCIJ0uEGwAQAA8kUi3AjrQy3/fLk6d+6sDmUdJCtVb44qV3fvsbv22msvKRlwEG4AALKAGRsAAACNrFy5Qvfee6/uvedeFRQWaNWq1fJhYt6GjLzzMgEBBgAAyC/e+1RIsdeee8kYI++9jDd66823dPU1V6u8vFwXXHCBDjzwQBWXFDfY7CEp+pygAwCwi9mtPwQAAKBtmfXWLE2ZMkUlpaW6+eZb9N3vfEdePrrYT03hSDPGpG4AAAC5zHuvIAgUBIFsYGWskfeS8041NTV66KGHdM7Z5+jBBx9UbXVt6nmOhiAAgBZExQYAAEAjhwwbpvPOO08HHHCAjv3OsZKX4vG4jEx0gZ8MMLh+BwAAecSo0UYNn/7g/438f7r//vv15z//WS+99JKKCouixyYf4728MVEBR+MqDgAAdjJmbAAAAGTwilpOhfWNZmkk2ip4L3nvZGQU/UeVBgAAyGOm4fvqzdVatmyZunbpqi5du8paozAMtWHDBnXs0FFBLEg/lxUnAMAuQrABAADaLiPV1dbptddf18KFH+mk/zhJ3XbrFt2V3IGYGKIpKRFsRC2prKGjJwAAaAMy93A0WkFy3skGVnPen6Pf3PwbHXXUUTruuH9X9+7dFQsCAQCwq9CKCgAAtFkbKzdq2ovTdOutt2rFihXq2bOnfvCD42WsohBD0bBMSamKjSYtGgAAAPLZV2yHTW4EWbxksd55513NmDFDM6bP0OizR+vwfztcsRjLTgCAXYOthgAAIK/5xJtMo695r5deflkTJkzQvLnzdNJJJ+mwQw+TSQQYyRAj40kAAADIkDxXeRkv0gAAIABJREFUOvroo3XXnXeqvF+5/vb3v6libYVCF2Y+EACAnYroHAAA5D3vfbSjMLGlI6wPZW2gbl27qqysgy659BKNGzsueqzzTSsyCDUAAACa56X27dvrqKOP0kEHH6wXX5ymEYeOUGCjWWXxeFxhGKqouCjd5tNl+6ABALmOGRsAACC/Nc4ovE/tLoyHcX2+/HN16dpF7du1Tz/FmIZzNaJfaEEFAACwNcneIIkK2Hffe1ePP/64vvvd72rowUNV2q6UTSMAgK+NVlQAACC/JXcGSlq1cpUWLlyouvp6eXnFCmLq3aeP2pW2a/655BgAAADbrtG5UxiGevPNNzVp0iSdddZZuvv//k8rVqyQlNg4AgDADiLYAAAAec/FnT744EONu36cLrjgvzR79vup+4yVbMxKJqrISFVleKXaJDAwHAAAYBskzp+884nNJUbHHnusrrzySknSrbdO1IIFC1KrUV5e8XickAMAsN2YsQEAAPLeu++9q9tvv11PP/20Dj30ULVr17RCw1CeAQAAsFMYGXnv5b3TgAEDdNlll2n48OH6eNHH2m/f/VLBR7KC1jknGSNjRJsqAMA2YcYGAADIG16+QUDhFQ0Cf+KJJ3ThhWN02GGH6sYbb9SggYMUOqcgllG8yhBLAACAncZL8t7JGitZqb62XsaaaKh4woKPFuj9997Xscceq9167JaayyEpamvFihUAYAsINgAAQH5JZBVhPJQxRtZaVVSs04wZ0zVkyAHq17evjDFR6GEz2k5xRgQAANAyrLRp4ybdeeeduvrqqzVy5EiNH3+D9ttvX5WWlioIgobzOtiAAgBohGADAADkj0SoUbWpSnV1derYsWOD2RjGmnSIkSzWINQAAABoWVaq2lil6dOn64/3/1HTX5muPXr21N13360jjjhCpvFEWM7XAACNMGMDAADklcoNG/Xw1KlasWKFzjn3XPXs2VPGREMsXehkrSXUAAAAyBIvLzmptF07ffe739XgfQbrqSef0oKPFmhA//6SvOL1oWIFsSbPM9ZQvQEAkETFBgAAyCMVFRW6//77dcvEW9ShQwdNnvwnHXrYCHmX0ePZKN2zmbMgAACA7LJSTXWNNm7cqC5dukQzOIz02bLPtH79eg0ePFgFhQVyLrFBhfM3AICo2AAAAHnk6Wee1q233abOnTrrl1f/Ut/85n7yzst7L5MYXJkKNLgoBgAAaBWKS4pVXFKc+ryutl6TJ0/WSy+/pO8c+x39+OQfq0+fPtEmFQAAlG7EAAAAkPOGDh2q44//gSZOnKiTTz5Z7cvaS5KssQ17NRNqAAAAZFdmFa2itqHJNlPGSO3atdPSpUs14Ve/0rnn/kxz585tfhUr+X0AAG0KragAAEDOcT666jUmGgZubHQ1652P+jYn7jPGNLzQpVIDAACg1fLyMomTt5qaGk17cZruu+8+WWs1YcIEDR48OKraSAQc3vnofC/9DQAAbQTBBgAAyDnOOcXDULNmvaXNm6s1YvhwlXUoU3RWE10QG0uoAQAAkJMS53B1dXVaunSZqqqqtO+++6qgICbvvNZWrFVtba16dO+hWGEsHXBwrgcAbQbBBgAAyDmhc3rllZc1buw4xcO4br/9Dh1wwBBZG8iaZkINiWADAAAgR/iMk7YGFRlG2ly1WXfddZfmz5+v0aNH67BDD1NBUUGqjRUAoG1gxgYAAMg5zzzztK644grNmTtXBx54kLp3302xWEyBtam2VHKNboQaAAAAuSGxISXZlipzw8rmqs1668239PDDD+uiMRdp0m8nafWq1Vk5TABA9hBsAACAnFNVVaXq6mpddumluu6669S7d2+FoVM8jEeDJ320048sAwAAII94qUvXLho/frwuvfRSVW6s1Guvva7a2rpsHxkAoIXRigoAAOScTVWbtHDhIpWXl6tjxw6ygVW8PpQxkrU23bKAsxwAAICc4xNLVcYk2osapduKJj6vq6nTvHnzVB+P6+CDD1IsiEkmo8oDAJDXCDYAAEDrZSTvpS+//EJhGKprl64qKCxs9nLVJ4aGNxkYDgAAgNyWPL/7inM7L6+amho99NBDqqzcqOOPP169e/dWLBakqnkJPQAgf8SyfQAAAABb4p3XJ598otvvuF0FBQUac+EY9evXr9nHpi5UCTMAAADaHGOM1q5dq+eff14v/eMlvfbaTJ115lk65phjVFhYKMkQbgBAHiHYAAAArda8+fN1069/raeefkojR45UdU21QhcqsEG2Dw0AAAAtZVs2rhipa9eu+q//+i8ZYzTthWlaunSpjjjiCBUWFspxDgkAeYVgAwAAtFqPPvKInnn2GX3ryG/p2muu1cCBAxXEAsll+8gAAADQqjipuLhY3zryWxo8eLCmPDhF/Qf0V3FJsaRoDpts+uHeUb0BALmMGRsAAKDVmjtvrp54/AmdcMIJOvDgA6P+yM6nh4MDAAAACT4aphENF6+rk7VWxhgFQUxhGNe0adNUWFioww8/XMXFxbQwBYAcRrABAABap0ZDwJ13siax046KDQAAADSSDDZCFyoWiykMw6hSQ9LHH3+sc889V5988i+dc/bZOv/887X7HrungpBU9YYRgQcA5IBg7HVjx2b7IAAAQNvgJcl7mcBE1Rfey/kopajcWKknnnhCc+fNVd++fVVYWNQg2zDGiG4BAAAA2BIjI2NMKsywxspYI++8vPfatKlKCxZ8qKefeUaVGzfqoIMOUoeOHeSckzFGxmaEGwCAVo0ZGwAAoMUYSd6Y9C44IwVBoLVr1mry5Mm69dbb9M1v7qf9999f++67r4yxDb8Bu+cAAACwHZJtTHfrvpsuuOACHTJ0qCb/abL2229fdenSORFiGDnnouHijaqGAQCtE8EGAABoUUZKt5ayVrU1tfrjH/+oSbdNUmFRoU466ST17duPORoAAADYKZJtpjp0LNPIkSO13377KYgFKiktURgPFYah5s+fr549e6pHjx5R5QYtqQCgVSPYAAAALcNEN++8jDWyiqoxgiCmvfbaS/3K++m8887T6aefnrqQ9N6n+x0DAAAA2ym1WSYxS8PGrHbrvlvq60EQ6NNPP9WVV14pSbr44kt05JFHqH379tFjCDcAoFVieDgAAGgRXl7eK9G/WOngwhhVb67WsmXL1K+8nwqLCuXDxBwOhoQDAABgZzLROai8UpUZH334kcZdP04vvDBN7dqV6vLLLte5P/uZSktL2GQDAK0UFRsAAGCX8YqCC++jLXI2UbXx0YKPFASByvuVR20A2pVo0D6D5EInucRFJlsvAAAAsBMlAw0ZpaoxwjDU3gMH6sYbb9SIESP01JNPKYgFisWC1HkslRsA0PpQsQEAAHa+ZMW/T81jlCS50GnGqzN0/fXXa/fd99AN48ervLy8wTyNzDCEHXIAAABoSXPnzVXnzp3Vq1cvyUj1tfVauWqlunXtptL2pVQUA0ArYbN9AAAAIA8ltk0YGwUVMlJtba1emPaCrrvuOr3//mx169ZVhYWFCl3Y4KlG0Y44Qg0AAAC0KCPtu+++6tmzZ/S5lz7+5BNdc821mvTbSVr40cIm564AgOwg2AAAADtXot2Ucy7xqUnM05Bmz56juXPn6tRTT9E111yjPXr2TFVneOr7AQAAkEXee1kbKAiC6PzUey1c+JFeeOF5/epXv9L555+vxx97XM5TtgEA2caMDQAAsPMZyVqr6Jov6mVcXFKkUaNGqby8n4477jh16NghPUCc6gwAAAC0AkaKqodNNFj8+9//gcrKOui2227T7Pff18effCznnGzMyoVONrDRk5J7dNirAwAtghkbAABgp0pWXhhrtHZNhYqKCtW+rL1c6FLDF5O36IGiVzEAAABan0QlsiQtXbxUb7/9tkYcOkI9e/aUtVGwUV1TrdLS0sTD2awDAC2FYAMAAHw9yQu+jF1qXtLy5Z/p9tvvUI8ePXTuueeopLhEBQUFct4piAXpMCPzuQAAAEAr4H00J87YKKxwcacwDGWsUawgaoCybOkyTZ06VQcecKAOP/xwlZSURJt8EhUfPrnkZqLQI7UBiAAEAL42ZmwAAIAdl7GLLXnxJyMtWbJYN998i+699x499+yzWrlipQqLCmWsURAEUZDROBABAAAAWgljTBRGuERQYY1isVi66ljSrLdm6cYbb9SFYy7UbbfdpoWLFsq7xOw4k/geNgo4nHfpoAMA8LURbAAAgB3mvaIWU86nLvLq6uo0ZcpD+vOf/6R99tlHv7z6avXu0ye6kPNqegMAAABaqQbVFckPE+exBw89WL/85S8Vi8V044QJev7vz8vLp+duJG42sLLGygY2UbkBAPi6aEUFAAB2iFc6zEjuPjPWSE568R8v6sknn9Q555yjAw44QMmrwOaK7jN3vQEAAACtjok29Eg+cd5rZAMjF3eqqanRnLlzdf/99+uqq65Sv359U8+RFG0Aso3Od51Ss+cAADuGYAMAAOyYjFZStbW1stZGMzSckzFGdXV1KiyM2k+F8VDGGFlDsSgAAAByTJNgI6rC8KGXCaJwoqa6VkVFhVFY4aUVK1Zoztw52v+b+2uPnj1lk+FGRuCRnMUBANh+rC4AAIAdk9gaUVVVpb///Xm9+eabqqutS/USLiouSocaii7wQhcqdC51c95Rig8AAIAcYhq2p0qczBYnzn2Td/1z5kxdfvnluvDCC/XUU09q1apVcqFLPd5YEw0Yj74lAGA7EWwAAIAdVrVpsx577DFdffXVuvaaa7Vi5YpUiJEUBIFszMpYK2utrDWpmzGW6zgAAAC0elGxspHJqFo2JhoMHrWWSlRhKGrZOmBAfw0deohefPFFXfm/V+rVV1+NhopHD4hYiYINANgxsWwfAAAAyF1/eeABTbx1otauXasf/egkdencJdo24RRdsGUMWIwu2rZw5UbZBgAAAFqrVB7RzEmrT8+e8xmPPeiggzRx4i06+OCD9Morr2jPPfdU6lw4EYx476NNQVbbV7XhxfkzgDaPGRsAAGCH3XTTTZry0BRdeOGF+slPTldJaXF0h8vucQEAAAA7W2rfTsbmnS1K9EgJ406rVq1U165dVVwcnSuvXLlSixcv1kEHHqTi5Pnz9h4Iq3kA2jiCDQAAsMMq1lVo+fLlGjBggIqLiuXlFQQBF1oAAABo20zUmio5dyPZpso5p4kTb9VvJ03SaT85TWeffbb69x+QaNNqUhUg1tgtV3Fwrg0AzNgAAADbJnShlixdotWrVyt0oZz36tK5i/bff3+VtiuVjVkFNhBbJgAAANDmJWZwyEtyajBwvGvXLuq2WzfdfdfdumjMRZo9e3YUfPhoqLi1NtWuqslNSg78YOg4gDaNGRsAAGCrQhdq1qxZuuuuu9S/f39dcskl6tSxUzQsMXmZlthdJi950/DiDQAAAGjrjKLQ4sc//rH22WcfTZkyRatXf6FYECgo2IaqZ9PofRIbiwC0QQQbAABgq1577TX95je/0Usvvawfnnii6urqZIJoB5pzLqrSSDQdNjINB4cDAAAALcDLt/rNNd57lXUo04gRIzRw4ECtX79e5f3KozuNVFNdq02bNqpr165RG6ttkfkwQg4AbQQzNgAAwFadc+45evTRR3XCCSfo5t/crB579Iju8FG/4NRFJJUaAAAAyKaMqoZke6dcYAIj77ymPDhFzz77rEadMkpHH320yjqUyYc+2lQkSU5y3ssa07TBvJfC0Mls4XTcGMO5eluQbGMG5DkqNgAAwFadccYZGjRwkE497VT12L1HavihMYYLJAAAAGSfafrxNlc8tALeeW3atEkfLVyoV155RTNfm6nvfe/7+sUvrlKfvn3SD7SSzfzNJiqlk4PKg9g2jNNl0Tv/JX9E+LNGHqNiAwAAbFU8DCV5BUEgI0OnKQAAALQaXl5h6OTCUM67xBy43LR69WpNnTpV9913nyoqKvT0U0/rkGGHqL6uPtpQZKONRcnfo7VBqkLD2q8ONTL/v+Ty/yN8tcAGCmJB0yH0kpx3MsZyLYe8QLABAABS4mGoNV9+qb/97W/q3bu3vjVypGKxQFJGiyl6+AIAACCbTHQL46GMMdqwoVILF36kd999T2++8YYWL1msyspKhaGTTQQBubMtJwppPvvsM9XX1WnA3gMUBIGccw0eZY2VsSbVFlaSgiCQdz4xA883OVU3qV+QzwYPHqwjjjhCw4YNV7++fdW1W1dZkw45UpVMXMshxxFsAADQFjXuu5o4t12yeInuufceTZ78Jx191FGaNGmSunXvJrloJ1zyOWZLjXsBAACAXcTLp85DwzBUbW2t3nprlp577lm9OuNVLVm6VBUVa+W828p3yh9RNTVLe0iLBTGVtS9Tn759NHLkSJ14wokaNnyYiouKo1CjURUHkKsINgAAaIu2EGxccP4FeviRh9Wvbz/dfPPNOvyIw1VQUNDkpJdgAwAAANngfTRLYsOGDXr8scc1+U+TNfv92dpUVSVrTVSt0EytQq6dvXp5BSZIzbTz8on2UdHvJKq+MIqH9QpsIGOsvHeK9iJteamPFlT5zSgdXASxQEEQ0wFDhugnp/9EZ5xxhso6lBFqIG8wPBwAgLYms/Vu8grPSfX19dp9j901bNgwjR07TiOGD5fU9MKIUAMAAADZ4r1XXW2dHnroId1www1auXJlNDdARs5F5625F2M0ZWSiypOtLEBHv28nqe1UqWDLvHwq3HChUzxeo7ffeVuLFy+W915nn322iotL8uBvCEDFBgAAbU+yxbCPTnattalh4FWbN2v1qlXq1buXCmIFDZ7mE7/mw4UiAAAAckjG6WcYhpo+fYbGjLlQCz5akLib81MgU2aLMmOikGzQwEG66aab9P3vf19BEM1RpHIDucxu/SEAACAfRAMEE3MynFRbW6cPP/xQq1avluQlK5WWlqi8f7lisaZFnVEewkUjAAAAsmfDhg36wx/u00cffaRYEJOVTbVrAhDxqW1pkkvsaf/Xvz7VlClTtGzZsiweGbDzEGwAANBGeEnOOYUuVHVNtf7+979p9OjRuvXWiVq3bp3kE8GFJ8AAAABAK5FcuUqUGL/5xpt69dVXo6pjn1i+9cyOAJpjUu+jeSxvvvmm5s2dF32RvzLIcQQbAAC0AV5e1hgFQaB4PK4///nPuvba67Tss8+0e4/dZa1N9SQGAAAAWo1kz1Qj1dXWafr06VqzZo2cc4nZEv4rh2UDbV2iC7Ekac2Xa/TWW29p8+bNiva08XcHuYvh4QAAtAHJAXIyUjwe6q/P/VWVGzZo3LhxOu20U9W+rH1qpxvVGgAAAGg1ksGGpE2bNmnBRx+prq6uwYIs56/AVzOJXzfXbNbCRQu1ceNGlZaWyjmnwAZZPjpgxxBsAACQr4zkveRcqCCWPllt175Ut912m9559x2deOIPVVRYmNrCw0UhAAAAWh0f3aqqNmvt2jXy8g2GIwPYuuTfm+XLP1ddXZ0kMZsGOY1gAwCAPGYUVWFsWL9BQRBTu3alMtaof//+Ki8vl5Q4wfWc0AIAAKCVSlQW19RUq7Y2vSDLXA1g+3h51dfVKV4fl4xkDFMKkLv46QUAIF95SVZauHChJkyYoCeffEJVVVXRfUYy1jRsuAoAAAC0QtGQcK/6+noF1srKcg4LbCeTeJOR4mEYfY39bchhBBsAAOQTI0XXeV7OOb3/3vu67trrNPGWiXrzjTdVXV2dKuVPXQxyMgsAAIBWzDf42EtGcnJZOx4gFyXbDtdU14hkEPmAVlQAAOSTxHBFY43WrFmjG264Qf/4xz806pRTdP7556tL5y4NHs5MDQAAAOQSn2hLBWD7JMPAouLiLB8JsHMQbAAAdg7Wx1sPLznn1KVLVx133HHq0b2HrvrFVerVu5fkovtso16qXr5NbtphWB4AAECu8QwNB74GLoGQLwg2gHzCixOyhTkN2ZP5995L9fX1KigokDFGzjn99Kc/1VlnjZa1JjVzwyY7UWa2owIAAAAA5D+uAZEnCDaAXNY4yCDYQEvzGe+9mu6c4oSpRXh5WWv1xRdf6J///KcGDhykfQYPlg2spEDGmKgyYQv/RrT1HW/eR32aacsFAAAAAEBuYHg4kKtMMzcgWxLr4ibxJpmo9624tcRNiuZp/N///U7//d//rT/+4Q9as3aNvPfy3ss5Lxc6uXjiFkY376L7o/mLJhWAtKVb5s+w9z41jJJ/UwEAAAAAaL2o2ABaCeecrLVR3OikeBhPLTg2NxiNvvDItmZ/Btn13qKMtbLWaNWqVZo0aZLuu+8+derUScNHDFf79u1ljJUxSv1bIiXepT5Ol9x4l4XfQJYZI1ljo59lq8RsEi+T+BgAAAAAALROBBtANmXMJbDWqra2Vos+XqTXX39d8+fP1/p16xW6UN5LahRuGLuTFo+bax8EbAOjLbU2IthoSd57Vaxdq3fefUcV6ypUXFyshx9+RM8884y89zIyyhwMnvn3vUEI1Ub/2MrKylTer1wjDh2hgw8eqrIO7eWdJzwGAAAAAKAVI9gAWok1a9bogQce0L333qvFSxarrq4uGv7rme6LXJFeJqdqY9dzalpiEdhAn6/4XJ8//aSkpn8OhJhNWWMVBIE6dOiobx9zjC67/DINHTo0FfryswwAAIDWrPlzfM5iAeQ/gg0g24y05ss1umXiRN15xx2qqq5KnYJEu60TD2r8tK+zm5gqDexi/Hztes1dqjjnvvIShsubhry8nI/mjqytWKOpj0zV559/rt/85jcacegIGZ/4/5VRXQcAAABk29avt7giy2VctwHbhmADyCYjxevjenDKg7rrrjsbhBpbE83dMNqRfINTHABovqLlrVmz9Nvbf6s9eu6hPn37ZE5oBwAAQEtq3DXVm8RHJt1uVW1zETjz9/9Vj0Hu8Yk3/vyArbPZPgCgrZs7d67uvPNObaratAMvXF7eN7xt9Rnb8BgAaEustakquLr6Wr30j5c0ffp01dbUtdnZIwAAAFmXzjFS8/1M4pY8SWuLi7/RvpttuPbnLSffGv75Nf0zBZBGxQaQZS+/9LKWLFka7TkxRs5HffN39ARta8EFL4TYVdriRQXyg/dRez8rK+ed1qxdo6eeekpHHnmk+vXrl+3DAwAAwC7WoUMHde7cWdbkxv7f5q/q01+NNu1wfZazEus6oQtVtalK69evV9zFo7tENQeQRLABZFFtda1mz5mjeFgvI6t0JsGLFAC0FO+dkkWs1kThxpw5c/TFF1+oT58+OXOBCwAAgB0z6uRRGn32aMWCmFxOdDmIWlM3/VrSjrWtRuvhvVddXZ0ee+wx3X3X3algA0AawQaQRatWr9bKlSsT/TFdolNoslfmzj8LoVoDAJrnvUu1o7LGat26dVqyeIkOPPAgFRYQbAAAAOSz3bp315AhQ1RUXJTtQ/l6kpf8hBp5oXpztWbOnClj063X/C5bMQJyD8EGkAVeXsYaVVSsVUXF2lTgkBgHzgsUAGRRcnfU8s8/l3OhpIJsHxIAAAB2Ie+dnHPNF0IkuZY8oq+JPY15wTkn77wCGzS6h2gDkAg2gKxIRheVlZXasKEy9bXkQLScqHwFgDyTOaMoHo/riy++kAtz6QoWAAAAQF4w0awU730UukkZHT4ASAQbQMsz0eKZkVFNTY1qaqoz7kv3wdzaEPCddTBk/ADQlAudNm3a2EL/FgMAACBbtumqmFNCZIn3PrWGJCN+FoEMBBtAFjnnFIahpMT8i128gEaMAQDbxnmn+vr6bB8GAAAAdimT2hnfhBeLyMgyw48h8BUINoAscs6lSgojnjZUANAKeO+jYIM8GAAAIG+ZBh8n2yeo4Xsgq4g2gC2x2T4AoC3zPt2WShK9EgGglfDyjYJnAAAA5J3mNrGwjoxWxO/65h5AziLYAAAAAAAAAAAAOYNgAwAAAAAAAK2LT9+imZSZu9d94iFsZQeAtooZGwAkbWFYGrAdPPWxAAAAAHaWjMuLdJgR3TIDDa90e2cAQNtBsAHkiSAIFA/jaq5JqEmc5vlm9rPYxgPSgB1h0rulkhcVhGXIBgI2AAAAAADyH8EGkAeMsYlQQ2ouoWgu0EhyJBrYGTJ3UyXLwllgRhYENmDoNwAAALYDG7IAIBcRbAB5wPlQRYVF2nvA3urUuVOT+41MtKM+oxdp5teBr8s5L++dnPOqr6+TMUbGWFG0gZb23nvvZfsQAAAAkEO4ZgGA3ESwAeSJ4qJiXT9+vI799rcVj8dlAytrrbz3DXbOe+8b7K43lrM47ARecj4KN4IgkCSFYZj62Uu2paI9FXYq33RgZPfu3VMfG2OaBLoAAABAY1ynAEDuIdgA8oUxKi0tUbuydtk+ErR1TlElENcGyAIuSgEAALDd2AcDADmHYAPIGz7dV96r4aKyV+pErfHcAxYBsdMkwoxkVRDVQNjlmqnYMCRqAAAAAADkPYINAMDX1qTFWTIwaxywATuTkYw3Tb4GAAAAAADyG8EGAGDX8+n3vsEXgK+hmYoNAAAAAACQ/wg2AAC7lm/8noVo7Bxenh8nAAAAAADaIIINAMDX1uyslozZLlt9LLCD+GkCAAAAAKDtsdk+AAAAAAAAAAAAgG1FsAEAAAAAAAAAAHIGwQYAAAAAAAAAAMgZBBsAAAAAAAAAACBnEGwAAAAAAAAAAICcEcv2AQDYhXzilsEYk5VDAQAAAAAAAICdgYoNIG8QWAAAAAAAAADIfwQbQJ7ILMTw3jep1AAAAAAAAACAfECwAeQBs6VqDcINAAAAAAAAAHmGYAPIV4QaAAAAAAAAAPIQwQaQJxpUbRBqAAAAAAAAAMhTBBsAAAAAAAAAACBnEGwAAAAAAAAAAICcQbABAAAAAAAAAAByBsEGAAAAAAAAAADIGQQbAAAAAAAAAAAgZxBsAAAAAAAAAACAnEGwAQAAAABOTag2AAAgAElEQVQAAAAAcgbBBgAAAAAAAAAAyBkEGwAAAAAAAAAAIGcQbAAAAAAAAAAAgJxBsAEAAAAAAAAAAHIGwQYAAAAAAAAAAMgZBBsAAAAAAAAAACBnEGwAAAAAAAAAAICcQbABAAAAAAAAAAByBsEGAAAAAAAAAADIGQQbAAAAAAAAAAAgZxBsAAAAAAAAAACAnEGwAQAAAAAAAAAAcgbBBgAAAAAAAAAAyBkEGwAAAAAAAAAAIGcQbAAAAAAAAAAAgJxBsAEAAAAAAAAAAHIGwQYAAAAAAAAAAMgZBBsAAAAAAAAAACBnEGwAAAAAAAAAAICcQbABAAAAAAAAAAByBsEGAAAAAAAAAADIGQQbAAAAAAAAAAAgZxBsAAAAAAAAAACAnEGwAQAAAAAAAAAAcgbBBgAAAAAAAAAAyBkEGwAAAAAAAAAAIGcQbAAAAAAAAAAAgJxBsAEAAPD/2bvT6Liu88z3z97nVGEeSIIEOBMDZ1IkLUqyBouSKEu05EGWnMGJbbm9bifpuH37U5z7sXt5rSSr78pNrxU7difp3MSxHHciy7Ss2aRE2YokUpRMihNAihPAAQRIAiDGGs7Z/eFUFQoDB1GgwAL+Py4CZOGg6tQA1Dn72ft9AQAAAABAwSDYAAAAAAAAAAAABYNgAwAAAAAAAAAAFAyCDQAAAAAAAAAAUDAINgAAAAAAAAAAQMEg2AAAAAAAAAAAAAWDYAMAAAAAAAAAABQMgg0AAAAAAAAAAFAwCDYAAAAAAAAAAEDBINgAAAAAAAAAAAAFw5/sHQAAALgeRkYykpMk5y6z1eUuBwAAAAAAhYoVGwAAoKCZ/P+QYwAAAAAAMOURbAAAgMKXSTccyQYAAAAAAFMewQYAAJgS3GXLUQEAAAAAgKmEYAMAAAAAAAAAABQMgg0AADB1uJHlqFzmDwAAAAAAmDr8yd4BAACADy2/Yzi5BQAAAAAA0worNgAAQGEyGhlwAAAAAACAaYFgAwAAFDbCDQAAAAAAphWCDQAAAAAAAAAAUDAINgAAAAAAAAAAQMEg2AAAAAAAAAAAAAWDYAMAAAAAAAAAABQMgg0AADCF0VkcAAAAAICpxp/sHQAAALguoa6aW5i8jwAAAAAAYGpgxQYAACg87uqbGAINAAAAAACmJIINAABQuK4UcJBrAAAAAAAwJVGKCgAAFCQnFwUb44QbrNYAAAAAAGDqYsUGAAAAAAAAAAAoGAQbAAAAAAAAAACgYBBsAAAAAAAAAACAgkGwAQAAAAAAAAAACgbBBgAAAAAAAAAAKBgEGwAAAAAAAAAAoGAQbAAAAAAAAAAAgIJBsAEAAAAAAAAAAAqGP9k7AAAAcD2MjGSifzs5yY3awGUuz24LAAAAAACmBIINAABQePJzitGBRu7iy3wBAAAAAAAUNEpRAQCAwmTy/o7ich8AAAAAAMBUQ7ABAACmIFINAAAAAACmKoINAAAAAAAAAABQMAg2AAAAAAAAAABAwSDYAAAAAAAAAAAABYNgAwAAAAAAAAAAFAyCDQAAAAAAAAAAUDAINgAAAAAAAAAAQMEg2AAAAAAAAAAAAAWDYAMAAAAAAAAAABQMgg0AAAAAAAAAAFAwCDYAAAAAAAAAAEDBINgAAAAAAAAAAAAFg2ADAAAAAAAAAAAUDIINAAAAAAAAAABQMAg2AAAAAAAAAABAwSDYAAAAAAAAAAAABYNgAwAAAAAAAAAAFAyCDQAAAAAAAAAAUDAINgAAAAAAAAAAQMEg2AAAAAAAAAAAAAWDYAMAAAAAAAAAABQMgg0AAAAAAAAAAFAwCDYAAAAAAAAAAEDBINgAAAAAAAAAAAAFg2ADAAAAAAAAAAAUDIINAAAAAAAAAABQMAg2AAAAAAAAAABAwSDYAAAAAAAAAAAABYNgAwAAAAAAAAAAFAyCDQAAAAAAAAAAUDAINgAAAAAAAAAAQMEg2AAAAAAAAAAAAAWDYAMAAAAAAAAAABQMgg0AAAAAAAAAAFAwCDYAAAAAAAAAAEDBINgAAAAAAAAAAAAFg2ADAAAAAAAAAAAUDIINAAAAAAAAAABQMAg2AAAAAAAAAABAwSDYAAAAAAAAAAAABYNgAwAAAAAAAAAAFAyCDQAAAAAAAAAAUDAINgAAAAAAAAAAQMEg2AAAAAAAAAAAAAWDYAMAAAAAAAAAABQMgg0AAAAAAAAAAFAwCDYAAAAAAAAAAEDBINgAAAAAAAAAAAAFg2ADAAAAAAAAAAAUDIINAAAAAAAAAABQMAg2AAAAAAAAAABAwSDYAAAAAAAAAAAABYNgAwAAAAAAAAAAFAyCDQAAAAAAAAAAUDAINgAAAAAAAAAAQMEg2AAAAAAAAAAAAAWDYAMAAAAAAAAAABQMgg0AAAAAAAAAAFAwCDYAAAAAAAAAAEDBINgAAAAAAAAAAAAFg2ADAAAAAAAAAAAUDIINAAAAAAAAAABQMAg2AAAAAAAAAABAwSDYAAAAAAAAAAAABYNgAwAAAAAAAAAAFAyCDQAAAAAAAAAAUDAINgAAAAAAAABgGnByk70LwIQg2AAAAAAAAACAKcoYM/wfcg1MEQQbAAAAAAAAAACgYBBsAAAAAAAAAEABMDJX3yhjvLJTlKLCVEGwAQAAAAAAAADTAbkGpgiCDQAAAAAAAAAoANe64mJ4OzOyxwYwRfiTvQMAAAAAAAAAgBvBSaPLV7nor3PZ/1zZhyl/BXxcCDYAAAAAAAAAYJpwcplw4xrrUpFr4CZEKSoAAAAAAAAAmAbctYYZwE2OYAMAAAAAAAAAChyRBaYTgg0AAAAAAAAAKFDDzcGJNjB9EGwAAAAAAAAAAICCQfNwAAAAAAAAAMBINA3HTYxgAwAAAAAAAACQV9YKuLlRigoAAAAAAAAApjlCDRQSVmwAAAAAAAAAwHRlJEPdKRQYVmwAAAAAAAAAAICCQbABAAAAAAAAANMUqzVQiAg2AAAAAAAAAABAwSDYAAAAAAAAAIBpiIbhKFQEGwAAAAAAAAAAoGAQbAAAAAAAAAAAgIJBsAEAAAAAAAAAAAqGP9k7AOAmQUlFfFRusncAAAAAAAAA0wHBBoDIdQxKO0aykceQjgEAAAAAMCGMJPp6A5dHsAHg+pFrIB8HXAAAAAAATAzDBELgSgg2AFw34/EGizzhZO8AAAAAAABTQN5EUjNm2YYZ9W9mnWJ6ItgAcP147wRwk3FyzGoCAAAAMCWMDjXyz3WMMXKMy2AaI9gApiPG/ABMVRzYAwAAAJgC8kMMJnABYxFsAJPISHLOfeQm3E5OzjkFQRBdrzVy4RWuk4E/TDDnnIw10WyS/GMtJ4VhmHvNjdjGKZpdwhQTXI9xXjbGmMzv0+Hl2B/l4D+VSil3dbr8S9WFoWQka2ymw190eZAOop8NY3IzrcYuIx91HzhZAQAAAHAVVzuvuF7OOXp7oGAQbABZeYNRN/ymMm9AfsyXtd6EXWc8Fs/8h/4X+HiNe9ATSrKS9eyIweG8b1L0o8BrFRPH5aUPHzU09j1/xMvT2PG3M3acL4SS51/H73d61QAAAADTXu68xkhjZ3VxDg1IBBtAThg6WWN04eIFZYdpo8nk0RuIm6BZ5cZE11VcXKxLly4pkRiakOt1curq7lJiMKGBwQHZzEBbdreH99+NHPhjtjwmgDVWxhrJZYIMGRkjGWPlXKgwDKPX2ojZ7y7z+uQ1iIkzkb/TkqmUuru7FQRh9DoOwiuEJdFr3trhIM/zPDnnFIZOzkUrl7Ir7C53NTNnzpyw/QcAAABQ2Fg5AVwewQYgSSYqJfKzrc/qb77/NwqDMDM4mx18zYYb0kcdhM1en+f5On++U8lkSkbmI88sHhoa0n//7/+v/ucP/qes58lak3d70X5nB9Oyt0WmgYlkrcmV3ZGTQhcq5seiMmlhMOJnKVuax2SXbWRKshG04fqZXHA8QdemHTt26Pd+7/dlrY0W9V1mubeTkzE2uv28MoDWs9HrPnQKXSgXZkoPjtpFz/MkY/Twww/rT7/97QnZfwAAAAAF7mOsLAIUIoINIMOzns6ePatt27dNwq1/9HeqocSQ3vvNuxOwLwBQ+D7qzCZjjM51tOtcR/sE7dHVNTY2fGy3BQAAAKDwja42AkwnBBuAJBkpnQ5krJFnfQVhWp7xck24QxcVPf+oqyqimzKyxo4zO/36V21YYxW6UEbZGfCZOyVp9NRg3uxwIxiZqBSVpCAMZI2XXYgh58Yv35P/es2tKqIsFT6iiVqqnfudaqJpUqELcrcw8vaGm4YbY5QORr5/ZNbHRR8v8/vXZH6H+35sQvYdAAAAwDSRTTYm0ng9MoGbEMEGkOHCcMSbgctclj8QNZEDZuO53uvPDRBLeWVOGCDGx8fJ5UrwGJkozMh7CV7utT26LA/1Q3EziX6VOknuiq/N0A2/fxiZ6P/BZTcf95aiUlfXvasAAAAAAEwrdrJ3ALhZGDN6xUThBAOXC0oAANeLmA0AAAAAgJsVwQYg5ZbZUaUJACCx8hoAAAAAgJsZwQaQb3SyQdABAAAAAAAAADcVgg0gw2SKm+fXOKeRMQAAAAAAAADcXAg2AAAAAAAAAABAwSDYAAAAAAAAAAAABcOf7B0AAAAAAAAAAHw8jIxkon/JXG1r4OZEsAEAAAAAAAAA04WR8rON3MWOlAOFg1JUAAAAk8zIyLPeZO8GAAAAAAAFgWADAABgEjknGWtkPQ7LAAAAAAC4FpxBAwAATConIyNrOCwDAACYdJkSPQCAmxs9NoAMY4yKS4oVi8WVDtJyzk32LgEApgEnpyAMVDO7ZrJ3BQAAYFoy1siYvCbK2eGAmzngYMgCwDRHsAFIuYOVsrIylZeXaXBoQNZahWE4ufsFAJgWfN/XokWLJ3s3AAAApikzMsQwoz7fbJzG3zc3+r+kHwCmLoINQJKcZIxVXW2dambVqPN8Jys2AAAfC894Ki4u1rx5cyd7VwAAAKYlY6IqDiMvnJx9uSaX27cxd+FmvhO4EhcMj0kxPAWMj2ADyDBWWlJfr9raWh1qOaTQhRwEAABuOOtZLViwQLNmzprsXQEAAJiWOjs79f7776soXjRilUM27BgTekw2l/3kRlyW/X80EM5oeCHzPE9BEKqnu0dhGEz27gA3JYINQMrNapg5Y4ZWrFyhX7/xawW8cQAAPgbOOW3cuFGLFi+a7F0BAACYln7602e0bds2WWPl5ORc9NcYc/PlAyb7yYxduZEfeIwXfqBg+L6vIAjU092jIIjGpz62yiKje80ANymCDUDK1aesrKrU5gc267nnntOp06fH3czKcGAAjDLuQfVVXOtB2U03OwoYxWTeF7KvaZd5U7GZnwvnXO59Y7yVgNXV1dq8+UGVl5V/nLsNAAAARcdqnZ0d6ug4J2s9GUlBGBTceX/+cabL+4jCZBWFbMYwBgVcDsEGkM9Imx/crM2bH9RTTz0lF4YKXCBrbG5ZZyhHgSpgFCfJuVBS9oA6c1htxg7j5oKKGxSEAB87Y3KFb4dPOrLxhhlxGmKMjbbNBB4xP6Yvfem39MAD98v3OSwDAAD4OI0+x8gv+VPIpalN3sfJ9mEH5Qv5cZ9I2bOJSbpxoCBwBg1Iw7+0jTRjxgx9+0/+RMYYbd26VT093ZlNokBj5JsLb7hAlpGRMdHfIIxCjrwV0MMIKDDVZEI9aXj1hm99BWGgMO9rkhS6zMmyk2rn1Or3f/8r+uY3/1gLFiy4OUsdAAAAAB9B9vj4WrbD5MuGfVROQCEg2ACynHJ1NFesXKH/8T/+Sl/60hN66qmntOO1Hero7FQQphWPxRUGYWZpanj16wWmEefya7kOfwSmAyurMPO+kA7TucuzJ2lOTtZYVVVV6XOf/Zy++tWvauPGjaqeUR193RGXAwAAYOq5WrhBqHF1H8tjxOk7CgzBBjBK9g23srJKj372UX36059WX2+f9u3fp+ZDzTp37pwGBgaUSCaUSqUlOd6EMe1l+wsYYxSGYbRy4zr6bgCFKHrdO7kwlLGZEMNFq/visZjiRXEVFRVp4cKFWrNmrVYsX67yinL5ni9rbd71iJMJAAAAFJDoADYWi6moqEizZs1SaWmpjIz6B/p14cIF9fb1yrOegrwyX7hWk1iOCigABBtAntxArMv0CwiMYn5MM2bM0KZNm7Tpvk3DG2dWeBjD4C0gafhnwhqOvzD9hFLoQqXTgTzPyvO9EWUOR2wahJJTLgQZ8XWCDQAAABQIz7MqLS3Vhg0bdP/99+vWW2/VnDlzZK1VR0eHdr+zWy+8+IL27tmrIEmw8VG4Gz2plvMQFCCCDWAcUS3BKOHI1RV0yjUQz4YZ2XroLnAfuiEWMBVlf14oqYPpxil63cd8X2EYjgn3gnR0ImdNtELDWMvPCAAAAApOtu+okVRaWqonHn9Cf/CHf6Bbblmn0rKS4e1C6cEHH9TmzZv119/9az399NPjrtqgAsZNhGEtFBiCDeAyjJSpC6IRv9yNTC7kyF2WLbsDQAozPz8cFGEaMZK8TFkpz/PGvE941svbdvQSjhu/fwAAAMDEcfI8Xw8++KD+7//yX7RmzWr5nj/iuNZIisfiuvueu1U9Y4YGB4f03HO/iHqbUtL7GpmoKsKYx8rJjTrfNsbkGn9PwM0CBcFefRNgGhs1MAUAAAAAADBdZQfZ58+fr//wH76hW25Ze8XtnXNavXqVvvWtb2nBgoUfxy4CmCYINgAAAAAAAHDTiopFj62ogI9ftgz30qVLdccdt8t6Vr5/hYIwmRKtt99+mz772Uej1c0AMAEINgAAAAAAAHDzMpKxRmEQKnTU8ZxcRtZYrVy5UhUVFWN6y42zuaSoH8ctt6xTWVnZx7GTU4Qb518TcK0TVbIKmGQEGwAAAAAAALhpOeckI/kxX7FYbLJ3Z1ozinrKzZlTO/xcXG6c3EQrbVzoZK1VZWWFSkpKR/Sfw7WZiLYX2VVPxBqYKgg2AAAAAAAAcNMKw1AudCouLlZJSamsYThrslhr5UKn3t5L1/Y82OHnb3BgUOlU6sbvJMZljJGRVV1dbXSBY/UGChvvBAAAAAAAALhp2cwM/4qKStXWzmHG/yRyTkqHae3bt18DAwNy2VJUVsOjjCbzNzNmbq1VIpnUwYMH1dvbqzCknNikcJLnWS1atFgzZ8yMLgoJNlC4CDYAAAAAAABw07KekbFG5eVlmjt3bq7EET5+2R4nzc2HtH///ijpGPV1F7rh3huZDKOlpUWvvvqqEqmEXOYPPmYmKiNWV1ur8oryq/dHAW5yBBsAAAAAAAC4OeUNvBbFi7RixQoVF5cQbEwSz1gZGbWfbdePnvqRzp49mwsysn3dQ+eGAw4rdXV16e/+7m+1b98+yohNotCFKi4uVlNTk3zflyRZj+cDhYtXLwAAAAAAAG5eLvvJ6Y47PqnFixcpFOWMJouRUSKZ0E9/+lP9w///D2pra1MQBAqDQNZYWWtkjVUQBjrVdkrf+9739OMf/zgKOzIrPAimJkf9knotX7FC1lpWa6Dg+ZO9AwAAAAAAAMAVZcKNhoZ6ffrTD+mDDz7QUGJocvdpGgpdmGlCbXS2/ay++93v6siRI/rsZz+rVatWq6KiXNZY9VzqUUtLi7Zu3aoXX3hRfX19NKqeZOWl5frUvZ9SU1OjjDG5nykCDhQq4wJ+qwAAAAAAAODm5uTkQqf33ntP3/zmN7Vr9y5Jl5/9b6JmHFPSZIcExhiFLpRnPfm+r1mzZqmhoUGLFi1SGIY6c/qMTraeVGdnp5LJpNJBmlUaN5AxRs5FvUuyj3O2j4mRkbVWa9as1V/91f+n+++7f0Rzd9nMv13mdUUPGxQIgg0AAAAAAADc9LIDt5L046d+rD/59rfVfu6sJMkznmSkIAwkRQOzU3nAy+jKg88fd3Nul/fxahg0n3jR63042MgGT1nz583Xd77zHf3u7/yuSspKRCU3TAWUogIAAAAAAMDNz0gudPJ8T198/ItKJBL63t98TwcPHlQimZCccs2poxUNUzvaiMKLy4UEH294kL218QKOsUEGwcaEy5SWihZiuNyKntKSUjXUN+gP/+gPh0MNYIpgxQYAAAAAAABuek5OYRj1eLCeVV9vv3bufFtbt/5cO157TUc+OBIFHMA0F/NjWrhwkT796Qf15S9/WXfeeafi8bgk0cAdUwbBBgAAAAAAAAqCc06hC2WtlbHRLPXurm7temeXdu7cqcMth9V+rl0DAwOTvas3lAsvX/zJ5PdIyPw7W8brRo8CXm6onMHHG8w5Wc/K8zwtXLhQK1eu1Lp167Rx40bV1tbKWpvrq+FC+mhgaiDYAAAAAAAAQMGIBukla4ebg4dBqN7ePvX0dKu/r1/JVHJS9/GGcsoLKcYO6xmT6cCRN3h9o4MNk/mQH6iM2OXsDTtCjhvBGiNjjTzPU0V5hWbMnKnS0tLocm/4yXChJOcyrxGgsBFsAAAAAAAAoPCM17ohb5Qru6phKnKXG87LhAvGmGyH8cw3ZL7nRj0kRsOD5aOfFzf82ZFsTDhjjGQlOSkIglyptuj1b5RpO5P7eWClBqYKgg0AAAAAAAAAAFAw7GTvAAAAAAAAAAAAwLUi2AAAAAAAAAAAAAWDYAMAAAAAAAAAABQMf7J3AAAwxV2uL1mhdHjKNiAc1YjwitvnK5T7CQAAAAAAUCBYsQEAE8lozMB2Op2elF0Zj5OTc9c40j5OIDHmvmTfRS4XXuRfV/7fq92mifb1mlzttq9lvySFLoweGyMFYXh9+wIAAAAAAIAbjhUbAHAjWOmdXe/ozTff1EMPPayVq1bIhdHguLFGCiUZKZVKqae7R8dPHFdzc7NSqZQWLFigJYuXaMGCBSotK73mVQJhGOrC+QtqbWvVkSNH1HWxSwsWLtTiRYs0f/58zZw1U8aYXLhhzDUkAlaSk3a/s1tv73xbn9nyGTU2No657WwI0N7erra2Nu3fv1+JREKLFi3SkiVLNG/efFVWVsh6duT3uOHv7brYpVdeeUVhEOqhhx/WzJkzruGOSy50MtYolUrp7Nmzamtr09EPjiqdTmvBwgVqamzSvHnzVFxSHG2bd79zj4OVei706BfP/UIV5RV69NFH5XnxzEbD9zOVSimRSOjUqVM6dOiQWltbNXPGTDU2NmpJ/RLV1MyW73nD9xMAAAAAAAATjmADACaSkVzg1H6uXc8995za2k5p/br1WrlqxfAGkmSlMAi1a9c7ev755/XBB0fkeZ486ymRSKh6RrXuuusuPfrIo5ozZ85Vb9aFTgcOHNBzv3hOe/bukTFGvucrHaRVUlKi1atW6/EnHldDY4OMzDWt2giDUMZaXbhwXq//6ld6Z9cubdiwYTjYyM9FnPT222/r5ZdfVnNzc+6yIAxUWlqqu+66S1987IuaXTt7RJiR/exCp/379+vll15Wzewa3X3P3ZpVMzMKgK4iCAMN9A7o9ddf1/bt29XR2SHf9xUEgZxzqplVo7vvvlv3P3C/Zs8e+1g65yQn7dm7Ry+88IJWrVqlh7c8rLjiuW2MicKotrZTeuWVl7Vz504NDg7KWqsgCGSMUWNjo7Zs+YzuuvPOMY8NAAAAAAAAJg7BBgB8VNlBbCcN9A/o1KlTeuWVV9TScljxeFxBGESD/EEg3/MVBk7WGh0/flxPP/1vOnnipJYvX66NGzeqorJCH3zwgfbs2aNt27YpFovrK7//+3JyMleouXTmzBn967/+q/bv269FixfpzjvvVF1tnY58cETvvvuudr/7ruJFRfra176q6hnV13S3+vr71NnRqdd2vKYD+/dH5Zkud/unz+iH//RDdXZ2qqGhQXfedadKSkp14vhxvfHGG/rVr36l8vJyfemJL8mP+TLGKp1OKZlMKplI6sDBA3r++ec1MDAQPZTXWi5Lku/7evOtt/RvT/+bnJM+8YlbtXr1Kvm+r4MHDurtnW9r68+3qrikWI985hHF4rFc2DAwMKju7m4dPtyiZ555RqlUStZajbh5k912QK+9+qp+9atfq6KiXHfddbeamhrV03NJu3e/oyNHjuiZn/5UNTWztGLFimhlTvb7CTcAAAAAAFNIfjWI/PGKbCnnK41hABOBYAMAJkBPT4+e/fmzOtl6Uh0dHTp79qyCIFBRUVxhGPVusNaTk1MQpJVIpPX22zt1+PBhrVyxUl//+te1fMVyyUh33XmXykrL9NJLL+nXv/6Vbrtto5qalsrzTG6A3Dmn0Dl5npWctPf9vTp48KBqa2v127/927r9ttsVK4pp420bNXv2bD3z02e0e/c72rRpUxRsXOb4wkm6cOG8tm/fruPHjutse7va2loV82My+QP0eSst+vv79fNnf67zF85r8ZLF+vLvfVmrVq1WvCimZCKpisoKPfvss3r99dd1+223q2lZk+Sk5uYWvb5jhzo6O9Ta2qre3t5cmagPcwB04cIF7dq1UwP9A9q4caN+53d+W3V1dYrFY1q7dq0GBge0+53d2vObPfrkHZ/UnNpaSU47d+7U22+/rXPt53S2vV2XenpkrFEQhHIulJxGBEod5zq0d+9eORfqsS88pnvvvVdlFWVSKK1Yvlx/9/d/p5MnT+rQoUNa2rRUnufJeIZgAwAAAAAwJTnnFASBrM2UY3aSsVbXUvka+KgoAg4AE6Cvr1/NLS06cuSIei/1qqK8Qr4fk5FRLBaXsUbWi0pAxWIxXbx4Uc3NzSouKtbtd9yuxqbGaEA9dCqvLNe9996refPnqaenR0ePHlMQBCPCCKfhXhGpdFq7d++WtZ423rZRt9xyi2JFMblQKisr0623blR9Q70u9VzS++/vVSqZkrFm/IbYzmlwcFCHWw6ruaVZfX29qqiokJNTmN9QW4rKboVO/X39am1tUxCEWrv2Fq1YsUKe5ykMQsWL4rrvvvvU0NCozs5OHTx4MFeK6tKlHoNwWXcAACAASURBVLUcbtGZM2fkeZ7Kysoysz2sjLXXHAacPn1aZ8+cVbworvsfuF/z589XLBbd/7q5dXpw84MqLinW2fazOtdxTkGQVpAO1N7ervfff1/nL1xQcXGRqqqr5Pu+rI2ep/ybD9KBunu6NTg4qMrKSi1dtlRl5WVR3xQr1TfUa+bMWdF2Xd3R8yXl+qowUQUAAAAAUOhcdiTBDE9ITCaTMsbkxgzCTNUK5vfhRmPFBgB8VE6aNXOm/uN//L80NDgkY43SqbT+/n/9vS5cuBDN/peUTqWjd3Yn9ff3q+PcOZWVl2nZsmXyY76CVBCVQAqk+Qvma87sOTpx4oQ6OzujA4Q81thcY+9kMqHTp08rFvNVX1+visoKSZKxkmRUWztHTY1Nen/v+2pvb1c6nVYsHsv12shvpm08o9k1s/WVr35VqWRSMtG+PvPMMzpy5EhmI40YqO/q7lZv7yWVl5epoaFexSXFkqIeHelUWnV1dVq8eLEOHNiv1tZWJRIJFRUXafXqNfrP3/zPMtbK86wOHjykf/iH/zXcVzy8tgbnQTpQOkhrzpw5Wrp0aa5xd3aFSWVVpSorK6OeIcbIWitrre655x6tXLlS1lp5nqd3d7+rn/zvn0QN1p0bsdDC8zwZRd87NDikCxcuqKmpKSo3lXk+E0NDcnIqKi6ODvKsUTqdlm94qwUAAAAATAFOknFSJshIpVIKgkD9ff1qbmnW0qVL5fsxFRUVKRbzSTdwQzHaAgAToKi4SIsXLY4Guo2UTCRVVFQkabhfhHNONrMaIZVKKZlKKh6Pq7SkNGqSbSTJKHShfD+m0tJSOec0ODCgIEhLrmjsDRupr69PQ0MJFRUVqbS0dMwm1liVlJbK86LG5EEwMiQZHW4UlxarvmFJ7v8D/QOqqqqSnJROp8fcfiIxpFQqJd/zVVpaNuKLRkYudCouLlbMjymRTEZNvUOpqqpKVVWVuV4Ug4NDKioq+tDHPQsWLNBXvvIVeZ6n8vIKuTAKdcIgKid1/PhxdXd1q6GxQVVV1bngY9asWZo1c1buOevq6or22pjo8bCSccN9MuYvmK/Vq1frzbfe1PPPP6/S0lLNmztPA4MDevPNt3SytVX19fW69dZPKB6PR+EG628BAAAAAFNN5sQ9CAI555ROp/WDH/xADz74oB577DE555RMJDNVESgYhBuDYAMAJoDR2NJO2Tdvz3rRNsZkBruj4COZTKq8vDwqm6Rswy0pDJ28mFFxSbHCIFQikYgChdG9GjIlnXp7e5VKJVVRXpELU7Jfy36Ox2PyPE+pZGrM6o/8zYcDluHP2eWl45WuMsYqlUwpnU7LejYa0M+7VmONwiBUcXGRPN/LhSClZdFthc5JYbS6IQwDpVPpqAyUc1dtmJ7dp9m1s3XPrE/JhaH8mB/1HwmiwOZwy2Ht2LFDoQvV1NiksrLS4Ts86u4YY3OrMvLufE51dbU23bdJbW1tOnjwoL7//e9rds1sDQ4N6czp04oXxfX5z39eK1askBQFK57nDd8eAAAAAABTjHNOnu/p6NGjeuvNtxTzY9rymc8oeyLs+37Ud2NydxNTEMEGANwgUUkjDY+RZ1cCmExdSqfM3ygAyK4O8OTlrsPJKZVO5VYfjCcbVIwIAjK3m12N4Xt+1Bg7DHKlsUbI7ymRbQvhDQca2V4R1nqjv1FBEChIB/KKPMV8f8R1ZApvZlYumMxMjiDvS1E9rTAd5h6HbKiR/9hdjokeTHm+lQuGbyudSOn9ffu0devPdPToMTU2Nuj2O25XdXX1Za/LuageaCqVHrfRmR/zNTg4qFQqej46Ojo1ODiodDqtgcFBhS7UyZMndfHiRVXnrQwBAAAAML05SXLjlNodPXnteuRq+U7AdV3r7Wm4MkH+RLirTUzL/14zajLZiMuyl1/r/cl+25W2v5ZtLvd9TFQbl8n8yZZ7NjJqbmnWf/1v/1XpIK3Pf+7zSgeBYvGYXBjKmcwEUB5PTBCCDQC4QaKVB2HugC+ftTYzeO5yB0ph6GTt8MGdNVbWRk24RxysZoRBKOvb3AGstTZX1il/H4wxsp7NrGTI25/RpZIuc3BhjMnkJEZ2vBF/o9wqi/ESAedc1Mcis4LFGjMc1GRXqTiXeSiiOxntohsuk3WFg8moUXdmg5R09uxZvfnWm9q2bZt6ei5p4cIF+vLvflnLli2X548OZkbuZ/Q57zHKhCthEOr9ve/r6ad/qrZTbWpqatIdd9yhufPmamhoSHv37NU7u9/RL3/5SzknPf74F6PyXVd4XAEAAABMTdkV+S50Cl0Y9Q+0JlrNnz/Anneel06nZY2Vk1MYOvm+F50LfZjziby5VUE6lORGnideb/hhhksOWWtlPRudjxqbOx8MXRjdPyu5wCkMQzk5edaLJs1lbzu/QkDevhhrov6JqbTi8fjIfb7K/XWBy5UYloZLKHuen+k9Ofa+Z5+j/Cwld59s1MsxtwI/u7+Zfc6GMNlJgNaPbiSdCmStia5jmshOkcw+305OBw4e0J/92Z9Lkh555FGlUilZ68kqmvyZqcLNuTI+MoINALhBXObAaUyu4aSYH5M10cFgbsVFGCrMHFUZZ5RMJiU5+b4v3x/bdCt0oUxocwd9YRhGgcGo25KUKxcVi8ejg7PsdV1uQs2YMk1m3G2NNVHNTM9TEARKpVJjt1G0b9kDYS97gB5dsaJ2FtHBdrZx97Ue4ThF15c9uHz33Xf14osv6tChQ/J9X/fcc7cefeRRLVq86Kp1PXMzjkwUAuUOfJ00ODCoPXv36siRw1ratFRPPvmkli1fJs96cpJu/cStihfF9er2V7Vnzx7dt2mTysvLc2XIAAAAAEwfRkZ9vX3atn2bhoaG9NhjjylmY2POqdKptAYHBnX8xHEdP35Cl3p6JElz587V6tWrNXfe3KvelnNO0aL86HympaVFH3zwgTo7O1VWVqaamtmqr1+iRQsXyY+PXmF/bXov9Wr79u3yfV+bH9ysktISeZ43chKfk4YSCR1uadHp06d1/vx5eZ6n2ro6rVy5QnV1c2VNdmA7L7BxUmYhv/bu3au9e/Zqwyc2aP2G9VffT6dcA+t4PK7OzvNqa2tVa2urenp6VF09QzNmVGvVylWaPXu2wjCMzjuz/SCd04XzF3Ty5EkdO3pMQ4khVVdXa968eWpqWqrKioq8c9foUzKZVPvZdp1sbdW59nYNDg5qzpw5WrBwgZYvWy5rps85YH6oYYxRGGZX8Vi1NDfrL/7iL5ROp/WFL3xBRfEiybPysvW5CTYwAQg2AOBGyZRUGu/dOhaPy4/FlExGvTZysz8UrbxIJpO61HtJqVRKJSUlisVi44YNzoUqKytTPB5XIpHQUGJo1EZSOh1oYHBQ6XSgkpKSkSGJGbnt9RxYxGIx+b6vVCqlocHBMV9Pp9Pq7u7WUGJIZWVlisXiuZUYJjfrxeXCj6xrKkWVmcWTTgd65ZVX9LOfPaPEUEILFy7U5z77Oa1fv17lleXKVJm6otxClrxl3NFsqVD9A/06ffqUYn5Ma29Zq2XLl2WW0zpZY1RVXaXbbrtNb7zx7+rt7dXFrotavHjxNT6CAAAAAApRtvzSeGWYDjUf0rPPPqvS0lI99thj2W8Ycd518eJFbdu2Xdu2/VJ9vX0KwmiVhWc9LV+xXI9/8XFt2LAhbxLWeGc1RtZKXV3deu211/T667/S6dOnJEm+5ysdBJpbV6cnv/6k1q9bH4UbVzjvG+++HD58WM/+4lktXrxYn/rUp1RSWpIpLZyZmCej7u5u/eK557R9+zYlk0kF6SC3TdPSJj322GO65ZZ1Kiktjr4mjZgI1tNzSS+//IoOHjyoyqpKrV279uoTxTKVC+LxuNrb2/X0009r9zu7lUgklEqn5HmePM/Thg0b9Pjjj6u+vj6a8JaZD9ja2qof/vCHOvrB0cz3pOVcqNmzZ+uTn/ykHnnkEc2ZPSc6fw2N+vr7tWfPb/Tyyy/r+LHj6h/ol+d5CsNQs2bO0t333K2vP/n16MqtcrczlThlqi1kX4tOcmFmwmHmhRWLReMDLS0t+su//EvFYjFteXiLysrLctUeoh6jdN3AR0OwAQATJLdM+DLvzdmm1M5JJSXFqqys0JnTZ9Ta2qqVK1bKy6x6kIkOcHt6ehSPxzV7zhzF4/Hhq86EAdZFy36LS4pVU1OjU6dO68zpM0qn0vJjvsJ0VKqq58IFtZ48KWuNZs+uiVZsjFdfND/suMbjCxc4zZwxU/F4XP39fTp2/Jg2fGKDjIw8Pyqj1d3TrTOnz8j3fdXVzVVRUVzGWA2vQc0GCNHyZSk6MBpzzD56wUXmIDFIB3r99R36t3/7VwVBoHs33atHHnlEc+vmynjRcmbP96I+IZmqVUZmxIFY9m67TMAy4maNle9lVs0o6jNiTHQwHIZOnm/kQqm4qFjWGgVBOlrFcpUVIgAAAAAKXxAEMtZKximVTGloaEjHjh/Ts88+q56eHhUXF2cGcqMywkEQysuUctq5c6eef/45BUGgdevXqX5JvZKppPbt26cjR47oJ//7J5o3f55q62qVTgXyvbED/cZE5087duzQ008/rTAMtWHDBi1ZskRhGOq9995T+9l2/ehHP1JJSYlWrVo9PJlrzJVFl/cP9Mtaq8RQQidOntDWn29VR0eHZs2alZuln29waEi/3PZL/fKXr8iznm6//XbV1c1VGAbauXOXmptbtHXrVtXV1WnxksWy1kYrLdLR49XX16cdr+3QiRPHFYZB5n5d+6D3+fPn9aMf/UhvvPGGFsxfoDvvulNVVVW6dKlXhw4d1J7f7FEqmdI3vvENzZ0/V7LSyRMn9d2//q5OnDyhhoZGrVy5Up5n1dnZqUOHDunVV19VaWmpHnnkURUXF0mSTp86pRdeeEGnTp3SvPnztbSpSSUlJTp95rQOHz6s1159TeXlFdqy5WGVV5RPm1UJzkW9QbNBVFQKLKpCcfjwYX3nO99RGIb6whcek7VRD1DreVGZsGnw+ODGIdgAgBthnDdnY03mQDZQRXmFGhsb1dZ2Su+++67Wr1+vutq6XBjw3nvv6czpM6qoqFBTU2PUIyNwutB1UZcuXZLvxzS7pkZFRUUqKy3TLbfcouPHjmvnrl36xK23qqGxXta3cqF09IOjOnr0qEpLy9TQ0Cjf8+VCp76+PnV1dylIB6qZXaPy8vIPdfCYvU/VM6pVV1er9vazamlpUfvZdi1YtCBaJWGNmpub1draqtLSUjVkZ8gYyQ0vzsj0E4lqkUY9PdzYuqROam9vVxAECsNoFk1xSbG6urr061//Wr2XerX5wc367Gc/p7q62lxo4nlRqBFmwhLjxi+rla0NG4wq5+UklZSWqK6uTql0WieOH1dv7yVVV1fLmGj5eDKZ1IGDB5RIJDRnTq3Ky8s/1OMIAAAAoPAYGYXOKWaN3nvvPb333nvq6upSa2urOs51KAyjng3OOVkv03MjDOX5VqdOndK2bds0ODikRx99RA8++KDmz58v55z279+vf/7hP+vYsWN68cWX9OTXviZjonLEI86TMpPSOjo7dOjQISUTSd3xyTv0+OOPq6GhQalUWmvWrNWPf/yUTp44qV07d6mhvkElZSXR948+bzWSwmglw1tvvqWLXRfV2hqVdvI8T/F4PKomIOX6N1pr1dFxTrt27ZKR0ab7NunRRx/VzJmzFAaBli9frp/8y090uOWw3nrrLdXU1KisvEy9Pb166823dPTYUXV3d+v48RMaHBzInZNe62z+IAh04MABHThwQFWVVfr8Fz6vOz95p0rLStXX26c9e/fqn3/4Qx0/cVx739+rufPnKpVM6dXtr+r8+fNqbGzUE088oTWr18haq4HBAb3y8it6/oXntW3bNq1YvkJrb1mrMHR69713dartlGbPma2vfvWrWr58mTzPU0dHh1566SW98ca/69VXt2vtmjVqbGqSH/OmxcC9UxSuZWcnZvuteNZTIpHQgYMH9Od/9ufyPV8PPfyQTLGRzYZ019vUHdDY+a8AgI8g0/P68u/JJhpor6is0Lp161RZWaH9+/brF8/+InfwGx0MvaoLFy+oqalJTU1NkqQgDPX222/rB9//gf7xH/9Rx08cjw6UfauNt25UVVWV2lpb9bOfPaMjh4/o4oUutbQ066WXXlJXd5fmz5unZcuWRs2wXaj3972v733ve/rbv/1bNTc350oxucxS0mu9w+Xl5dr8wGZZa9XS3KIXX3xRJ0+cVF9fr/bt26ef//znGhwc1IoVK7R02bLL9uoY0cdjnJUviURC27Zt1w++/wM99dRTOn/+vCTpxIkTOneuQ0EYaMGChTp//rxaWlp0uPmwmg816+DBgzp8+LCOfvCBBgYGxjRYH37ihhu+Z5+r7Kd4PK4VK1Zo1qxZ2n/ggJ566sc6dOiQenp61NnZqeeff17bt2+XJK1du0Zz5swZdyYTAAAAgKklFosmjjU3N+vf3/h37dmzVxcvXJSTy8xMt8O9KIYXrevAwYM6evSoFi1aqE33btLChQvleZ5i8ZhWr1qt9Rs2yBqrlpZmXbx4MbcK3eUvOTdRk/CTJ1vV1tYmP+brvvvu09y5c5VMJGWN0erVq3TrrbfKyenwkcPq6u66YqUBY4za2tq0Y8cO7d27V52d51VWVqYwdArSQaYXZObuOKd0Oq1jx47p7NmzKisv0z333KO6uXXyPU/FpcVav269NnxigxLJpA4dPKRLl3qVTgVKJBLat2+f3n7rbR07dlyDgwNjVs9fi3Q6rRMnTqirq0urVq/WHXfcoYrKSvmer+oZ1brn7rvV2NSowcFBnTkTVTg4d65D+w/sV+ic1q1br/Xr18uP+fJ8TxUVldp03ybV1dWpq6tLnec7ZaxRX2+vDhw4oFQqpU996lOqX7IkE74Y1dTUaP36DaqqqlRPd49OnT4tz7PDz9MUZ42RHbUMKPtc1tTMVlNjk/r6+/SP//RP2rdvX6Y36Mj+LMD1YMUGAEygbDmj7KqE7OqC0Twb1fk8dPCQdry+Q6/88hXtff99BUGgvt5eDSWGtGTJEj322Bdzs/+NkTo7O9XS0qKKygoNDgzKi0WzHBoaG/Tphz6trVu3ateuXWppaVFZWZkSiYS6LnapqqpKWz6zRbW1tbkAo7e3TydPtiqVSurSpUtRTxA3okKUpKiEljUmWk466qDMKWpUd9vtt+mBBx7Qr3/1a/1y2zbt3LlTFZUV6uvtU+f5Ti1ZvERbtmxRdXV1rgbnaGFm9pKRGdVIPHNboVN7+1kdOHhA8+bOUzqdVhiEamtrU19fryTpX/7lxyopLsmVtMq/D3V1dfrGN76h8rLxV1OYTCM7z/Oi78/WjDWSZzytXr1GW7Y8rBdfeFGvvfqq3t29W9UzZiiVSurixYtKDCW0avUqbdmyRWVlZVd6mQAAAACYIoIgKn17++23a9myZQqCQMlkSh98cEQ7duzI9ROIwgQTla1y0unTp2SMUX19vebU1kbbKSpzGy+Kq7GxQaVlpbpw4UKuDFSuYfeIacpOHR3n1HupV7Nnz9aaNWtUUloShSDOyTe+Nm7cqFdeeUUdHR26eLFL8+bPG3M/nCSFkrHSqlWr9Ef/6Y8yE7+kY8eO6RfPPqvSstK8Er1ROS056dy5cxoYGNTy5cs1b978qBehH+1kLB7T2rVr9dJLL+ns2bPq7+/T3Hl1Kisr02/91m/pvvvvl+dZ9fX16aWXXlJra+uHevydc+rt7ZXneVqxYrmqKqui8lzOyQVO6SCtstIyBUGgVDIlySiRSCgIAgVBWg0N9YrFYwrSw+eQsVhMFeUVKikuyZRVkrq6u3T27FlVVFZo2dJlI1bpW2PU2NCQKRF9SqdOtUUrc4yXqwwwFftJRP1lMv+2ww3hq6uq5UKnIAj0x3/8n/QHf/CHqqqsVCKZlDFRRYREIpkp4ZzXSD6vbwtwLQg2AGDCGfmep8aGRpWVlqm6qjq6OPtmnWlKXV5Wri996Uuqm1unvXv3qr+/X6lUSpWVFaqvr9c999yjFStWRKsyrFWQDlRXV6db1t2iysoqFRcXK51My/M8FRUX6ZHPPKKaWTXauWuXejLNusvLytXU1KS77rorNwtFLupLMWNGtdasXi2naBZFNqSIGnoPH1x4nqf5C+ZrzZo1qiivGL6bLlp+bK2V53n68u9+WfVL6rX73d3q6elREISqq6vTypUrtem+TVq9enWu/utoYehUUVGhdbes0+w5s1VSUjJm1obv+1q4cKHWrFmjWbNqFI8XKZlMKubH1NjYGO2PC2WMVRgEI1ZMGGM0Z05tbtn0eMpKy7R+3TotXrxY8Xh85BedVF5epi1btqimpka7d+9WZ2enwjBUcVGxlixZolUrV+n+Bx5QXV3d2DJaAAAAAKakbG+9psamEYGDMUZvvPGGgiDI9ZSwnpVnrZKJlC71XJK1VjNnzFQs5ke9/DLfH6QDzZo5S8VFxert61VfX1903XnnlKFzsjaaDNbf36+hxJBqamqi4MMp91meVFcXBQndXd1KpZK568jvAWHyei0uWLhACxYuyG03c+YMvfTSi0oMJZRIJFSWLsvd72QymihnjFRbW6vS0hIZa3LnisYYzaieoaKiYvUP9GtwYFCSVFJSovrGetU31kuS+vv6tWvnLrW1tmV26Noe/5gf01133aWGhgYtXbos2uXQyXjRYzM0OKTjJ44rHo9r5qyZ8n1P1dVVeuihhxSkAy1atGjMdba1nVLn+U7JRBUKwiCMVs1YT1VVVWNLD5vofLW4uFjpVFo93T25SXrXXA2h0OQvuMiEd0XFRbrjtjv0rW99S7/Zs0ff+953tWPHDj35tSfVI6eurm7FfF/dXd0qKy9TSUmJSkpKRvbABD4Egg0AmGBGkqzRk08+qVQ6NXKQPHuAmVEzp0af//zn9dCnH1L/wIASiSGVlpSqvKJc8aJ4bnVDEASKF8W1efNm3bfpPoUuVDwWj8IIRbM/Kqsrdf8D9+vue+7WpUuX1Nvbq3i8SLW1c+R5XhRqhFGokp1RtH79+mgQPnMMYa0dPn7MBDDWWj322BcVhkFudk7uvtrh1RXVM6v10EMP6d5N96qvt09hGCpeFFdpaani8aJMuc1xuqc5yblQixct0p98+09krVVRUdGYUk5+3NcTTzyhL3zhCzKKDppkpIe3PKyHHn5Y1karSkYfELlMfTBrPcX88d/2QheqqalJf/r//KmMsSqKxzPLY000gySjsqpS9967Sffee696L/Wqv79f6SCtGTNmqKy0LLO6hVADAAAAmC6MzHBIIClIBfJiXtSuIggVBFFzwbzTQIVhqPMXLqi0tDRaLRAESv+f9u79SaryzuP453nO6e7py9wHBpFcXAOaQLTEkZTAllnFSxSSrJr8A8l/k/09l9r8lGQ3VYkbJZEfImwFRZNsEoIQgyMFCReVyyAw09Mz3X3O8+wPz+kz3cMYgwFNw/tlUeB097kNVM15Puf7/bbbSy16FYKRQiG8lrpUSTtRHMdhf1ayWnoYrVPNvrxy3EY2VG64cF/XarfUbrflEpfd60UrDxLPzqfdasvaSHEcK8raahUKhfB0vgn3g0mayDmnOI5VKBTVarZUjsuykZVLQutk510ewjQWGlpsLGqgPNCzy1azpYXFxfyWMa90+dsXX1Ec6Z577tX9U/eHQ0+X2n415hvau3evLly4oFWrVumTn/ikZEJFwWOPPhaOP0nVbrazrgthf7/97W80c2FGd9xxh9asuU3WWDWbTS02FxVF0YqhSxRH+X2s805pkiouxMqaAdw0LamurqgIlUEuddq8ebO2bdumL37xi1q/YYP2vPiiXj/0uvbs2aNnv/asXJqqnV2fuBmrUq7k32eftY6gYgPXgmADAG6QQqGwVCHQ1Rmp+wdVuTA4u1KpqFKp9G7ALb0/MmHoWCEuqBAvqzowS++NbKTyQFnlgbImV0+uuD1JWW9Xo1Kx1LudZT/Qdp6cGCiVej7bkS/i+/DLWqtKuaJKedm59Gw0nH93wGOMURRHKpQK+fac81mfzqX9xnGsOIp79tl9PfLXrpE1VrZgeys6slLxnmvipTgbcjY6OqrR0dEPtT8AAAAAN5GuSoooivIHyvKqCfWuazvn8ge/OhX63YwJXw8V6eGeZKVF/tAqyuftkK214Z7IKF8s9r6rbVTXIEGXenXmN3e21blP7FSeWBspisLDW52ZEcZ02gYvHX/STvJztFmrre4TNsaEeSPdD4H5rutmpbiw1JbommocvFSI47z1lpGRiYxmr8xq7969eumllyRJGzdu1GfWh/mV+dwTL5WKRaUuVZqmunjxPe3bt1f7f7Vf4xPjeviRh3XHpz+9FFqlqYxMHlZ1MyZc/8hG4Xpn97s33TK96f1zaOXsNThY0ze+8Q0NlAZ07NgxrV27Vjt37dS3/uNb+tnzP9Mjjzyi8YkJtdttDQ7WVCqVwr+V8Jf15rtO+EgQbADAjfBRVpte477e90eGa9mOf58/f0h51UjXAPOrjnKlJ4luIEphAQAAAHxYxoSqhs4iuukJL3yoxkhCtUOxWFRko7wSwrvwVHuY72DyqvvO/VAIKZZChCRJ8mqPKK9SN/I+hCZxHPfc3+RBiskPp/c+cVkY02635ZxXux2ONxtFKMnLOa9mq6lWqx0GphfivO2WjWy+7SiOsvZZ9qpOAL0XrjO7Uh+cCnTdH3YCjXazrTcOv6EDBw7o0KFDcs5r+/bt2rFjh8YnxsMckWwnzjstNheVJImOHD6iV7LPjIyGbgRTU1PyXfux1obrvOKBhaCk8/0uFG7OJdfuc19qIeUVx7GGh4d14cIFNRoNpUmi7du360c/+pEO/fGQ3vjzG3ryySe1sLCgYrGkYrHYtQ7g8wcggWtxc/4rAwD0Le98dp9bqAAADttJREFU/oQRAAAAAPSjzgJwJ0Tovr3pzJ9IXSrvvKIoCzU6n80qF0KFwNK9UT4/ozO3wYbKEOc6bZtMz/58VqRhrQ0tjLurKD4gNfCdCnYT5nl47+VculR5n1ftG8VxHF7LWl4512k/kM27sCb7ml8WvnTvL6twyUKHv/dusNOaWQqtp375y5f08v79evfsuxobG9euXTu1detWDQ4OhmPOZpUYH8KWs2fPat++ffr1r3+tubk5Ta5erWe/9qympqZUGijJJe6q2Snvd3A9FTa3Qg1C9vChkVG9XteVK1dkrdXo6Jjq83Vt2rRJD//bw/rhf/1Qu3fv1o4dO1QqlmSsyeevLK/uAa4FwQYAAAAAAABwPXW6PnXND+iwkVUch/kZodqhFdoEdy2gN5thUHdciFUqDWSbNPLZbItO2GGNVa1aVRTFOnfurFqtpgpxQTYO1QVpkursuXNqtVoqFouh/W5WrWBT2xOo5DqH25nFaIy0wswLY0N745GREUlGs7OzS6FGl3q9rnq9LiOjYrEYhqQve5v3/poHbfusSsLJaWZmRi+88IJeffVVSdLmzZv15V1f1l1339XTKqx7X6dOntYPf/ADHfnTn1QulzU19YCeeeZpfWLdJ8IbnfLrUywWQ9utJLmqFZWxRvPzDV26dFnGGJUr5VtjsT5rG2ajEGZVq9Vw/uWKzp59V4VCQQ9ufVCvHHglH3Jfq9UUaan6CPhHEGwAAAAAAAAA11E+W3HZCner2ValUtGayUlZa3X+3HnV63UVRguyLrTmSZJEp06dUrvV1sTEhEaGh+VTLxNlW3NW8l5eUlyMNblmUuXygM6ePadL713S5JrJfOE4iiKdOnlS9fq8Vq9epWq1JinMNPQmVWzeZ2mwa5BzFEd55UdIRZS3aCoNDGhiYkKFONbFixdVr9dVq9V6NnT69GklSaJVq1ZrsDa44u6WKjau4RrLyMnp/PkLev75n2n//v26/fbb9dBDD2nbtm0aHhrOt935fqRpqCx599139f3v/6eOHz+uDRvW66tf/XetX/+ZUNnR0yY5VISsmlil0ZFRnT9/XmfOnNGd/3Jnz7HMzc1q5sIFRVGkifGJW6YDQSGOlRaLeWgV2UjGmDzk+NITX9LGjZt014YNGhke0WJzUaZg5LxXdItcI9w49oPfAgAAAAAAAODvZU1otbO8IqIQh+Hed37mTtVqNf315F919OjR7On38Aj8/Py8jp84Ie+9hoeHNTwyIi+vxYVFLTQW1GjMa7HZlPeh7GFyclLlclmzs1f0f7/7nZrNplzq5FKner2u3/z2t1pcXND4+EQeOmSjEcI+pb9ZYdBpGxRHcWhxlX3GWqsothqsDapSrejtt9/WoUOv93x2bm5Orx96XUmSaO3a21SpVORSF7bR2acLw7dDsBGqKTr/hV5cWeer5cGHDV87cviwDv7hoIaGhvSVr3xVu768S2PjY/nnTbR0clEcqZ20tWfPHh07dkx33323vvnNb+r+qc0aGh6Slu3He680STWxakK3rb1N8/MN/f73v+85DO+ko0eP6r1LlxRFkcYnJq4aCH+ziuJIxWJJhWJBpVJJxVIxzFexVmmaamx8TBs3blS9XteJv5zQQmMhCz8+7iPHzYCKDQDAxyLvp7nS15fL+rcCAAAAQD/IW1B138f4sMieJqm+sOUL2v+r/Zp+a1ovvbRXIyMjuuOOO9RoNLRv3//qyJHDkqRHH3tUY+OjkpcuXryo5577H83MXNBnP/s5PfP00ypGRa1bt04b1m/QxYsXtW/vXg0PD2nLli1aXFzUyy+/rD/+8aBKpZI+v2mThoeH5J3X3NycfvzfP9bZs2e1cdNG7dq1S+WBcs+xhhOR0iSVkZGN7NJ5KQxEd6nT3Z+9WxvWb9Ch1w/phRee18T4uG5fd7uazaZefvkVHT16VMVCUVu2bAkhTVYFkYcqPrS7ct6FWR7eyftsSLox+WvTb07r57/4uZqLTT38yCPa/q/btLCwoLfeekuzc3P6/KZNmpyc1JtHp1WIY1lrwwB2E4Kmaq2qNbet0dtn3tbhI4dljNGnPvUpJUmiE8dPKGknct4piiLFUSwbWY2MjGpwcFClUklTUw/ozTendfAPB/XT557T1q1bVSqVdOLEcb326mtaWGho/foN2rjxcz1VHzczI6M4G2xvTPieWhtpbGxMjUZDly9fVqPRkDVWg4ODKpfLslGkW6NXF240gg0AAAAAAADgBnBdbZC880pdKmOMCsWCnvjSE7oyO6ujR/+sb3/721q3bp0ajYZOnjylJGnrwa0P6r777gsbMtKlS5f11lvTOn/+vGq1QTnvlbRT1Wo1bdu+TafPnNbp06f1k5/8VAcOHFCSJDpz5oyai0098MADum/zfapWq0pTp0ZjQdNvTevkX09qZHRUzWarN9jo8ApDzhUWsbsrETqzJsbHx/XY44/r3PlzOn3qtL7z3e9o7dq1SpNUJ/5yQs1WU/fff7/uueceDZRLoZrEubyixcuH66QwOySKImUr5UrTRDYuyHuv+vy8pt+c1uzcrDbctUHeeV2+fFknT51Uu93S8RPH9b3vfTcPTTrBRrFYlLVWDz74oJ588km98+47mpudU6vV0muvvaajfz6aDWF3eduq8Mtq586ntG3rNkVRpC1bHtCxY8f02muv6he/+LkOHjyoarWiM2fOaGbmolavntQzzzytifGJcOmusbVWvzLGSsbng8StkRRFqlaqstaqWqkqLsQaGBhQIS6sPNcF+BAINgAAAAAAAIDrqFKtqFKpqFIpy9oob/vkXKgIiOJIm+/brFKppN27d2t6elozMzOK41iTk2u0bdtWPfTQQxoaHpJLnWxkVc7mWTQaCyoWC7LWhNZQ3uvee+9VuVzRnhdf1OEjh3X+3Dk57zU+Pqandu7U448/plUTq8L+rZU1YW7E7OysygMD7986yUvValXVSkXlSllxtLSUGMWR0iRVFEfasmWLatWqdu/erTen39R7711SmiYaHh7Rjh2P6onHH9fYxFiozrA2NMc3Ieyx1qpQiFWr1VStVvOKCdkwI0RGst4qjiMNDg1JRioVSzLWaHFxUXEca2xsTHEUqz5XV5KGAd9RFKnZbGmgVJKxVo1GQ61mS3Nzc6pUKyoNlLS42NQ777wjY42sCTNO8nkfPgxxd97JeKuhoSF9/etf18T4uA68ekAnThxXq9XW0OCgpqamtPOpp7ThrrvCZ93KHQpuRp1pMp0KHGOMjKyKpVjFgWJ4k1t681WVTMCHZHx6i8SHAAAAAAAAwEcsSRPFcZwvmBtlszfyTkxhfsb8/LzaSVul0oBqtaoKhYIkI+9dWHTv4uV7hmLnQ8qtNF+f18yFGVWrVdUGB1UqFfNWwG6FbUmhKiOy0YrH7+Xz7beTtuIolpdkIyPvsteyTTbmF+RcqitXrkiSbl97+8rbymZndGsuNGWsUaHQ+1S/S7uqO5zPgp5IxobXkiSVsgqNOI7VarWz9lVe7VZLA+UBtVttDZQH8tZaUhjSHkexFpuLStM0u97Kq1QkqVgsyRojk80TcalXq9lUu93WYrOpVqupSrmiaq0mmwVGnTZU3W2Wb5Vh4lLXsPbOKXfacvks1OgaTA/8Iwg2AAAAAAAAgBukO4B4X8sXgaUP9VR7pyokbMrkbZWuF+ddaD3UFXZkO1v6PZ+PoRVDlPzJ/k544dVz3s65UNXReTn1efBiohDQeJctkGcL6C51koycC5UaxoRZJlEhkk/D3A5rbb7PpJ0oLoTqk05rrCiK8jZW3vm8jZi1Vuosn5qlfdvIhmAn22YewJiu87oFdcIrn/1f3oqtU6lBsIHrhGADAAAAAAAA+Bh15jF0VzT8I4u/zrtQNWDNR7uI3MkxOmGFu/otYUC4VxTZq4dsLztU75TN4wgtrLrbRBlrtTyzcc6Hr2XVAcYapamT5PP2VpLkUi8bdX142ZD3zm/OpbI2VIe0W20VCoXsGELFSqdNWNioeitRVjj3W81SZtWZ0gJcPwQbAAAAAAAAwE3IL6+suNGWBxUf9N73+1onXHBhSdzapcqMPPjJUg3nXE97r+5ZD3kQIuUzNP7W/pb/ubMwLxuOJW+x1B1aGK3wAd2yFRvAR4VgAwAAAAAAAMA/pY88nAHQF65udAcAAAAAAAAA/wQINQCshGADAAAAAAAAAAD0DYINAAAAAAAAAADQNwg2AAAAAAAAAABA3yDYAAAAAAAAAAAAfYNgAwAAAAAAAAAA9A2CDQAAAAAAAAAA0DcINgAAAAAAAAAAQN8g2AAAAAAAAAAAAH2DYAMAAAAAAAAAAPQNgg0AAAAAAAAAANA3CDYAAAAAAAAAAEDfINgAAAAAAAAAAAB9g2ADAAAAAAAAAAD0DYINAAAAAAAAALjOvPzHfQjATYtgAwAAAAAAAACuNy+iDeAGIdgAAAAAAAAAgOvNSObjPgbgJkWwAQAAAAAAAADXHbEGcKMQbAAAAAAAAADAdUasAdw4BBsAAAAAAAAAAKBvEGwAAAAAAAAAAIC+QbABAAAAAAAAAAD6BsEGAAAAAAAAAADoGwQbAAAAAAAAAACgbxBsAAAAAAAAAACAvkGwAQAAAAAAAAAA+gbBBgAAAAAAAAAA6BsEGwAAAAAAAAAAoG8QbAAAAAAAAAAAgL5BsAEAAAAAAAAAAPoGwQYAAAAAAAAAAOgbBBsAAAAAAAAAAKBvEGwAAAAAAAAAAIC+QbABAAAAAAAAAAD6BsEGAAAAAAAAAADoGwQbAAAAAAAAAACgbxBsAAAAAAAAAACAvkGwAQAAAAAAAAAA+gbBBgAAAAAAAAAA6BsEGwAAAAAAAAAAoG8QbAAAAAAAAAAAgL5BsAEAAAAAAAAAAPoGwQYAAAAAAAAAAOgbBBsAAAAAAAAAAKBvEGwAAAAAAAAAAIC+QbABAAAAAAAAAAD6BsEGAAAAAAAAAADoGwQbAAAAAAAAAACgbxBsAAAAAAAAAACAvkGwAQAAAAAAAAAA+gbBBgAAAAAAAAAA6BsEGwAAAAAAAAAAoG8QbAAAAAAAAAAAgL7x/zebw0ZQqpGDAAAAAElFTkSuQmCC;" vertex="1" parent="1">
          <mxGeometry x="-650" y="110" width="1590" height="931" as="geometry" />
        </mxCell>
      </root>
    </mxGraphModel>
  </diagram>
</mxfile>
